<svg xmlns="http://www.w3.org/2000/svg" xmlns:xlink="http://www.w3.org/1999/xlink" width="1470" zoomAndPan="magnify" viewBox="0 0 1103.0399 288.96" height="375" preserveAspectRatio="xMidYMid meet" version="1.0"><defs><clipPath id="ac68b828b8"><path d="M 11 2 L 1074 2 L 1074 274 L 11 274 Z M 11 2 " clip-rule="nonzero"/></clipPath><clipPath id="9a061e16e8"><path d="M 941.886719 144.109375 C 941.886719 116.910156 933.5 91.664062 919.171875 70.8125 L 898.78125 85.015625 C 910.300781 101.835938 917.046875 122.191406 917.046875 144.109375 C 917.046875 201.917969 870.195312 248.808594 812.410156 248.878906 L 812.410156 273.726562 C 883.914062 273.652344 941.886719 215.628906 941.886719 144.109375 Z M 951.390625 207.445312 L 965.390625 188.664062 C 979.730469 200.277344 994.414062 208.46875 1014.21875 208.46875 C 1036.070312 208.46875 1047 196.859375 1047 182.515625 C 1047 165.449219 1027.195312 157.9375 1009.09375 151.105469 C 985.535156 142.570312 959.589844 131.304688 959.589844 103.308594 C 959.589844 76.675781 980.757812 56.191406 1016.601562 56.191406 C 1037.4375 56.191406 1055.53125 64.71875 1068.164062 74.960938 L 1054.851562 92.71875 C 1043.585938 84.191406 1031.632812 78.039062 1016.949219 78.039062 C 996.117188 78.039062 986.5625 89.304688 986.5625 101.9375 C 986.5625 117.648438 1004.65625 123.453125 1023.441406 130.621094 C 1047.339844 139.5 1073.972656 149.402344 1073.972656 180.8125 C 1073.972656 207.789062 1052.457031 230.320312 1013.191406 230.320312 C 989.632812 230.320312 967.097656 220.421875 951.390625 207.445312 Z M 597.992188 60.285156 L 621.210938 60.285156 L 623.601562 84.191406 L 624.625 84.191406 C 640.332031 68.472656 657.402344 56.191406 680.277344 56.191406 C 715.101562 56.191406 730.8125 78.722656 730.8125 121.058594 L 730.8125 226.21875 L 702.816406 226.21875 L 702.816406 124.816406 C 702.816406 93.746094 693.257812 80.429688 671.398438 80.429688 C 654.332031 80.429688 642.722656 89.304688 625.988281 106.035156 L 625.988281 226.21875 L 597.992188 226.21875 Z M 479.511719 60.285156 L 502.726562 60.285156 L 505.121094 90.328125 L 506.140625 90.328125 C 517.410156 69.503906 534.480469 56.191406 553.265625 56.191406 C 560.433594 56.191406 565.554688 57.210938 571.019531 59.601562 L 565.554688 84.191406 C 560.09375 82.476562 556.332031 81.449219 549.503906 81.449219 C 535.507812 81.449219 518.777344 91.695312 507.503906 119.695312 L 507.503906 226.21875 L 479.511719 226.21875 Z M 306.21875 165.449219 L 306.21875 60.285156 L 334.558594 60.285156 L 334.558594 161.691406 C 334.558594 192.761719 343.777344 206.074219 365.628906 206.074219 C 382.703125 206.074219 394.652344 197.546875 410.355469 178.082031 L 410.355469 60.285156 L 438.355469 60.285156 L 438.355469 226.21875 L 415.136719 226.21875 L 412.75 200.277344 L 411.722656 200.277344 C 396.355469 218.371094 379.96875 230.320312 357.09375 230.320312 C 321.925781 230.320312 306.21875 207.789062 306.21875 165.449219 Z M 209.015625 26.140625 L 141.414062 26.140625 L 141.414062 2.238281 L 305.304688 2.238281 L 305.304688 26.140625 L 237.699219 26.140625 L 237.699219 226.21875 L 209.015625 226.21875 Z M 76.21875 126.953125 C 87.132812 124.550781 99.515625 122.605469 113.4375 121.058594 C 113.4375 99.894531 106.605469 79.40625 79.292969 79.40625 C 78.261719 79.40625 77.238281 79.433594 76.21875 79.480469 C 58.308594 80.363281 42.0625 88.757812 29.78125 97.160156 L 18.859375 77.699219 C 32.691406 68.78125 52.894531 58.488281 76.21875 56.523438 C 78.804688 56.304688 81.417969 56.191406 84.070312 56.191406 C 124.707031 56.191406 141.777344 83.164062 141.777344 124.472656 L 141.777344 226.21875 L 118.554688 226.21875 L 116.167969 206.417969 L 115.144531 206.417969 C 103.597656 215.957031 90.578125 224.386719 76.21875 228.183594 C 71.042969 229.554688 65.691406 230.320312 60.171875 230.320312 C 32.511719 230.320312 11.691406 212.90625 11.691406 183.199219 L 76.21875 207.128906 L 11.691406 183.199219 C 11.691406 154.144531 31.730469 136.746094 76.21875 126.953125 Z M 76.21875 207.128906 C 88.859375 204.96875 100.085938 197.523438 113.4375 185.59375 L 113.4375 139.5 C 98.503906 141.34375 86.214844 143.683594 76.21875 146.539062 C 49.199219 154.25 39.003906 165.699219 39.003906 181.15625 C 39.003906 199.933594 51.980469 207.789062 68.367188 207.789062 C 71.058594 207.789062 73.667969 207.570312 76.21875 207.128906 Z M 906.902344 144.433594 C 906.902344 92.367188 864.539062 50.007812 812.472656 50.007812 C 790.222656 50.007812 769.753906 57.757812 753.601562 70.6875 L 766.90625 89.449219 C 779.285156 79.171875 795.164062 72.984375 812.472656 72.984375 C 851.875 72.984375 883.925781 105.035156 883.925781 144.433594 C 883.925781 183.839844 851.875 215.890625 812.472656 215.890625 C 800.292969 215.890625 788.828125 212.8125 778.785156 207.414062 L 764.714844 225.851562 C 778.734375 234.109375 795.058594 238.863281 812.472656 238.863281 C 864.539062 238.863281 906.902344 196.503906 906.902344 144.433594 Z M 810.703125 152.816406 L 770.160156 94.1875 L 780.28125 87.167969 L 813.8125 135.648438 L 845.457031 113.988281 L 852.414062 124.15625 L 820.820312 145.78125 L 820.824219 145.789062 Z M 810.703125 152.816406 " clip-rule="evenodd"/></clipPath></defs><g clip-path="url(#ac68b828b8)"><g clip-path="url(#9a061e16e8)"><path fill="#ffffff" d="M 11.691406 2.238281 L 11.691406 273.726562 L 1073.972656 273.726562 L 1073.972656 2.238281 Z M 11.691406 2.238281 " fill-opacity="1" fill-rule="nonzero"/></g></g></svg>