<?xml version="1.0" encoding="utf-8"?>
<!-- Generator: Adobe Illustrator 28.2.0, SVG Export Plug-In . SVG Version: 6.00 Build 0)  -->
<svg version="1.1" id="Capa_1" xmlns="http://www.w3.org/2000/svg" xmlns:xlink="http://www.w3.org/1999/xlink" x="0px" y="0px"
	 viewBox="0 0 595.28 841.89" style="enable-background:new 0 0 595.28 841.89;" xml:space="preserve">
<style type="text/css">
	.st0{fill:#575756;}
	.st1{fill:#DF3231;}
	.st2{fill:#6AC5D8;}
	.st3{fill:#F59D24;}
</style>
<rect x="380.74" y="331.86" class="st0" width="39.19" height="178.23"/>
<polygon class="st1" points="240.47,422.08 240.47,422.13 194.06,448.35 175.34,458.92 175.34,475.85 223.57,475.85 223.76,475.67 
	292.38,434.93 292.38,406.77 280.37,399.51 "/>
<path class="st2" d="M341.55,365.99V331.8H184.46c-5.03,0-9.11,4.08-9.11,9.12v25.07v16.8l65.13,38.88l0.42,0.21l39.47-22.36
	l-55.45-33.48v-0.04H341.55z"/>
<path class="st3" d="M175.34,500.79c0,5.1,4.14,9.25,9.25,9.25h156.96v-34.19H175.34V500.79z"/>
</svg>
