<?xml version="1.0" encoding="utf-8"?>
<!-- Generator: Adobe Illustrator 28.2.0, SVG Export Plug-In . SVG Version: 6.00 Build 0)  -->
<svg version="1.1" id="Capa_1" xmlns="http://www.w3.org/2000/svg" xmlns:xlink="http://www.w3.org/1999/xlink" x="0px" y="0px"
	 viewBox="0 0 841.89 595.28" style="enable-background:new 0 0 841.89 595.28;" xml:space="preserve">
<style type="text/css">
	.st0{fill:#DF3231;}
	.st1{fill:#6AC5D8;}
	.st2{fill:#F59D24;}
	.st3{fill:#575756;}
</style>
<g>
	<polygon class="st0" points="288.94,297.94 288.94,297.95 276.69,304.87 271.76,307.66 271.76,312.12 284.48,312.12 284.53,312.08 
		302.64,301.33 302.64,293.9 299.47,291.98 	"/>
	<path class="st1" d="M315.61,283.14v-9.02h-41.45c-1.33,0-2.4,1.08-2.4,2.41v6.61v4.43l17.18,10.26l0.11,0.05l10.41-5.9
		l-14.63-8.83v-0.01H315.61z"/>
	<path class="st2" d="M271.76,318.7c0,1.35,1.09,2.44,2.44,2.44h41.41v-9.02h-43.85V318.7z"/>
	<g>
		<rect x="330.91" y="274.13" class="st3" width="10.34" height="47.02"/>
		<polygon class="st3" points="360.02,288.16 360.15,288.16 371.68,308.19 379.65,308.19 391.17,287.83 391.3,287.83 391.3,321.16 
			400.98,321.16 400.98,274.13 386.43,274.13 376.02,293.51 375.89,293.51 364.89,274.13 350.34,274.13 350.34,321.16 
			360.02,321.16 		"/>
		<polygon class="st3" points="487.1,312.46 461.75,312.46 461.75,300.94 478.05,300.94 478.05,292.9 461.75,292.9 461.75,282.83 
			486.58,282.83 486.58,274.13 451.41,274.13 451.41,321.16 487.1,321.16 		"/>
		<polygon class="st3" points="503.98,312.46 503.95,312.46 503.95,300.94 520.25,300.94 520.25,292.9 503.95,292.9 503.95,282.83 
			528.78,282.83 528.78,274.13 493.61,274.13 493.61,321.16 503.98,321.16 		"/>
		<path class="st3" d="M419.12,304.3h10.87c11.72,0,16.27-7.44,16.27-15.08c0-7.64-4.54-15.08-16.27-15.08h-21.21v47.02h10.34V304.3
			z M419.12,282.17h8.03c4.81,0,9.09,1.05,9.09,7.05s-4.28,7.05-9.09,7.05h-8.03V282.17z"/>
		<polygon class="st3" points="570.13,312.46 544.78,312.46 544.78,300.94 561.08,300.94 561.08,292.9 544.78,292.9 544.78,282.83 
			569.61,282.83 569.61,274.13 534.44,274.13 534.44,321.16 570.13,321.16 		"/>
	</g>
</g>
</svg>
