<?xml version="1.0" encoding="utf-8"?>
<!-- Generator: Adobe Illustrator 23.0.3, SVG Export Plug-In . SVG Version: 6.00 Build 0)  -->
<svg version="1.1" id="Capa_1" xmlns="http://www.w3.org/2000/svg" xmlns:xlink="http://www.w3.org/1999/xlink" x="0px" y="0px"
	 viewBox="0 0 394 104" style="enable-background:new 0 0 394 104;" xml:space="preserve">
<style type="text/css">
	.st0{fill-rule:evenodd;clip-rule:evenodd;fill:#FFFFFF;}
	.st1{fill:#FFFFFF;}
</style>
<path class="st0" d="M32.2,88.7c-0.4-0.2-1-0.6-1-0.6c-0.4-0.2-0.6-0.2-1-0.6c-0.6-0.6-0.8-1.7-1.3-2.7c0.2,0,0.6,0,0.8,0
	c1,0.2,1.9,0.6,2.7,1.7c0.6,0.8,0.8,1.9,0.6,2.5c0,0.2-0.2,0.2-0.4,0.4C32.6,89.1,32.4,88.9,32.2,88.7z"/>
<path class="st0" d="M26.8,93.5c0.8-0.6,1-1.5,2.3-1.9c1.3-0.4,2.1-0.4,3.1,0h0.2L32.2,92c-0.2,0.2-0.4,0.2-0.8,0.4
	c-0.6,0.4-1,1-1.7,1.3C28.7,94.1,28,93.9,26.8,93.5z"/>
<path class="st0" d="M27.4,85.3c-0.4,0.2-0.8,0-1-0.4c-0.2-0.4,0-0.8,0.4-1c0.4-0.2,0.8,0,1,0.4C28,84.7,27.8,85.1,27.4,85.3z"/>
<path class="st0" d="M24.9,91.8c-0.4,0.2-0.8,0-1-0.4c-0.2-0.4,0-0.8,0.4-1c0.4-0.2,0.8,0,1,0.4C25.5,91.2,25.3,91.6,24.9,91.8z"/>
<path class="st0" d="M30.5,89.9c-1.5,0.4-1.9,0.4-2.9,0c-1.5-0.6-1.7-1.7-2.9-2.7c1-0.4,1.9-0.4,3.1,0c1.5,0.4,2.1,1,2.9,2.3
	l0.2,0.4H30.5z"/>
<path class="st0" d="M23.7,84.3c-0.2-0.4-0.6-0.8-0.6-0.8c-0.4-0.2-0.6-0.4-0.8-1c-0.4-0.8-0.2-1.7-0.4-3.1c0.2,0,0.6,0.2,0.8,0.2
	c1,0.4,1.7,1.3,1.9,2.5c0.2,1,0.2,2.1-0.2,2.5c-0.2,0.2-0.2,0.2-0.4,0.2C23.9,84.9,23.9,84.5,23.7,84.3z"/>
<path class="st0" d="M17.4,87.2c0.8-0.4,1.3-1,2.7-1.3c1.3-0.2,2.1,0,3.1,0.6h0.2L23.2,87c-0.4,0-0.6,0.2-0.8,0.2
	c-0.8,0.2-1.3,0.8-2.1,0.8C19.1,88.2,18.4,88,17.4,87.2z"/>
<path class="st0" d="M20.1,79.7c-0.4,0-0.8-0.2-0.8-0.6c0-0.4,0.2-0.8,0.6-0.8c0.4,0,0.8,0.2,0.8,0.6C20.7,79.3,20.5,79.5,20.1,79.7
	z"/>
<path class="st0" d="M15.9,85.5c-0.4,0-0.8-0.2-0.8-0.6c0-0.4,0.2-0.8,0.6-0.8c0.4,0,0.8,0.2,0.8,0.6C16.6,85.1,16.4,85.3,15.9,85.5
	z"/>
<path class="st0" d="M21.6,85.1c-1.5,0-1.9-0.2-2.7-1c-1.3-1-1-2.1-2.1-3.5c1.3,0,1.9,0.2,2.9,0.8c1.3,0.8,1.7,1.7,2.1,3.1v0.4
	L21.6,85.1z"/>
<path class="st0" d="M17,77.8c0-0.4-0.4-1-0.4-1c-0.2-0.4-0.4-0.6-0.4-1c-0.2-1,0.2-1.7,0.4-3.1c0.2,0.2,0.4,0.2,0.6,0.4
	c0.8,0.6,1.3,1.7,1.3,2.9c0,1-0.2,2.1-0.8,2.3c-0.2,0-0.2,0.2-0.4,0.2C17,78.4,17,78.2,17,77.8z"/>
<path class="st0" d="M9.9,79.3c0.8-0.2,1.5-0.8,2.9-0.6c1.3,0.2,2.1,0.4,2.9,1.5l-0.2,0.4c-0.4,0-0.6,0-0.8,0
	c-0.8,0-1.3,0.4-2.1,0.4C11.3,80.7,10.9,80.1,9.9,79.3z"/>
<path class="st0" d="M14.9,72.4c-0.4,0-0.6-0.4-0.6-0.8c0-0.4,0.4-0.6,0.8-0.6c0.4,0,0.6,0.4,0.6,0.8C15.7,72.2,15.3,72.4,14.9,72.4
	z"/>
<path class="st0" d="M9.3,77c-0.4,0-0.6-0.4-0.6-0.8c0-0.4,0.4-0.6,0.8-0.6c0.4,0,0.6,0.4,0.6,0.8C10.1,76.8,9.7,77,9.3,77z"/>
<path class="st0" d="M14.7,78c-1.5-0.4-1.9-0.6-2.5-1.7c-0.8-1.3-0.6-2.3-1-3.8c1.3,0.2,1.9,0.6,2.7,1.7c1,1,1.3,2.1,1.3,3.5v0.4
	L14.7,78z"/>
<path class="st0" d="M12,70.1c0-0.4,0-1,0-1c-0.2-0.4-0.2-0.6,0-1.3c0.2-1,0.8-1.7,1.3-2.7c0.2,0.2,0.4,0.4,0.4,0.6
	c0.6,0.8,0.6,1.9,0.2,3.1c-0.4,0.8-0.8,1.9-1.7,2.1c-0.2,0-0.4,0-0.4,0C12,70.7,12,70.5,12,70.1z"/>
<path class="st0" d="M5.1,69.3C5.9,69.5,6.8,69,8,69.7c1,0.6,1.7,1,2.3,2.3v0.2l-0.4,0.2c-0.4-0.2-0.4-0.2-0.8-0.2
	c-0.8-0.2-1.5,0-2.1-0.4C5.9,71.1,5.7,70.5,5.1,69.3z"/>
<path class="st0" d="M11.8,64.2c-0.4-0.2-0.4-0.8-0.2-1c0.2-0.4,0.6-0.6,1-0.4c0.4,0.2,0.6,0.6,0.4,1C12.6,64.2,12.2,64.5,11.8,64.2
	z"/>
<path class="st0" d="M4.9,66.7c-0.4-0.2-0.6-0.6-0.4-1c0.2-0.4,0.6-0.6,1-0.4c0.4,0.2,0.6,0.6,0.4,1C5.7,67,5.3,67,4.9,66.7z"/>
<path class="st0" d="M10.1,69.5c-1.3-0.8-1.5-1.3-1.9-2.3c-0.4-1.5,0.2-2.5,0.2-4c1,0.6,1.5,1.3,1.9,2.3c0.6,1.3,0.6,2.3,0,3.8
	l-0.2,0.4V69.5z"/>
<path class="st0" d="M9.7,61.1c0-0.4,0.2-1.3,0.2-1.3c0-0.4,0-0.6,0.2-1.3c0.4-0.8,1-1.3,2.1-2.3c0.2,0.2,0.2,0.6,0.2,0.8
	c0.2,1,0.2,2.1-0.6,3.1c-0.6,0.8-1.5,1.5-2.1,1.5c-0.2,0-0.4,0-0.4-0.2C9.3,61.5,9.5,61.3,9.7,61.1z"/>
<path class="st0" d="M3,58.4c0.8,0.4,1.7,0.2,2.7,1c0.8,1,1.5,1.7,1.5,2.9v0.2l-0.4,0.2c-0.2-0.2-0.4-0.2-0.8-0.4
	c-0.8-0.4-1.3-0.4-1.9-1C3.2,60.5,3.2,59.9,3,58.4z"/>
<path class="st0" d="M11.1,55.5c-0.2-0.2-0.4-0.8,0-1c0.2-0.2,0.8-0.4,1,0c0.2,0.2,0.4,0.8,0,1C11.8,55.7,11.3,55.7,11.1,55.5z"/>
<path class="st0" d="M3.8,56.1c-0.2-0.2-0.4-0.8,0-1c0.2-0.2,0.8-0.4,1,0c0.2,0.2,0.2,0.6,0,1C4.5,56.3,4,56.5,3.8,56.1z"/>
<path class="st0" d="M7.8,60.1c-0.8-1-1-1.7-1-2.7c0-1.5,0.8-2.3,1.3-3.8c0.8,0.8,1,1.7,1.3,2.9c0,1.3-0.2,2.3-1,3.3L7.8,60.1z"/>
<path class="st0" d="M9.9,51.5c0.2-0.4,0.4-1,0.4-1c0.2-0.4,0.2-0.6,0.4-1c0.6-0.8,1.5-1,2.5-1.7c0.2,0,0.2,0.2,0.2,0.6
	c0,1-0.4,2.1-1.3,2.9c-0.6,0.6-1.7,1.3-2.3,1c-0.2,0-0.2-0.2-0.4-0.2C9.5,51.9,9.9,51.7,9.9,51.5z"/>
<path class="st0" d="M4,47.6c0.6,0.6,1.7,0.6,2.3,1.7c0.6,1,1,1.9,0.8,3.1v0.2H6.8c-0.2-0.2-0.4-0.4-0.6-0.6
	c-0.6-0.6-1.3-0.6-1.7-1.5C3.8,49.6,4,49,4,47.6z"/>
<path class="st0" d="M12.4,46.5c-0.2-0.4-0.2-0.8,0.2-1c0.4-0.2,0.8-0.2,1,0.2c0.2,0.4,0.2,0.8-0.2,1C13.2,46.9,12.6,46.9,12.4,46.5
	z"/>
<path class="st0" d="M5.3,45.5c-0.2-0.2-0.2-0.8,0.2-1s0.8-0.2,1,0.2c0.2,0.4,0.2,0.8-0.2,1C5.9,45.9,5.5,45.9,5.3,45.5z"/>
<path class="st0" d="M8.4,50.1c-0.6-1.3-0.6-1.9-0.4-2.9c0.2-1.5,1.5-2.1,2.1-3.3c0.6,1,0.6,1.9,0.6,2.9c-0.2,1.5-0.6,2.3-1.7,3.3
	l-0.4,0.2L8.4,50.1z"/>
<path class="st0" d="M12.4,42.5c0.4-0.2,0.8-0.8,0.8-0.8c0.2-0.4,0.4-0.6,0.8-0.8c0.8-0.4,1.7-0.4,2.9-0.8c0,0.2,0,0.6-0.2,0.8
	c-0.4,1-1,1.9-2.3,2.3c-0.8,0.4-2.1,0.4-2.5,0c-0.2-0.2-0.2-0.2-0.2-0.4C12,42.8,12.2,42.5,12.4,42.5z"/>
<path class="st0" d="M8.4,36.7c0.4,0.8,1.3,1.3,1.7,2.5c0.4,1.3,0.2,2.1-0.2,3.1v0.2l-0.6-0.2c-0.2-0.4-0.2-0.4-0.4-0.8
	c-0.4-0.8-0.8-1-1-1.9C7.6,38.6,7.8,38,8.4,36.7z"/>
<path class="st0" d="M16.6,38.8c0-0.4,0.2-0.8,0.6-0.8c0.4,0,0.8,0.2,0.8,0.6c0,0.4-0.2,0.8-0.6,0.8C17,39.4,16.8,39.2,16.6,38.8z"
	/>
<path class="st0" d="M10.3,35.2c0-0.4,0.2-0.8,0.6-0.8c0.4,0,0.8,0.2,0.8,0.6c0,0.4-0.2,0.8-0.6,0.8C10.7,36.1,10.3,35.7,10.3,35.2z
	"/>
<path class="st0" d="M11.6,40.7c-0.2-1.5,0-1.9,0.6-2.9c0.8-1.3,2.1-1.5,3.1-2.5c0.2,1.3,0,1.9-0.6,2.9c-0.6,1.3-1.5,1.9-2.7,2.5
	H11.6z"/>
<path class="st0" d="M17.8,34.8c0.4-0.2,1-0.6,1-0.6c0.4-0.2,0.6-0.4,1-0.6c0.8-0.4,1.7-0.2,3.1-0.2c0,0.2-0.2,0.6-0.4,0.8
	c-0.6,1-1.5,1.5-2.7,1.7c-1,0.2-2.1,0-2.5-0.4c-0.2-0.2-0.2-0.2-0.2-0.4C17.2,35,17.6,34.8,17.8,34.8z"/>
<path class="st0" d="M15.1,28.4c0.2,0.8,1,1.5,1,2.7c0,1.3-0.2,2.1-0.8,3.1v0.2l-0.4-0.2c0-0.4,0-0.6-0.2-0.8
	c-0.2-0.8-0.6-1.3-0.6-2.1C13.8,29.8,14.3,29.4,15.1,28.4z"/>
<path class="st0" d="M22.6,31.9c0-0.4,0.4-0.8,0.8-0.8c0.4,0,0.8,0.4,0.8,0.8c0,0.4-0.4,0.8-0.8,0.8C23,32.7,22.6,32.3,22.6,31.9z"
	/>
<path class="st0" d="M17.2,27.3c0-0.4,0.4-0.8,0.8-0.8c0.4,0,0.8,0.4,0.8,0.8c0,0.4-0.4,0.8-0.8,0.8C17.6,28.2,17.2,27.7,17.2,27.3z
	"/>
<path class="st0" d="M17.2,32.7c0.2-1.5,0.4-1.9,1.3-2.7c1-1,2.3-0.8,3.5-1.7c-0.2,1.3-0.4,1.9-1.3,2.9c-0.8,1-1.9,1.7-3.1,1.9h-0.4
	V32.7z"/>
<path class="st0" d="M39.3,91.2l0.4,0.6c-1.9,1-2.7,1.5-4,3.1c-0.6,0.8-1,1.3-1.7,2.3c-0.6,0-1.5,0-1.5-0.6c0-0.4,1-1.9,2.1-2.7
	C36.2,92.2,37.2,91.6,39.3,91.2z"/>
<path class="st0" d="M40.3,92.6c0,0,0.6,0.2,0.8,0.4c0.2,0.2,0.4,0.8,0.4,0.8s-0.6,1.3-1.3,1.7c-1.3,1-2.7,1-4,0.6
	c0.6,0,1.5-0.4,1.7-1c0-0.4-0.2-0.8-0.6-1c0.8,0,1.7,0,2.3-0.6C40.1,93,40.3,92.6,40.3,92.6z"/>
<path class="st0" d="M46.2,91.2l-0.4,0.6c1.9,1,2.7,1.5,4,3.1c0.6,0.8,1,1.3,1.7,2.3c0.6,0,1.5,0,1.5-0.6c0-0.4-1-1.9-2.1-2.7
	C49.3,92.2,48.1,91.6,46.2,91.2z"/>
<path class="st0" d="M44.9,92.6c0,0-0.6,0.2-0.8,0.4c-0.2,0.2-0.4,0.8-0.4,0.8s0.6,1.3,1.3,1.7c1.3,1,2.7,1,4,0.6
	c-0.6,0-1.5-0.4-1.7-1c0-0.4,0.2-0.8,0.6-1c-0.8,0-1.7,0-2.3-0.6C45.4,93,44.9,92.6,44.9,92.6z"/>
<path class="st0" d="M39.1,89.9c0,0-2.1,0.2-3.5,0.2c-1.3,0-3.3-0.4-3.3-0.4l0.4,0.6c0,0,0.4,0.2,1,0.2c0.4,0,0.8,0.2,1.3,0.2
	c1.3,0.2,3.1,0,3.1,0c0.4,0,0.6-0.2,0.6-0.4C39.1,90.3,39.1,89.9,39.1,89.9z"/>
<path class="st0" d="M44.9,90.5c0-1.3-1-2.3-2.3-2.3c-1.3,0-2.3,1-2.3,2.3c0,1.3,1,2.3,2.3,2.3C43.9,92.8,44.9,91.8,44.9,90.5z"/>
<path class="st0" d="M49.7,90.1c-1.5,0-3.5-0.2-3.5-0.2s0,0.4,0.4,0.8c0.2,0.2,0.4,0.2,0.6,0.4c0,0,1.9,0.2,3.1,0
	c0.4,0,0.8-0.2,1.3-0.2c0.6-0.2,1-0.2,1-0.2l0.4-0.6C53.1,89.7,51.2,89.9,49.7,90.1z"/>
<path class="st0" d="M41.6,87.4c0,0-1.3-2.7-4.2-1.9c-1,0.2-1.7,1.3-2.1,1.9c-0.2,0.4-0.2,0.6-0.2,0.6s1-0.6,2.3-0.4
	c1.3,0.4,1.9,1.5,1.9,1.5s1.3-0.4,1.7-1C41.2,88,41.4,87.6,41.6,87.4z"/>
<path class="st0" d="M50.1,87.4c-0.4-0.6-1-1.7-2.1-1.9c-2.9-0.8-4.2,1.9-4.2,1.9s0,0,0,0.2c0.2,0.2,0.4,0.6,0.6,0.8
	c0.6,0.6,1.7,1,1.7,1s0.6-1.3,1.9-1.5c1.3-0.4,2.3,0.4,2.3,0.4S50.4,87.8,50.1,87.4z"/>
<path class="st0" d="M40.3,78.4v-5.2c-0.6-0.4-1.3-0.8-1.9-1.5c-0.6-0.6-1-1.5-1-2.3h-5c0,0.8,0.2,1.7,0.6,2.3
	C34.1,75.1,36.8,77.8,40.3,78.4z"/>
<path class="st0" d="M41,69.5v2.3v9.4V83h3.3v-1.9v-9.4v-2.3H41z"/>
<path class="st0" d="M36,57.4c0-0.6-0.6-1.3-1.3-1.3s-1.3,0.6-1.3,1.3h-1.3v1.9v2.1h5v-2.1v-1.9H36z"/>
<path class="st0" d="M53.1,65.5v-3.1v-3.1v-1.9h-1.3c0-0.6-0.6-1.3-1.3-1.3s-1.3,0.6-1.3,1.3h-1.3v1.9v3.1v3.1v3.3
	c0,1.3-0.4,2.3-1,3.1c-0.6,0.6-1.3,1-1.9,1.5v5.2c3.3-0.8,6.3-3.3,7.5-6.7c0.4-1,0.4-1.9,0.6-3.1L53.1,65.5z"/>
<path class="st0" d="M62.5,46.7c-1-1.3-2.5-2.1-4.2-2.1c-0.6,0-1.3,0.2-1.9,0.2l-2.7-2.1c0.2-0.2,0.2-0.4,0.2-0.6c0-0.6-0.4-1-1-1
	c-0.4,0-0.6,0.2-0.8,0.4l-1.3-1l-4-3.1l-2.5-2.1v-1v-3.8H41v3.8v1l-2.5,2.1l-4,3.1l-1.3,1c-0.2-0.4-0.4-0.4-0.8-0.4
	c-0.6,0-1,0.4-1,1c0,0.2,0,0.4,0.2,0.6l-2.7,2.1c-0.6-0.2-1.3-0.2-1.9-0.2c-1.7,0-3.1,0.8-4.2,2.1c-0.6,0.8-1,1.9-1,3.1
	c0,2.9,2.3,5.2,5.2,5.2c2.9,0,5.2-2.3,5.2-5.2c0-1.3-0.4-2.3-1-3.1c-0.2-0.2-0.2-0.4-0.4-0.4l2.5-2.1l3.1,2.5l4.6,3.5v9v2.1h3.3
	v-2.1v-9l4.6-3.5l3.1-2.5l2.5,1.9c-0.2,0.2-0.4,0.4-0.4,0.4c-0.6,0.8-1,1.9-1,3.1c0,2.9,2.3,5.2,5.2,5.2c2.9,0,5.2-2.3,5.2-5.2
	C63.5,48.6,63.1,47.6,62.5,46.7z M28.7,48.2c0,1-0.8,1.9-1.9,1.9s-1.9-0.8-1.9-1.9c0-0.6,0.2-1,0.6-1.5c0.4-0.4,0.8-0.4,1.3-0.4
	c0.4,0,1,0.2,1.3,0.4C28.2,46.9,28.7,47.6,28.7,48.2z M41,40.5v6.3v0.8l-1-0.8l-4.8-4l2.9-2.3l2.9-2.3V40.5z M45.4,46.7l-1,0.8v-0.8
	v-6.3v-2.3l2.9,2.3l2.9,2.3L45.4,46.7z M58.7,50.1c-1,0-1.9-0.8-1.9-1.9c0-0.6,0.4-1,0.6-1.5c0.4-0.4,0.8-0.6,1.3-0.6
	c0.4,0,1,0.2,1.3,0.4c0.4,0.4,0.6,0.8,0.6,1.5C60.6,49.2,59.7,50.1,58.7,50.1z"/>
<path class="st0" d="M53.3,88.7c0.4-0.2,1-0.6,1-0.6c0.4-0.2,0.6-0.2,1-0.6c0.6-0.6,0.8-1.7,1.3-2.7c-0.2,0-0.6,0-0.8,0
	c-1,0.2-1.9,0.6-2.7,1.7c-0.6,0.8-0.8,1.9-0.6,2.5c0,0.2,0.2,0.2,0.4,0.4C52.9,89.1,53.1,88.9,53.3,88.7z"/>
<path class="st0" d="M58.7,93.5c-0.8-0.6-1-1.5-2.3-1.9c-1.3-0.4-2.1-0.4-3.1,0h-0.2l0.2,0.4c0.2,0.2,0.4,0.2,0.8,0.4
	c0.6,0.4,1,1,1.7,1.3C56.8,94.1,57.5,93.9,58.7,93.5z"/>
<path class="st0" d="M58.1,85.3c0.4,0.2,0.8,0,1-0.4c0.2-0.4,0-0.8-0.4-1c-0.4-0.2-0.8,0-1,0.4C57.5,84.7,57.7,85.1,58.1,85.3z"/>
<path class="st0" d="M60.6,91.8c0.4,0.2,0.8,0,1-0.4c0.2-0.4,0-0.8-0.4-1c-0.4-0.2-0.8,0-1,0.4C60,91.2,60.2,91.6,60.6,91.8z"/>
<path class="st0" d="M54.9,89.9c1.5,0.4,1.9,0.4,2.9,0c1.5-0.6,1.7-1.7,2.9-2.7c-1-0.4-1.9-0.4-3.1,0c-1.5,0.4-2.1,1-2.9,2.3
	l-0.2,0.4H54.9z"/>
<path class="st0" d="M61.8,84.3c0.2-0.4,0.6-0.8,0.6-0.8c0.4-0.2,0.6-0.4,0.8-1c0.4-0.8,0.2-1.7,0.4-3.1c-0.2,0-0.6,0.2-0.8,0.2
	c-1,0.4-1.7,1.3-1.9,2.5c-0.2,1-0.2,2.1,0.2,2.5c0.2,0.2,0.2,0.2,0.4,0.2C61.6,84.9,61.6,84.5,61.8,84.3z"/>
<path class="st0" d="M68.1,87.2c-0.8-0.4-1.3-1-2.7-1.3c-1.3-0.2-2.1,0-3.1,0.6H62l0.2,0.4c0.4,0,0.6,0.2,0.8,0.2
	c0.8,0.2,1.3,0.8,2.1,0.8C66.4,88.2,67,87.8,68.1,87.2z"/>
<path class="st0" d="M65.4,79.5c0.4,0,0.8-0.2,0.8-0.6c0-0.4-0.2-0.8-0.6-0.8c-0.4,0-0.8,0.2-0.8,0.6C64.8,79.1,65,79.5,65.4,79.5z"
	/>
<path class="st0" d="M69.6,85.3c0.4,0,0.8-0.2,0.8-0.6c0-0.4-0.2-0.8-0.6-0.8c-0.4,0-0.8,0.2-0.8,0.6C68.9,84.9,69.1,85.3,69.6,85.3
	z"/>
<path class="st0" d="M63.9,84.9c1.5,0,1.9-0.2,2.7-1c1.3-1,1-2.1,2.1-3.5c-1.3,0-1.9,0.2-2.9,0.8c-1.3,0.8-1.7,1.7-2.1,3.1v0.4
	L63.9,84.9z"/>
<path class="st0" d="M68.5,77.8c0-0.4,0.4-1,0.4-1c0.2-0.4,0.4-0.6,0.4-1c0.2-1-0.2-1.7-0.4-3.1c-0.2,0.2-0.4,0.2-0.6,0.4
	c-0.8,0.6-1.3,1.7-1.3,2.9c0,1,0.2,2.1,0.8,2.3c0.2,0,0.2,0.2,0.4,0.2C68.5,78.4,68.5,78,68.5,77.8z"/>
<path class="st0" d="M75.6,79.3c-0.8-0.2-1.5-0.8-2.9-0.6c-1.3,0.2-2.1,0.4-2.9,1.5l0.2,0.4c0.4,0,0.6,0,0.8,0
	c0.8,0,1.3,0.4,2.1,0.4C74.1,80.5,74.6,80.1,75.6,79.3z"/>
<path class="st0" d="M70.6,72.4c0.4,0,0.6-0.4,0.6-0.8c0-0.4-0.4-0.6-0.8-0.6c-0.4,0-0.6,0.4-0.6,0.8C69.8,72.2,70.2,72.4,70.6,72.4
	z"/>
<path class="st0" d="M76.2,77c0.4,0,0.6-0.4,0.6-0.8c0-0.4-0.4-0.6-0.8-0.6c-0.4,0-0.6,0.4-0.6,0.8C75.4,76.8,75.8,77,76.2,77z"/>
<path class="st0" d="M70.6,78c1.5-0.4,1.9-0.6,2.5-1.7c0.8-1.3,0.6-2.3,1-3.8c-1.3,0.2-1.9,0.6-2.7,1.7c-1,1-1.3,2.1-1.3,3.5v0.4
	L70.6,78z"/>
<path class="st0" d="M73.3,70.1c0-0.4,0-1,0-1c0.2-0.4,0.2-0.6,0-1.3c-0.2-1-0.8-1.7-1.3-2.7c-0.2,0.2-0.4,0.4-0.4,0.6
	c-0.6,0.8-0.6,1.9-0.2,3.1c0.4,0.8,0.8,1.9,1.7,2.1c0.2,0,0.4,0,0.4,0C73.5,70.7,73.5,70.3,73.3,70.1z"/>
<path class="st0" d="M80.4,69.3c-0.8,0.2-1.7-0.2-2.9,0.4c-1,0.6-1.7,1-2.3,2.3v0.2l0.4,0.2c0.4-0.2,0.4-0.2,0.8-0.2
	c0.8-0.2,1.5,0,2.1-0.4C79.6,70.9,79.8,70.5,80.4,69.3z"/>
<path class="st0" d="M73.7,64.2c0.4-0.2,0.6-0.6,0.4-1c-0.2-0.4-0.6-0.6-1-0.4c-0.4,0.2-0.6,0.6-0.4,1
	C72.9,64.2,73.3,64.2,73.7,64.2z"/>
<path class="st0" d="M80.6,66.7c0.4-0.2,0.6-0.6,0.4-1c-0.2-0.4-0.6-0.6-1-0.4c-0.4,0.2-0.6,0.6-0.4,1C79.8,67,80.2,67,80.6,66.7z"
	/>
<path class="st0" d="M75.4,69.5c1.3-0.8,1.5-1.3,1.9-2.3c0.4-1.5-0.2-2.5-0.2-4c-1,0.6-1.5,1.3-1.9,2.3c-0.6,1.3-0.6,2.3,0,3.8
	l0.2,0.4V69.5z"/>
<path class="st0" d="M75.8,60.9c-0.2-0.4-0.2-1-0.2-1c0-0.4,0-0.6-0.2-1.3c-0.4-0.8-1-1.3-2.1-2.3c-0.2,0.2-0.2,0.6-0.2,0.8
	c-0.2,1-0.2,2.1,0.6,3.1c0.6,0.8,1.5,1.5,2.1,1.5c0.2,0,0.4,0,0.4-0.2C76.2,61.5,76,61.1,75.8,60.9z"/>
<path class="st0" d="M82.5,58.4c-0.8,0.4-1.7,0.2-2.7,1c-0.8,0.8-1.5,1.7-1.5,2.7v0.2l0.4,0.2c0.2-0.2,0.4-0.2,0.8-0.4
	c0.8-0.4,1.3-0.4,1.9-1C82.3,60.3,82.3,59.7,82.5,58.4z"/>
<path class="st0" d="M74.3,55.5c0.2-0.2,0.4-0.8,0-1c-0.4-0.2-0.8-0.4-1,0c-0.2,0.2-0.4,0.8,0,1C73.5,55.7,74.1,55.7,74.3,55.5z"/>
<path class="st0" d="M81.7,56.1c0.2-0.2,0.4-0.8,0-1c-0.4-0.2-0.8-0.4-1,0c-0.2,0.2-0.4,0.8,0,1C81,56.3,81.4,56.3,81.7,56.1z"/>
<path class="st0" d="M77.7,60.1c0.8-1,1-1.7,1-2.7c0-1.5-0.8-2.3-1.3-3.8c-0.8,0.8-1,1.7-1.3,2.9c-0.2,1.5,0,2.5,0.8,3.5H77.7z"/>
<path class="st0" d="M75.6,51.5c-0.2-0.4-0.4-1-0.4-1c-0.2-0.4-0.2-0.6-0.4-1c-0.6-0.8-1.5-1-2.5-1.7c0,0.2-0.2,0.6-0.2,0.8
	c0,1,0.4,2.1,1.3,2.9c0.6,0.6,1.7,1.3,2.3,1c0.2,0,0.2-0.2,0.4-0.2C76,51.9,75.6,51.5,75.6,51.5z"/>
<path class="st0" d="M81.4,47.6c-0.6,0.6-1.7,0.6-2.3,1.7c-0.6,1-1,1.9-0.8,3.1v0.2h0.4c0.2-0.2,0.4-0.4,0.6-0.6
	c0.6-0.6,1.3-0.6,1.7-1.5C81.7,49.4,81.4,48.8,81.4,47.6z"/>
<path class="st0" d="M73.1,46.5c0.2-0.4,0.2-0.8-0.2-1c-0.4-0.2-0.8-0.2-1,0.2c-0.2,0.4-0.2,0.8,0.2,1
	C72.3,46.9,72.9,46.7,73.1,46.5z"/>
<path class="st0" d="M80.2,45.5c0.2-0.4,0.2-0.8-0.2-1c-0.4-0.2-0.8-0.2-1,0.2c-0.2,0.4-0.2,0.8,0.2,1C79.6,45.9,80,45.9,80.2,45.5z
	"/>
<path class="st0" d="M77.1,50.1c0.6-1.3,0.6-1.9,0.4-2.9c-0.2-1.5-1.5-2.1-2.1-3.3c-0.6,1-0.6,1.9-0.6,2.9c0.2,1.5,0.6,2.3,1.7,3.3
	l0.4,0.2L77.1,50.1z"/>
<path class="st0" d="M72.9,42.5c-0.4-0.2-0.8-0.8-0.8-0.8c-0.2-0.4-0.4-0.6-0.8-0.8c-0.8-0.4-1.7-0.4-2.9-0.8c0,0.2,0,0.6,0.2,0.8
	c0.4,1,1,1.9,2.3,2.3c0.8,0.4,2.1,0.4,2.5,0c0.2-0.2,0.2-0.2,0.2-0.4C73.5,42.8,73.1,42.5,72.9,42.5z"/>
<path class="st0" d="M77.1,36.7c-0.4,0.8-1.3,1.3-1.7,2.5c-0.4,1.3-0.2,2.1,0.2,3.1v0.2l0.4-0.2c0.2-0.4,0.2-0.4,0.4-0.8
	c0.4-0.8,0.8-1,1-1.9C77.9,38.6,77.7,38,77.1,36.7z"/>
<path class="st0" d="M68.9,38.8c0-0.4-0.2-0.8-0.6-0.8c-0.4,0-0.8,0.2-0.8,0.6c0,0.4,0.2,0.8,0.6,0.8C68.3,39.4,68.7,39.2,68.9,38.8
	z"/>
<path class="st0" d="M75.2,35.2c0-0.4-0.2-0.8-0.6-0.8c-0.4,0-0.8,0.2-0.8,0.6c0,0.4,0.2,0.8,0.6,0.8C74.8,35.9,75.2,35.7,75.2,35.2
	z"/>
<path class="st0" d="M73.9,40.7c0.2-1.5,0-1.9-0.6-2.9c-0.8-1.3-2.1-1.5-3.1-2.5c-0.2,1.3,0,1.9,0.6,2.9c0.6,1.3,1.5,1.9,2.7,2.5
	H73.9z"/>
<path class="st0" d="M67.7,34.8c-0.4-0.2-1-0.6-1-0.6c-0.4-0.2-0.6-0.4-1-0.6c-0.8-0.4-1.7-0.2-3.1-0.2c0,0.2,0.2,0.6,0.4,0.8
	c0.6,1,1.5,1.5,2.7,1.7c1,0.2,2.1,0,2.5-0.4c0.2-0.2,0.2-0.2,0.2-0.4C68.1,34.8,67.9,34.8,67.7,34.8z"/>
<path class="st0" d="M70.4,28.4c-0.2,0.8-1,1.5-1,2.7c0,1.3,0.2,2.1,0.8,3.1v0.2l0.4-0.2c0-0.4,0-0.6,0.2-0.8
	c0.2-0.8,0.6-1.3,0.6-2.1C71.6,29.8,71.2,29.4,70.4,28.4z"/>
<path class="st0" d="M62.9,31.9c0-0.4-0.4-0.8-0.8-0.8c-0.4,0-0.8,0.4-0.8,0.8c0,0.4,0.4,0.8,0.8,0.8C62.5,32.7,62.9,32.3,62.9,31.9
	z"/>
<path class="st0" d="M68.3,27.3c0-0.4-0.4-0.8-0.8-0.8c-0.4,0-0.8,0.4-0.8,0.8c0,0.4,0.4,0.8,0.8,0.8C67.9,27.9,68.3,27.7,68.3,27.3
	z"/>
<path class="st0" d="M68.1,32.7c-0.2-1.5-0.4-1.9-1.3-2.7c-1-1-2.3-0.8-3.5-1.7c0.2,1.3,0.4,1.9,1.3,2.9c0.8,1,1.9,1.7,3.1,1.9h0.4
	V32.7z"/>
<path class="st0" d="M56,27.7c-0.4-0.2-8.1-2.5-13.4-2.5c-5.2,0-12.7,2.3-13.4,2.5v0.2l0.2,0.4c0.2,0,0.4-0.2,0.6-0.2
	c1,0,1.7,0.8,1.7,1.7s-0.6,1.5-1.3,1.7l0.2,0.6c0,0,7.1-2.5,11.9-2.5c4.6,0,11.7,2.5,11.7,2.5l0.2-0.6c-0.6-0.2-1.3-0.8-1.3-1.7
	s0.6-1.7,1.7-1.7c0.2,0,0.4,0,0.6,0.2L56,27.7z M36.4,29.8c-0.8,0-1.7-0.8-1.7-1.7c0-0.2,0-0.2,0-0.4c0.2-0.6,1-1.3,1.7-1.3
	c0.8,0,1.5,0.6,1.7,1.3c0,0.2,0,0.2,0,0.4C38,29.2,37.4,29.8,36.4,29.8z M42.6,29.2c-0.8,0-1.5-0.6-1.7-1.3c0-0.2,0-0.2,0-0.4
	c0-0.8,0.8-1.7,1.7-1.7c0.8,0,1.7,0.8,1.7,1.7c0,0.2,0,0.2,0,0.4C44.1,28.6,43.5,29.2,42.6,29.2z M50.6,28.2c0,0.8-0.8,1.7-1.7,1.7
	s-1.7-0.8-1.7-1.7c0-0.2,0-0.2,0-0.4c0.2-0.6,0.8-1.3,1.7-1.3s1.5,0.6,1.7,1.3C50.6,27.9,50.6,28.2,50.6,28.2z"/>
<path class="st0" d="M41,15h3.3v9.4H41V15z"/>
<path class="st0" d="M53.7,17.7c0.6-0.2,1.3-0.4,1.9-0.4c3.3,0,6.1,2.7,6.1,6.1c0,1.7-0.6,3.1-1.7,4.2h-0.2c-1.3,0-2.5-0.4-3.3-1
	c1.5-0.4,2.7-1.7,2.7-3.3c0-1.9-1.5-3.3-3.3-3.3c-0.8,0-1.5,0.2-1.9,0.6L53.7,17.7z"/>
<path class="st0" d="M44.9,15.4c0.6-0.2,1.3-0.4,1.9-0.4c3.3,0,6.1,2.7,6.1,6.1c0,1.7-0.6,3.1-1.7,4.2H51c-1.3,0-2.5-0.4-3.3-1
	c1.5-0.4,2.7-1.7,2.7-3.3c0-1.9-1.5-3.3-3.3-3.3c-0.8,0-1.5,0.2-1.9,0.6L44.9,15.4z"/>
<path class="st0" d="M31.6,17.7c-0.6-0.2-1.3-0.4-1.9-0.4c-3.3,0-6.1,2.7-6.1,6.1c0,1.7,0.6,3.1,1.7,4.2h0.2c1.3,0,2.5-0.4,3.3-1
	c-1.5-0.4-2.7-1.7-2.7-3.3c0-1.9,1.5-3.3,3.3-3.3c0.8,0,1.5,0.2,1.9,0.6L31.6,17.7z"/>
<path class="st0" d="M40.3,15.4c-0.6-0.2-1.3-0.4-1.9-0.4c-3.3,0-6.1,2.7-6.1,6.1c0,1.7,0.6,3.1,1.7,4.2h0.2c1.3,0,2.5-0.4,3.3-1
	c-1.5-0.4-2.7-1.7-2.7-3.3c0-1.9,1.5-3.3,3.3-3.3c0.8,0,1.5,0.2,1.9,0.6L40.3,15.4z"/>
<path class="st0" d="M41.8,7.7h1.7v2.5h2.7v1.7h-2.7v2.5h-1.7v-2.5h-2.5v-1.7h2.5V7.7z"/>
<path class="st0" d="M27.2,67.2v0.6c-0.2,0.2-0.4,0.4-0.4,0.8c0,0.4,0.4,0.8,0.8,0.8c0.4,0,0.8-0.2,0.8-0.6h18.8v-3.3v-3.1v-0.4h-19
	c-0.2-0.2-0.4-0.4-0.8-0.4c-0.4,0-0.8,0.4-0.8,0.8c0,0.4,0.2,0.6,0.4,0.8v0.4"/>
<path class="st0" d="M57,63.4V63c0.2-0.2,0.4-0.4,0.4-0.8c0-0.4-0.4-0.8-0.8-0.8c-0.4,0-0.6,0.2-0.8,0.4h-2.3v0.2v3.1v3.3h2.1
	c0,0.4,0.4,0.6,0.8,0.6c0.4,0,0.8-0.4,0.8-0.8c0-0.4-0.2-0.6-0.4-0.8v-0.6"/>
<path class="st1" d="M32.2,65.1H21.8v0.4h10.4V65.1z"/>
<path class="st1" d="M20.5,65.3l1.9,1.3v-2.3L20.5,65.3z"/>
<path class="st1" d="M63.9,64.5L62,65.1h-6.3v0.6H62l1.9,0.6v-0.4l-1.3-0.6l1.3-0.4V64.5z"/>
<path class="st1" d="M31.6,65l-9,5.2l0.2,0.4l9-5.2L31.6,65z"/>
<path class="st1" d="M21.8,70.9h2.1l-1-1.9L21.8,70.9z"/>
<path class="st1" d="M61.8,59.4l-1.3,1.5L55.2,64l0.2,0.4l5.4-3.1l2.1-0.2l-0.4-0.4l-1,0.2l0.6-1L61.8,59.4z"/>
<path class="st1" d="M22.8,60.2l-0.2,0.4l9,5.2l0.2-0.4L22.8,60.2z"/>
<path class="st1" d="M21.8,59.9l1,1.9l1-1.9H21.8z"/>
<path class="st1" d="M62.9,69.7l-2.1-0.2l-5.4-3.1l-0.2,0.4l5.4,3.1l1.3,1.5l0.2-0.4l-0.6-1l1,0.2L62.9,69.7z"/>
<path class="st1" d="M21.6,62.7l-0.1,0.4l10.1,2.7l0.1-0.4L21.6,62.7z"/>
<path class="st1" d="M20.5,62.4l1.7,1.7l0.4-2.1L20.5,62.4z"/>
<path class="st1" d="M63.7,67.2l-1.9,0.2l-6.1-1.5l-0.2,0.4l6.1,1.7l1.7,1.3v-0.6l-1-0.6l1.3-0.2L63.7,67.2z"/>
<path class="st1" d="M31.7,65l-10.1,2.7l0.1,0.4l10.1-2.7L31.7,65z"/>
<path class="st1" d="M20.5,68.2l2.1,0.6l-0.4-2.1L20.5,68.2z"/>
<path class="st1" d="M63.3,61.5l-1.7,1.3l-6.1,1.7l0.2,0.4l5.8-1.7l2.1,0.2L63.5,63l-1.3-0.2l1-0.6V61.5z"/>
<path class="st1" d="M387.9,64.2H92.3v15h295.6V64.2z"/>
<path class="st1" d="M314.5,93.2l-3.3-5v7.5h-1.9V85.3h1.9l3.1,5l3.1-5h1.9v10.4h-1.9v-7.5L314.5,93.2z"/>
<path class="st1" d="M335.3,95.7h-1.9l-1-2.5h-5l-1,2.5h-2.1l4.6-10.6h1.7L335.3,95.7z M329.9,87.4l-1.9,4.2h3.5L329.9,87.4z"/>
<path class="st1" d="M343.9,95.7h-4V85.3h4c3.3,0,5.6,2.3,5.6,5.2C349.5,93.5,347.2,95.7,343.9,95.7z M343.9,87h-2.1v7.1h2.1
	c2.3,0,3.5-1.5,3.5-3.5C347.6,88.4,346.2,87,343.9,87z"/>
<path class="st1" d="M361.4,95.7l-2.5-3.8h-2.3v3.8h-1.9V85.3h4.6c2.5,0,4,1.3,4,3.3c0,1.7-1,2.7-2.5,3.1l2.9,4H361.4z M359.3,87
	h-2.7v3.5h2.7c1.3,0,2.1-0.6,2.1-1.7C361.4,87.6,360.6,87,359.3,87z"/>
<path class="st1" d="M370.6,85.3v10.4h-1.9V85.3H370.6z"/>
<path class="st1" d="M380.2,95.7h-4V85.3h4c3.3,0,5.6,2.3,5.6,5.2C385.8,93.5,383.5,95.7,380.2,95.7z M380.2,87h-2.1v7.1h2.1
	c2.3,0,3.5-1.5,3.5-3.5C384,88.4,382.5,87,380.2,87z"/>
<path class="st1" d="M92.5,31.3h9.2V59h-9.2V31.3z"/>
<path class="st1" d="M104.6,31.3h8.6l9.8,12.1V31.3h9.4V59H124l-10.2-12.7V59h-9.2V31.3z"/>
<path class="st1" d="M135.1,31.3h10.6c11.1,0,16.5,5.4,16.5,13.6s-5.6,14-16.7,14h-10.2V31.3H135.1z M145.9,50.9
	c4.2,0,6.9-1.7,6.9-5.6s-2.7-5.6-6.9-5.6h-1.5v11.5h1.5V50.9z"/>
<path class="st1" d="M164.1,46.7V31.5h9.4v15.2c0,3.3,1.9,4.8,4.2,4.8c2.5,0,4.2-1.3,4.2-4.8V31.5h9.4v15c0,9.4-5.4,13.1-13.8,13.1
	C169.3,59.7,164.1,55.7,164.1,46.7z"/>
<path class="st1" d="M191.6,54.9l5-5.8c2.9,2.3,6.5,3.3,9.6,3.3c1.7,0,2.3-0.4,2.3-1.3c0-0.8-0.8-1.3-3.8-1.9
	c-6.3-1.3-11.7-3.1-11.7-9c0-5.2,4.2-9.4,11.7-9.4c5.4,0,9.2,1.3,12.5,3.8l-4.6,6.3c-2.5-1.9-5.6-2.7-8.3-2.7c-1.5,0-2.1,0.4-2.1,1
	c0,0.8,0.8,1.3,3.8,1.9c7.1,1.3,11.9,3.3,11.9,9c0,5.8-4.8,9.4-12.1,9.4C200.2,59.4,195.1,58,191.6,54.9z"/>
<path class="st1" d="M225.8,39.2h-8.1v-7.7h25.5v7.7H235V59h-9.2V39.2L225.8,39.2z"/>
<path class="st1" d="M245,31.3h13.6c4.8,0,7.9,1.3,10,3.1c1.7,1.7,2.5,3.8,2.5,6.5c0,4-2.1,6.9-5.4,8.6l6.5,9.4h-10.6l-5.2-7.9h-1.9
	v7.9H245V31.3z M258.1,44.6c2.3,0,3.5-1,3.5-2.7c0-1.9-1.5-2.7-3.5-2.7h-4v5.4H258.1z"/>
<path class="st1" d="M272.8,31.3h9.2V59h-9.2V31.3z"/>
<path class="st1" d="M294.7,31.3h9.2L315.5,59h-10l-1.5-3.8h-9.6L293,59h-9.8L294.7,31.3z M301.5,48.8l-2.5-6.7l-2.5,6.7H301.5z"/>
<path class="st1" d="M316.1,31.3h9.2v19.8h12.9V59h-22.3V31.3H316.1z"/>
<path class="st1" d="M339.9,31.3h23.6V39h-14.4v2.7h13.6v6.7h-13.6v3.1h14.6V59h-23.8V31.3z"/>
<path class="st1" d="M363.7,54.9l5-5.8c2.9,2.3,6.5,3.3,9.6,3.3c1.7,0,2.3-0.4,2.3-1.3c0-0.8-0.8-1.3-3.8-1.9
	c-6.3-1.3-11.7-3.1-11.7-9c0-5.2,4.2-9.4,11.7-9.4c5.4,0,9.2,1.3,12.5,3.8l-4.6,6.3c-2.5-1.9-5.6-2.7-8.3-2.7c-1.5,0-2.1,0.4-2.1,1
	c0,0.8,0.8,1.3,3.8,1.9c7.1,1.3,11.9,3.3,11.9,9c0,5.8-4.8,9.4-12.1,9.4C372.3,59.4,367.1,58,363.7,54.9z"/>
<path class="st1" d="M95.6,8.3V25h-2.9V8.3H95.6L95.6,8.3z"/>
<path class="st1" d="M127.3,8.3h2.9V25h-2.5l-9.2-11.9V25h-2.9V8.3h2.7l9,11.7V8.3L127.3,8.3z"/>
<path class="st1" d="M158,25.4c-5.2,0-8.8-3.8-8.8-8.6c0-4.8,3.5-8.8,8.6-8.8c2.9,0,4.8,0.8,6.5,2.3l-1.9,2.3
	c-1.3-1-2.5-1.9-4.6-1.9c-3.1,0-5.4,2.7-5.4,5.8c0,3.5,2.3,6.1,5.6,6.1c1.7,0,2.9-0.4,4-1.3v-3.1h-4.4v-2.5h7.1v7.1
	C163.4,24.2,161.1,25.4,158,25.4z"/>
<path class="st1" d="M196.8,11h-9.4v4.4h8.3v2.7h-8.3v4.6h9.6v2.7h-12.5V8.7H197V11H196.8z"/>
<path class="st1" d="M227.7,8.3h2.9V25h-2.5l-9.2-11.9V25H216V8.3h2.7l9,11.7V8.3L227.7,8.3z"/>
<path class="st1" d="M253.6,8.3V25h-2.9V8.3H253.6L253.6,8.3z"/>
<path class="st1" d="M286.1,11h-9.4v4.4h8.3v2.7h-8.3v4.6h9.6v2.7h-12.5V8.7h12.5V11H286.1z"/>
<path class="st1" d="M315.9,25l-4.2-5.8H308V25h-2.9V8.3h7.5c3.8,0,6.3,2.1,6.3,5.2c0,2.7-1.7,4.4-4,5l4.6,6.3h-3.5V25z M312.6,11
	h-4.4v5.6h4.4c2.1,0,3.5-1,3.5-2.9C315.9,12.1,314.7,11,312.6,11z"/>
<path class="st1" d="M346.2,25.4c-5.2,0-8.8-4-8.8-8.6c0-4.8,3.5-8.8,8.8-8.8c5.2,0,8.8,4,8.8,8.6C355,21.3,351.2,25.4,346.2,25.4z
	 M346.2,10.8c-3.3,0-5.6,2.7-5.6,5.8s2.3,6.1,5.6,6.1c3.3,0,5.6-2.7,5.6-5.8C351.8,13.5,349.5,10.8,346.2,10.8z"/>
<path class="st1" d="M380.4,15.4c3.5,0.8,5.4,2.1,5.4,5c0,3.1-2.5,5-6.1,5c-2.5,0-5-0.8-7.1-2.7l1.7-2.1c1.7,1.5,3.1,2.1,5.2,2.1
	c1.9,0,2.9-0.8,2.9-2.1c0-1.3-0.6-1.9-3.8-2.5c-3.5-0.8-5.6-1.9-5.6-5c0-2.9,2.3-4.8,5.6-4.8c2.5,0,4.4,0.8,6,2.1l-1.7,2.3
	c-1.5-1-2.9-1.7-4.6-1.7s-2.7,0.8-2.7,2.1C376.4,14,377.3,14.6,380.4,15.4z"/>
</svg>
