<?xml version="1.0" encoding="UTF-8"?>
<svg width="394" height="104" viewBox="0 0 394 104" fill="none" xmlns="http://www.w3.org/2000/svg">
<path fill-rule="evenodd" clip-rule="evenodd" d="M32.2075 88.6526C31.7902 88.4439 31.1643 88.0267 31.1643 88.0267C30.7471 87.8181 30.5384 87.8181 30.1212 87.4008C29.4953 86.7749 29.2867 85.7318 28.8694 84.6887C29.0781 84.6887 29.4953 84.6887 29.7039 84.6887C30.7471 84.8973 31.5816 85.3146 32.4161 86.3577C33.042 87.1922 33.2506 88.2353 33.042 88.8612C33.042 89.0698 32.8333 89.0698 32.6247 89.2784C32.6247 89.0698 32.4161 88.8612 32.2075 88.6526Z" fill="#A32588"/>
<path fill-rule="evenodd" clip-rule="evenodd" d="M26.7831 93.451C27.6176 92.8251 27.8263 91.9906 29.078 91.5733C30.3298 91.1561 31.1643 91.1561 32.2074 91.5733H32.416L32.2074 91.9906C31.9988 92.1992 31.7902 92.1992 31.3729 92.4078C30.747 92.8251 30.3298 93.451 29.7039 93.6596C28.6608 94.0768 28.0349 93.8682 26.7831 93.451Z" fill="#A32588"/>
<path fill-rule="evenodd" clip-rule="evenodd" d="M27.4092 85.3146C26.9919 85.5232 26.5746 85.3146 26.366 84.8973C26.1574 84.4801 26.366 84.0628 26.7833 83.8542C27.2005 83.6456 27.6178 83.8542 27.8264 84.2715C28.035 84.6887 27.8264 85.106 27.4092 85.3146Z" fill="#A32588"/>
<path fill-rule="evenodd" clip-rule="evenodd" d="M24.9056 91.7819C24.4884 91.9906 24.0711 91.7819 23.8625 91.3647C23.6539 90.9474 23.8625 90.5302 24.2797 90.3216C24.697 90.1129 25.1142 90.3216 25.3229 90.7388C25.5315 91.1561 25.3229 91.5733 24.9056 91.7819Z" fill="#A32588"/>
<path fill-rule="evenodd" clip-rule="evenodd" d="M30.5385 89.9043C29.0781 90.3216 28.6608 90.3216 27.6177 89.9043C26.1573 89.2784 25.9487 88.2353 24.697 87.1922C25.7401 86.7749 26.5746 86.7749 27.8263 87.1922C29.2867 87.6094 29.9126 88.2353 30.7471 89.4871L30.9557 89.9043H30.5385Z" fill="#A32588"/>
<path fill-rule="evenodd" clip-rule="evenodd" d="M23.6539 84.2715C23.4453 83.8542 23.0281 83.437 23.0281 83.437C22.6108 83.2283 22.4022 83.0197 22.1936 82.3938C21.7763 81.5593 21.9849 80.7248 21.7763 79.2645C21.9849 79.2645 22.4022 79.4731 22.6108 79.4731C23.6539 79.8903 24.2798 80.7248 24.4884 81.9766C24.6971 83.0197 24.6971 84.0628 24.2798 84.4801C24.0712 84.6887 24.0712 84.6887 23.8626 84.6887C23.8626 84.8973 23.8626 84.4801 23.6539 84.2715Z" fill="#A32588"/>
<path fill-rule="evenodd" clip-rule="evenodd" d="M17.3951 87.1922C18.2296 86.775 18.6468 86.1491 20.1072 85.9405C21.359 85.7318 22.1935 85.9405 23.2366 86.5663H23.4452L23.2366 86.9836C22.8193 86.9836 22.6107 87.1922 22.4021 87.1922C21.5676 87.4008 21.1503 88.0267 20.3158 88.0267C19.0641 88.2353 18.4382 88.0267 17.3951 87.1922Z" fill="#A32588"/>
<path fill-rule="evenodd" clip-rule="evenodd" d="M20.1072 79.6817C19.69 79.6817 19.2727 79.4731 19.2727 79.0558C19.2727 78.6386 19.4813 78.2213 19.8986 78.2213C20.3158 78.2213 20.7331 78.4299 20.7331 78.8472C20.7331 79.2644 20.5245 79.4731 20.1072 79.6817Z" fill="#A32588"/>
<path fill-rule="evenodd" clip-rule="evenodd" d="M15.9347 85.5232C15.5175 85.5232 15.1002 85.3146 15.1002 84.8973C15.1002 84.4801 15.3088 84.0628 15.7261 84.0628C16.1433 84.0628 16.5606 84.2715 16.5606 84.6887C16.5606 85.106 16.352 85.3146 15.9347 85.5232Z" fill="#A32588"/>
<path fill-rule="evenodd" clip-rule="evenodd" d="M21.5676 85.106C20.1072 85.106 19.69 84.8973 18.8555 84.0628C17.6037 83.0197 17.8124 81.9766 16.7692 80.5162C18.021 80.5162 18.6469 80.7248 19.69 81.3507C20.9417 82.1852 21.359 83.0197 21.7762 84.4801V84.8973L21.5676 85.106Z" fill="#A32588"/>
<path fill-rule="evenodd" clip-rule="evenodd" d="M16.978 77.8041C16.978 77.3868 16.5607 76.7609 16.5607 76.7609C16.3521 76.3437 16.1435 76.1351 16.1435 75.7178C15.9348 74.6747 16.3521 74.0488 16.5607 72.5884C16.7693 72.7971 16.978 72.7971 17.1866 73.0057C18.0211 73.6316 18.4383 74.6747 18.4383 75.9264C18.4383 76.9696 18.2297 78.0127 17.6038 78.2213C17.3952 78.2213 17.3952 78.43 17.1866 78.43C16.978 78.43 16.978 78.2213 16.978 77.8041Z" fill="#A32588"/>
<path fill-rule="evenodd" clip-rule="evenodd" d="M9.88464 79.2644C10.7191 79.0558 11.345 78.4299 12.8054 78.6386C14.0572 78.8472 14.8917 79.0558 15.7262 80.0989L15.5175 80.5162C15.1003 80.5162 14.8917 80.5162 14.683 80.5162C13.8485 80.5162 13.4313 80.9334 12.5968 80.9334C11.345 80.7248 10.9278 80.0989 9.88464 79.2644Z" fill="#A32588"/>
<path fill-rule="evenodd" clip-rule="evenodd" d="M14.8917 72.3798C14.4744 72.3798 14.2658 71.9625 14.2658 71.5453C14.2658 71.128 14.6831 70.9194 15.1003 70.9194C15.5176 70.9194 15.7262 71.3367 15.7262 71.7539C15.7262 72.1712 15.3089 72.3798 14.8917 72.3798Z" fill="#A32588"/>
<path fill-rule="evenodd" clip-rule="evenodd" d="M9.25881 76.9696C8.84156 76.9696 8.63293 76.5523 8.63293 76.1351C8.63293 75.7178 9.05018 75.5092 9.46744 75.5092C9.88469 75.5092 10.0933 75.9264 10.0933 76.3437C10.0933 76.7609 9.67606 76.9696 9.25881 76.9696Z" fill="#A32588"/>
<path fill-rule="evenodd" clip-rule="evenodd" d="M14.6831 78.0127C13.2227 77.5954 12.8055 77.3868 12.1796 76.3437C11.3451 75.0919 11.5537 74.0488 11.1365 72.5884C12.3882 72.7971 13.0141 73.2143 13.8486 74.2574C14.8917 75.3006 15.1004 76.3437 15.1004 77.8041V78.2213L14.6831 78.0127Z" fill="#A32588"/>
<path fill-rule="evenodd" clip-rule="evenodd" d="M11.971 70.0849C11.971 69.6677 11.971 69.0418 11.971 69.0418C11.7623 68.6245 11.7623 68.4159 11.971 67.79C12.1796 66.7469 12.8055 66.121 13.2227 65.0779C13.4313 65.2865 13.64 65.4952 13.64 65.7038C14.2658 66.5383 14.2658 67.5814 13.8486 68.8332C13.4313 69.6677 13.0141 70.7108 12.1796 70.9194C11.971 70.9194 11.7623 70.9194 11.7623 70.9194C11.971 70.7108 11.971 70.5022 11.971 70.0849Z" fill="#A32588"/>
<path fill-rule="evenodd" clip-rule="evenodd" d="M5.08624 69.2504C5.92074 69.459 6.75525 69.0418 8.007 69.6677C9.05012 70.2935 9.676 70.7108 10.3019 71.9625V72.1712L9.88462 72.3798C9.46737 72.1712 9.46737 72.1712 9.05012 72.1712C8.21562 71.9625 7.58975 72.1712 6.96387 71.7539C5.92074 71.128 5.71212 70.5022 5.08624 69.2504Z" fill="#A32588"/>
<path fill-rule="evenodd" clip-rule="evenodd" d="M11.7622 64.2434C11.345 64.0348 11.345 63.4089 11.5536 63.2003C11.7622 62.783 12.1795 62.5744 12.5967 62.783C13.014 62.9916 13.2226 63.4089 13.014 63.8261C12.5967 64.2434 12.1795 64.452 11.7622 64.2434Z" fill="#A32588"/>
<path fill-rule="evenodd" clip-rule="evenodd" d="M4.87764 66.7469C4.46038 66.5383 4.25176 66.121 4.46038 65.7038C4.66901 65.2865 5.08626 65.0779 5.50351 65.2865C5.92076 65.4951 6.12939 65.9124 5.92076 66.3296C5.71214 66.9555 5.29489 66.9555 4.87764 66.7469Z" fill="#A32588"/>
<path fill-rule="evenodd" clip-rule="evenodd" d="M10.0934 69.459C8.84163 68.6245 8.63301 68.2073 8.21576 67.1642C7.79851 65.7038 8.42438 64.6606 8.42438 63.2003C9.46751 63.8261 9.88476 64.452 10.302 65.4952C10.9279 66.7469 10.9279 67.79 10.302 69.2504L10.0934 69.6677V69.459Z" fill="#A32588"/>
<path fill-rule="evenodd" clip-rule="evenodd" d="M9.67598 61.114C9.67598 60.6968 9.8846 59.8623 9.8846 59.8623C9.8846 59.445 9.8846 59.2364 10.0932 58.6105C10.5105 57.776 11.1364 57.3588 12.1795 56.3156C12.3881 56.5243 12.3881 56.9415 12.3881 57.1501C12.5967 58.1933 12.5967 59.2364 11.7622 60.2795C11.1364 61.114 10.3019 61.7399 9.67598 61.7399C9.46735 61.7399 9.25873 61.7399 9.25873 61.5313C9.25873 61.5313 9.46735 61.3227 9.67598 61.114Z" fill="#A32588"/>
<path fill-rule="evenodd" clip-rule="evenodd" d="M3 58.4019C3.8345 58.8192 4.669 58.6105 5.71213 59.445C6.54663 60.4882 7.17251 61.114 7.17251 62.3658V62.5744L6.75526 62.783C6.54663 62.5744 6.33801 62.5744 5.92075 62.3658C5.08625 61.9485 4.669 61.9485 4.04313 61.3227C3.20863 60.4882 3.20863 59.8623 3 58.4019Z" fill="#A32588"/>
<path fill-rule="evenodd" clip-rule="evenodd" d="M11.1364 55.4812C10.9278 55.2725 10.7192 54.6467 11.1364 54.438C11.345 54.2294 11.9709 54.0208 12.1795 54.438C12.3882 54.6467 12.5968 55.2725 12.1795 55.4812C11.7623 55.6898 11.345 55.6898 11.1364 55.4812Z" fill="#A32588"/>
<path fill-rule="evenodd" clip-rule="evenodd" d="M3.83453 56.107C3.6259 55.8984 3.41728 55.2725 3.83453 55.0639C4.04315 54.8553 4.66903 54.6467 4.87765 55.0639C5.08628 55.2725 5.08628 55.6898 4.87765 56.107C4.4604 56.3157 4.04315 56.5243 3.83453 56.107Z" fill="#A32588"/>
<path fill-rule="evenodd" clip-rule="evenodd" d="M7.79838 60.0709C6.96387 59.0278 6.75525 58.4019 6.75525 57.3588C6.75525 55.8984 7.58975 55.0639 8.007 53.6035C8.8415 54.438 9.05013 55.2725 9.25875 56.5243C9.25875 57.776 9.05013 58.8191 8.21563 59.8623L7.79838 60.0709Z" fill="#A32588"/>
<path fill-rule="evenodd" clip-rule="evenodd" d="M9.88472 51.5173C10.0933 51.1 10.302 50.4742 10.302 50.4742C10.5106 50.0569 10.5106 49.8483 10.7192 49.431C11.3451 48.5965 12.1796 48.3879 13.2227 47.762C13.4313 47.762 13.4313 47.9707 13.4313 48.3879C13.4313 49.431 13.0141 50.4742 12.1796 51.3087C11.5537 51.9345 10.5106 52.5604 9.88472 52.3518C9.67609 52.3518 9.67609 52.1432 9.46747 52.1432C9.46747 51.9345 9.88472 51.7259 9.88472 51.5173Z" fill="#A32588"/>
<path fill-rule="evenodd" clip-rule="evenodd" d="M4.04321 47.5534C4.66908 48.1793 5.71221 48.1793 6.33809 49.2224C6.96396 50.2655 7.38121 51.1 7.17259 52.3518V52.5604H6.75534C6.54671 52.3518 6.33809 52.1432 6.12946 51.9345C5.50358 51.3087 4.87771 51.3087 4.46046 50.4742C3.83458 49.6397 4.04321 49.0138 4.04321 47.5534Z" fill="#A32588"/>
<path fill-rule="evenodd" clip-rule="evenodd" d="M12.3881 46.5103C12.1795 46.093 12.1795 45.6758 12.5968 45.4671C13.014 45.2585 13.4313 45.2585 13.6399 45.6758C13.8485 46.093 13.8485 46.5103 13.4313 46.7189C13.2226 46.9275 12.5968 46.9275 12.3881 46.5103Z" fill="#A32588"/>
<path fill-rule="evenodd" clip-rule="evenodd" d="M5.29487 45.4671C5.08625 45.2585 5.08625 44.6326 5.5035 44.424C5.92075 44.2154 6.338 44.2154 6.54663 44.6326C6.75525 45.0499 6.75525 45.4671 6.338 45.6758C5.92075 45.8844 5.5035 45.8844 5.29487 45.4671Z" fill="#A32588"/>
<path fill-rule="evenodd" clip-rule="evenodd" d="M8.42429 50.0569C7.79841 48.8051 7.79841 48.1793 8.00704 47.1361C8.21566 45.6758 9.46741 45.0499 10.0933 43.7981C10.7192 44.8413 10.7192 45.6758 10.7192 46.7189C10.5105 48.1793 10.0933 49.0138 9.05016 50.0569L8.63291 50.2655L8.42429 50.0569Z" fill="#A32588"/>
<path fill-rule="evenodd" clip-rule="evenodd" d="M12.3882 42.5464C12.8055 42.3377 13.2227 41.7119 13.2227 41.7119C13.4313 41.2946 13.64 41.086 14.0572 40.8774C14.8917 40.4601 15.7262 40.4601 16.978 40.0429C16.978 40.2515 16.978 40.6687 16.7693 40.8774C16.3521 41.9205 15.7262 42.755 14.4745 43.1722C13.64 43.5895 12.3882 43.5895 11.971 43.1722C11.7623 42.9636 11.7623 42.9636 11.7623 42.755C11.971 42.755 12.1796 42.5464 12.3882 42.5464Z" fill="#A32588"/>
<path fill-rule="evenodd" clip-rule="evenodd" d="M8.42433 36.7049C8.84158 37.5394 9.67608 37.9566 10.0933 39.2084C10.5106 40.4602 10.302 41.2947 9.8847 42.3378V42.5464L9.25883 42.3378C9.0502 41.9205 9.0502 41.9205 8.84158 41.5033C8.42433 40.6688 8.00707 40.4602 7.79845 39.6257C7.58982 38.5825 7.79845 37.9566 8.42433 36.7049Z" fill="#A32588"/>
<path fill-rule="evenodd" clip-rule="evenodd" d="M16.5607 38.7911C16.5607 38.3739 16.7693 37.9566 17.1865 37.9566C17.6038 37.9566 18.021 38.1652 18.021 38.5825C18.021 38.9997 17.8124 39.417 17.3952 39.417C16.9779 39.417 16.7693 39.2084 16.5607 38.7911Z" fill="#A32588"/>
<path fill-rule="evenodd" clip-rule="evenodd" d="M10.3019 35.2445C10.3019 34.8273 10.5105 34.41 10.9278 34.41C11.345 34.41 11.7623 34.6186 11.7623 35.0359C11.7623 35.4531 11.5536 35.8704 11.1364 35.8704C10.7191 36.079 10.3019 35.6618 10.3019 35.2445Z" fill="#A32588"/>
<path fill-rule="evenodd" clip-rule="evenodd" d="M11.5537 40.6688C11.3451 39.2084 11.5537 38.7911 12.1796 37.748C13.0141 36.4962 14.2658 36.2876 15.309 35.2445C15.5176 36.4962 15.309 37.1221 14.6831 38.1652C14.0572 39.417 13.2227 40.0429 11.9709 40.6688H11.5537Z" fill="#A32588"/>
<path fill-rule="evenodd" clip-rule="evenodd" d="M17.8125 34.8272C18.2298 34.6186 18.8556 34.2013 18.8556 34.2013C19.2729 33.9927 19.4815 33.7841 19.8988 33.5755C20.7333 33.1582 21.5678 33.3668 23.0282 33.3668C23.0282 33.5755 22.8195 33.9927 22.6109 34.2013C21.985 35.2445 21.1505 35.6617 19.8988 35.8703C18.8556 36.079 17.8125 35.8703 17.3953 35.4531C17.1866 35.2445 17.1866 35.2445 17.1866 35.0358C17.1866 35.0358 17.6039 34.8272 17.8125 34.8272Z" fill="#A32588"/>
<path fill-rule="evenodd" clip-rule="evenodd" d="M15.1003 28.3598C15.3089 29.1943 16.1434 29.8202 16.1434 31.072C16.1434 32.3237 15.9348 33.1582 15.3089 34.2013V34.41L14.8916 34.2013C14.8916 33.7841 14.8916 33.5755 14.683 33.3668C14.4744 32.5323 14.0571 32.1151 14.0571 31.2806C13.8485 29.8202 14.2658 29.403 15.1003 28.3598Z" fill="#A32588"/>
<path fill-rule="evenodd" clip-rule="evenodd" d="M22.6108 31.9065C22.6108 31.4892 23.0281 31.072 23.4453 31.072C23.8626 31.072 24.2798 31.4892 24.2798 31.9065C24.2798 32.3237 23.8626 32.741 23.4453 32.741C23.0281 32.741 22.6108 32.3237 22.6108 31.9065Z" fill="#A32588"/>
<path fill-rule="evenodd" clip-rule="evenodd" d="M17.1866 27.3167C17.1866 26.8995 17.6039 26.4822 18.0211 26.4822C18.4384 26.4822 18.8556 26.8995 18.8556 27.3167C18.8556 27.734 18.4384 28.1512 18.0211 28.1512C17.6039 28.1512 17.1866 27.734 17.1866 27.3167Z" fill="#A32588"/>
<path fill-rule="evenodd" clip-rule="evenodd" d="M17.1866 32.741C17.3953 31.2806 17.6039 30.8633 18.4384 30.0288C19.4815 28.9857 20.7333 29.1943 21.985 28.3598C21.7764 29.6116 21.5678 30.2375 20.7333 31.2806C19.8988 32.3237 18.8556 32.9496 17.6039 33.1582H17.1866V32.741Z" fill="#A32588"/>
<path fill-rule="evenodd" clip-rule="evenodd" d="M39.3009 91.1561L39.7181 91.782C37.8405 92.8251 37.006 93.2423 35.7543 94.9114C35.1284 95.7459 34.7111 96.1631 34.0853 97.2062C33.4594 97.2062 32.6249 97.2062 32.6249 96.5804C32.6249 96.1631 33.668 94.7027 34.7111 93.8682C36.1715 92.1992 37.2146 91.5733 39.3009 91.1561Z" fill="#A32588"/>
<path fill-rule="evenodd" clip-rule="evenodd" d="M40.3439 92.6165C40.3439 92.6165 40.9698 92.8251 41.1784 93.0337C41.3871 93.2423 41.5957 93.8682 41.5957 93.8682C41.5957 93.8682 40.9698 95.12 40.3439 95.5372C39.0922 96.5803 37.6318 96.5803 36.3801 96.1631C37.0059 96.1631 37.8404 95.7458 38.0491 95.12C38.0491 94.7027 37.8404 94.2855 37.4232 94.0768C38.2577 94.0768 39.0922 94.0768 39.7181 93.451C40.1353 93.0337 40.3439 92.6165 40.3439 92.6165Z" fill="#A32588"/>
<path fill-rule="evenodd" clip-rule="evenodd" d="M46.1854 91.1561L45.7682 91.782C47.6458 92.8251 48.4803 93.2423 49.7321 94.9114C50.3579 95.7459 50.7752 96.1631 51.4011 97.2062C52.0269 97.2062 52.8614 97.2062 52.8614 96.5804C52.8614 96.1631 51.8183 94.7027 50.7752 93.8682C49.3148 92.1992 48.0631 91.5733 46.1854 91.1561Z" fill="#A32588"/>
<path fill-rule="evenodd" clip-rule="evenodd" d="M44.9337 92.6165C44.9337 92.6165 44.3078 92.8251 44.0992 93.0337C43.8906 93.2423 43.6819 93.8682 43.6819 93.8682C43.6819 93.8682 44.3078 95.12 44.9337 95.5372C46.1855 96.5803 47.6458 96.5803 48.8976 96.1631C48.2717 96.1631 47.4372 95.7458 47.2286 95.12C47.2286 94.7027 47.4372 94.2855 47.8545 94.0768C47.02 94.0768 46.1854 94.0768 45.5596 93.451C45.3509 93.0337 44.9337 92.6165 44.9337 92.6165Z" fill="#A32588"/>
<path fill-rule="evenodd" clip-rule="evenodd" d="M39.0922 89.9043C39.0922 89.9043 37.0059 90.113 35.5455 90.113C34.2938 90.113 32.2075 89.6957 32.2075 89.6957L32.6248 90.3216C32.6248 90.3216 33.042 90.5302 33.6679 90.5302C34.0851 90.5302 34.5024 90.7388 34.9196 90.7388C36.1714 90.9475 38.049 90.7388 38.049 90.7388C38.4663 90.7388 38.6749 90.5302 38.6749 90.3216C39.0922 90.3216 39.0922 89.9043 39.0922 89.9043Z" fill="#A32588"/>
<path fill-rule="evenodd" clip-rule="evenodd" d="M44.9338 90.5302C44.9338 89.2785 43.8906 88.2354 42.6389 88.2354C41.3871 88.2354 40.344 89.2785 40.344 90.5302C40.344 91.782 41.3871 92.8251 42.6389 92.8251C43.8906 92.8251 44.9338 91.782 44.9338 90.5302Z" fill="#A32588"/>
<path fill-rule="evenodd" clip-rule="evenodd" d="M49.7321 90.1129C48.2717 90.1129 46.1854 89.9043 46.1854 89.9043C46.1854 89.9043 46.1854 90.3215 46.6027 90.7388C46.8113 90.9474 47.0199 90.9474 47.2286 91.1561C47.2286 91.1561 49.1062 91.3647 50.3579 91.1561C50.7752 91.1561 51.1924 90.9474 51.6097 90.9474C52.2356 90.7388 52.6528 90.7388 52.6528 90.7388L53.0701 90.1129C53.0701 89.6957 51.1924 89.9043 49.7321 90.1129Z" fill="#A32588"/>
<path fill-rule="evenodd" clip-rule="evenodd" d="M41.5957 87.4008C41.5957 87.4008 40.344 84.6887 37.4232 85.5232C36.3801 85.7318 35.7542 86.7749 35.337 87.4008C35.1284 87.8181 35.1284 88.0267 35.1284 88.0267C35.1284 88.0267 36.1715 87.4008 37.4232 87.6094C38.675 88.0267 39.3009 89.0698 39.3009 89.0698C39.3009 89.0698 40.5526 88.6526 40.9699 88.0267C41.1785 88.0267 41.3871 87.6094 41.5957 87.4008Z" fill="#A32588"/>
<path fill-rule="evenodd" clip-rule="evenodd" d="M50.1493 87.4008C49.7321 86.7749 49.1062 85.7318 48.0631 85.5232C45.1423 84.6887 43.8906 87.4008 43.8906 87.4008C43.8906 87.4008 43.8906 87.4008 43.8906 87.6094C44.0992 87.8181 44.3078 88.2353 44.5164 88.4439C45.1423 89.0698 46.1854 89.4871 46.1854 89.4871C46.1854 89.4871 46.8113 88.2353 48.0631 88.0267C49.3148 87.6094 50.3579 88.4439 50.3579 88.4439C50.3579 88.4439 50.3579 87.8181 50.1493 87.4008Z" fill="#A32588"/>
<path fill-rule="evenodd" clip-rule="evenodd" d="M40.3439 78.4299V73.2143C39.718 72.797 39.0921 72.3798 38.4663 71.7539C37.8404 71.128 37.4231 70.2935 37.4231 69.459H32.4161C32.4161 70.2935 32.6248 71.128 33.042 71.7539C34.0851 75.0919 36.7973 77.8041 40.3439 78.4299Z" fill="#A32588"/>
<path fill-rule="evenodd" clip-rule="evenodd" d="M40.9698 69.459V71.7539V81.1421V83.0197H44.3079V81.1421V71.7539V69.459H40.9698Z" fill="#A32588"/>
<path fill-rule="evenodd" clip-rule="evenodd" d="M35.9628 57.3588C35.9628 56.7329 35.3369 56.107 34.711 56.107C34.0851 56.107 33.4593 56.7329 33.4593 57.3588H32.2075V59.2364V61.3226H37.2145V59.2364V57.3588H35.9628Z" fill="#A32588"/>
<path fill-rule="evenodd" clip-rule="evenodd" d="M53.0701 65.4952V62.3658V59.2364V57.3588H51.8183C51.8183 56.7329 51.1925 56.107 50.5666 56.107C49.9407 56.107 49.3148 56.7329 49.3148 57.3588H48.0631V59.2364V62.3658V65.4952V68.8332C48.0631 70.0849 47.6458 71.128 47.02 71.9625C46.3941 72.5884 45.7682 73.0057 45.1423 73.4229V78.6385C48.4803 77.804 51.4011 75.3005 52.6528 71.9625C53.0701 70.9194 53.0701 70.0849 53.2787 68.8332L53.0701 65.4952Z" fill="#A32588"/>
<path fill-rule="evenodd" clip-rule="evenodd" d="M62.4582 46.7189C61.4151 45.4671 59.9547 44.6326 58.2857 44.6326C57.6599 44.6326 57.034 44.8413 56.4081 44.8413L53.696 42.755C53.9046 42.5464 53.9046 42.3377 53.9046 42.1291C53.9046 41.5032 53.4874 41.086 52.8615 41.086C52.4442 41.086 52.2356 41.2946 52.027 41.5033L50.7752 40.4601L46.8113 37.3307L44.3078 35.2445V34.2014V30.4461H40.9698V34.2014V35.2445L38.4663 37.3307L34.5025 40.4601L33.2507 41.5033C33.0421 41.086 32.8334 41.086 32.4162 41.086C31.7903 41.086 31.3731 41.5032 31.3731 42.1291C31.3731 42.3377 31.3731 42.5464 31.5817 42.755L28.8696 44.8413C28.2437 44.6326 27.6178 44.6326 26.9919 44.6326C25.3229 44.6326 23.8626 45.4671 22.8194 46.7189C22.1936 47.5534 21.7763 48.5965 21.7763 49.8483C21.7763 52.769 24.0712 55.0639 26.9919 55.0639C29.9127 55.0639 32.2076 52.769 32.2076 49.8483C32.2076 48.5965 31.7903 47.5534 31.1644 46.7189C30.9558 46.5103 30.9558 46.3016 30.7472 46.3016L33.2507 44.2154L36.3801 46.7189L40.9698 50.2655V59.2364V61.3227H44.3078V59.2364V50.2655L48.8976 46.7189L52.027 44.2154L54.5305 46.093C54.3219 46.3016 54.1132 46.5103 54.1132 46.5103C53.4874 47.3448 53.0701 48.3879 53.0701 49.6396C53.0701 52.5604 55.365 54.8553 58.2857 54.8553C61.2065 54.8553 63.5014 52.5604 63.5014 49.6396C63.5014 48.5965 63.0841 47.5534 62.4582 46.7189ZM28.6609 48.1793C28.6609 49.2224 27.8264 50.0569 26.7833 50.0569C25.7402 50.0569 24.9057 49.2224 24.9057 48.1793C24.9057 47.5534 25.1143 47.1361 25.5316 46.7189C25.9488 46.3016 26.3661 46.3016 26.7833 46.3016C27.2006 46.3016 27.8264 46.5103 28.0351 46.7189C28.2437 46.9275 28.6609 47.5534 28.6609 48.1793ZM40.9698 40.4601V46.7189V47.5534L39.9267 46.7189L35.1283 42.755L38.0491 40.4601L40.9698 38.1652V40.4601ZM45.351 46.7189L44.3078 47.5534V46.7189V40.4601V38.1652L47.2286 40.4601L50.1494 42.755L45.351 46.7189ZM58.703 50.0569C57.6599 50.0569 56.8254 49.2224 56.8254 48.1793C56.8254 47.5534 57.2426 47.1361 57.4512 46.7189C57.8685 46.3016 58.2857 46.093 58.703 46.093C59.1202 46.093 59.7461 46.3016 59.9547 46.5103C60.372 46.9275 60.5806 47.3448 60.5806 47.9706C60.5806 49.2224 59.7461 50.0569 58.703 50.0569Z" fill="#A32588"/>
<path fill-rule="evenodd" clip-rule="evenodd" d="M53.2786 88.6526C53.6959 88.4439 54.3218 88.0267 54.3218 88.0267C54.739 87.8181 54.9476 87.8181 55.3649 87.4008C55.9908 86.7749 56.1994 85.7318 56.6166 84.6887C56.408 84.6887 55.9908 84.6887 55.7821 84.6887C54.739 84.8973 53.9045 85.3146 53.07 86.3577C52.4441 87.1922 52.2355 88.2353 52.4441 88.8612C52.4441 89.0698 52.6528 89.0698 52.8614 89.2784C52.8614 89.0698 53.07 88.8612 53.2786 88.6526Z" fill="#A32588"/>
<path fill-rule="evenodd" clip-rule="evenodd" d="M58.703 93.451C57.8685 92.8251 57.6598 91.9906 56.4081 91.5733C55.1563 91.1561 54.3218 91.1561 53.2787 91.5733H53.0701L53.2787 91.9906C53.4873 92.1992 53.6959 92.1992 54.1132 92.4078C54.7391 92.8251 55.1563 93.451 55.7822 93.6596C56.8253 94.0768 57.4512 93.8682 58.703 93.451Z" fill="#A32588"/>
<path fill-rule="evenodd" clip-rule="evenodd" d="M58.0771 85.3146C58.4943 85.5232 58.9116 85.3146 59.1202 84.8973C59.3288 84.4801 59.1202 84.0628 58.703 83.8542C58.2857 83.6456 57.8685 83.8542 57.6598 84.2715C57.4512 84.6887 57.6598 85.106 58.0771 85.3146Z" fill="#A32588"/>
<path fill-rule="evenodd" clip-rule="evenodd" d="M60.5805 91.7819C60.9977 91.9906 61.415 91.7819 61.6236 91.3647C61.8322 90.9474 61.6236 90.5302 61.2063 90.3216C60.7891 90.1129 60.3718 90.3216 60.1632 90.7388C59.9546 91.1561 60.1632 91.5733 60.5805 91.7819Z" fill="#A32588"/>
<path fill-rule="evenodd" clip-rule="evenodd" d="M54.9476 89.9043C56.408 90.3216 56.8252 90.3216 57.8683 89.9043C59.3287 89.2784 59.5373 88.2353 60.7891 87.1922C59.746 86.7749 58.9115 86.7749 57.6597 87.1922C56.1993 87.6094 55.5735 88.2353 54.739 89.4871L54.5303 89.9043H54.9476Z" fill="#A32588"/>
<path fill-rule="evenodd" clip-rule="evenodd" d="M61.8323 84.2714C62.0409 83.8542 62.4582 83.4369 62.4582 83.4369C62.8754 83.2283 63.0841 83.0197 63.2927 82.3938C63.7099 81.5593 63.5013 80.7248 63.7099 79.2644C63.5013 79.2644 63.0841 79.473 62.8754 79.473C61.8323 79.8903 61.2064 80.7248 60.9978 81.9765C60.7892 83.0197 60.7892 84.0628 61.2064 84.4801C61.4151 84.6887 61.4151 84.6887 61.6237 84.6887C61.6237 84.8973 61.6237 84.4801 61.8323 84.2714Z" fill="#A32588"/>
<path fill-rule="evenodd" clip-rule="evenodd" d="M68.091 87.1922C67.2565 86.7749 66.8393 86.1491 65.3789 85.9404C64.1271 85.7318 63.2926 85.9404 62.2495 86.5663H62.0409L62.2495 86.9836C62.6668 86.9836 62.8754 87.1922 63.084 87.1922C63.9185 87.4008 64.3358 88.0267 65.1703 88.0267C66.422 88.2353 67.0479 87.8181 68.091 87.1922Z" fill="#A32588"/>
<path fill-rule="evenodd" clip-rule="evenodd" d="M65.3789 79.4731C65.7962 79.4731 66.2134 79.2644 66.2134 78.8472C66.2134 78.4299 66.0048 78.0127 65.5876 78.0127C65.1703 78.0127 64.7531 78.2213 64.7531 78.6386C64.7531 79.0558 64.9617 79.4731 65.3789 79.4731Z" fill="#A32588"/>
<path fill-rule="evenodd" clip-rule="evenodd" d="M69.5514 85.3146C69.9687 85.3146 70.3859 85.1059 70.3859 84.6887C70.3859 84.2714 70.1773 83.8542 69.76 83.8542C69.3428 83.8542 68.9255 84.0628 68.9255 84.4801C68.9255 84.8973 69.1342 85.3146 69.5514 85.3146Z" fill="#A32588"/>
<path fill-rule="evenodd" clip-rule="evenodd" d="M63.9185 84.8973C65.3789 84.8973 65.7962 84.6887 66.6307 83.8542C67.8824 82.811 67.6738 81.7679 68.7169 80.3075C67.4652 80.3075 66.8393 80.5162 65.7962 81.142C64.5444 81.9765 64.1272 82.811 63.7099 84.2714V84.6887L63.9185 84.8973Z" fill="#A32588"/>
<path fill-rule="evenodd" clip-rule="evenodd" d="M68.5083 77.8041C68.5083 77.3868 68.9255 76.7609 68.9255 76.7609C69.1342 76.3437 69.3428 76.1351 69.3428 75.7178C69.5514 74.6747 69.1342 74.0488 68.9255 72.5884C68.7169 72.7971 68.5083 72.7971 68.2997 73.0057C67.4652 73.6316 67.0479 74.6747 67.0479 75.9264C67.0479 76.9696 67.2565 78.0127 67.8824 78.2213C68.091 78.2213 68.091 78.43 68.2997 78.43C68.5083 78.43 68.5083 78.0127 68.5083 77.8041Z" fill="#A32588"/>
<path fill-rule="evenodd" clip-rule="evenodd" d="M75.6015 79.2644C74.767 79.0558 74.1411 78.4299 72.6808 78.6386C71.429 78.8472 70.5945 79.0558 69.76 80.0989L69.9686 80.5162C70.3859 80.5162 70.5945 80.5162 70.8031 80.5162C71.6376 80.5162 72.0549 80.9334 72.8894 80.9334C74.1411 80.5162 74.5584 80.0989 75.6015 79.2644Z" fill="#A32588"/>
<path fill-rule="evenodd" clip-rule="evenodd" d="M70.5945 72.3798C71.0118 72.3798 71.2204 71.9625 71.2204 71.5453C71.2204 71.128 70.8031 70.9194 70.3859 70.9194C69.9686 70.9194 69.76 71.3367 69.76 71.7539C69.76 72.1712 70.1773 72.3798 70.5945 72.3798Z" fill="#A32588"/>
<path fill-rule="evenodd" clip-rule="evenodd" d="M76.2274 76.9696C76.6447 76.9696 76.8533 76.5523 76.8533 76.1351C76.8533 75.7178 76.4361 75.5092 76.0188 75.5092C75.6016 75.5092 75.3929 75.9264 75.3929 76.3437C75.3929 76.7609 75.8102 76.9696 76.2274 76.9696Z" fill="#A32588"/>
<path fill-rule="evenodd" clip-rule="evenodd" d="M70.5945 78.0127C72.0549 77.5954 72.4721 77.3868 73.098 76.3437C73.9325 75.0919 73.7239 74.0488 74.1411 72.5884C72.8894 72.7971 72.2635 73.2143 71.429 74.2574C70.3859 75.3006 70.1772 76.3437 70.1772 77.8041V78.2213L70.5945 78.0127Z" fill="#A32588"/>
<path fill-rule="evenodd" clip-rule="evenodd" d="M73.3067 70.0849C73.3067 69.6677 73.3067 69.0418 73.3067 69.0418C73.5153 68.6245 73.5153 68.4159 73.3067 67.79C73.098 66.7469 72.4722 66.121 72.0549 65.0779C71.8463 65.2865 71.6377 65.4952 71.6377 65.7038C71.0118 66.5383 71.0118 67.5814 71.429 68.8332C71.8463 69.6677 72.2635 70.7108 73.098 70.9194C73.3067 70.9194 73.5153 70.9194 73.5153 70.9194C73.5153 70.7108 73.5153 70.2935 73.3067 70.0849Z" fill="#A32588"/>
<path fill-rule="evenodd" clip-rule="evenodd" d="M80.4 69.2504C79.5655 69.459 78.731 69.0418 77.4792 69.6677C76.4361 70.2935 75.8102 70.7108 75.1843 71.9625V72.1712L75.6016 72.3798C76.0188 72.1712 76.0188 72.1712 76.4361 72.1712C77.2706 71.9625 77.8965 72.1712 78.5223 71.7539C79.5655 70.9194 79.7741 70.5022 80.4 69.2504Z" fill="#A32588"/>
<path fill-rule="evenodd" clip-rule="evenodd" d="M73.7239 64.2434C74.1412 64.0348 74.3498 63.6175 74.1412 63.2003C73.9325 62.783 73.5153 62.5744 73.098 62.783C72.6808 62.9916 72.4722 63.4089 72.6808 63.8261C72.8894 64.2434 73.3067 64.2434 73.7239 64.2434Z" fill="#A32588"/>
<path fill-rule="evenodd" clip-rule="evenodd" d="M80.6086 66.7469C81.0259 66.5383 81.2345 66.121 81.0259 65.7038C80.8172 65.2865 80.4 65.0779 79.9827 65.2865C79.5655 65.4951 79.3569 65.9124 79.5655 66.3296C79.7741 66.9555 80.1914 66.9555 80.6086 66.7469Z" fill="#A32588"/>
<path fill-rule="evenodd" clip-rule="evenodd" d="M75.393 69.459C76.6448 68.6245 76.8534 68.2073 77.2706 67.1642C77.6879 65.7038 77.062 64.6606 77.062 63.2003C76.0189 63.8261 75.6016 64.452 75.1844 65.4952C74.5585 66.7469 74.5585 67.79 75.1844 69.2504L75.393 69.6677V69.459Z" fill="#A32588"/>
<path fill-rule="evenodd" clip-rule="evenodd" d="M75.8102 60.9054C75.6016 60.4882 75.6016 59.8623 75.6016 59.8623C75.6016 59.445 75.6016 59.2364 75.393 58.6105C74.9757 57.776 74.3498 57.3588 73.3067 56.3156C73.0981 56.5243 73.0981 56.9415 73.0981 57.1501C72.8895 58.1933 72.8895 59.2364 73.724 60.2795C74.3498 61.114 75.1843 61.7399 75.8102 61.7399C76.0188 61.7399 76.2275 61.7399 76.2275 61.5313C76.2275 61.5313 76.0188 61.114 75.8102 60.9054Z" fill="#A32588"/>
<path fill-rule="evenodd" clip-rule="evenodd" d="M82.4862 58.4019C81.6517 58.8192 80.8172 58.6105 79.7741 59.445C78.9396 60.2795 78.3137 61.114 78.3137 62.1572V62.3658L78.731 62.5744C78.9396 62.3658 79.1482 62.3658 79.5655 62.1572C80.4 61.7399 80.8172 61.7399 81.4431 61.114C82.2776 60.2795 82.2776 59.6537 82.4862 58.4019Z" fill="#A32588"/>
<path fill-rule="evenodd" clip-rule="evenodd" d="M74.3498 55.4812C74.5584 55.2725 74.7671 54.6467 74.3498 54.438C73.9326 54.2294 73.5153 54.0208 73.3067 54.438C73.0981 54.6467 72.8894 55.2725 73.3067 55.4812C73.5153 55.6898 74.1412 55.6898 74.3498 55.4812Z" fill="#A32588"/>
<path fill-rule="evenodd" clip-rule="evenodd" d="M81.6518 56.107C81.8604 55.8984 82.069 55.2725 81.6518 55.0639C81.2345 54.8553 80.8173 54.6467 80.6086 55.0639C80.4 55.2725 80.1914 55.8984 80.6086 56.107C81.0259 56.3157 81.4431 56.3157 81.6518 56.107Z" fill="#A32588"/>
<path fill-rule="evenodd" clip-rule="evenodd" d="M77.6878 60.0709C78.5223 59.0278 78.7309 58.4019 78.7309 57.3588C78.7309 55.8984 77.8964 55.0639 77.4792 53.6035C76.6447 54.438 76.436 55.2725 76.2274 56.5243C76.0188 57.9846 76.2274 59.0278 77.0619 60.0709H77.6878Z" fill="#A32588"/>
<path fill-rule="evenodd" clip-rule="evenodd" d="M75.6016 51.5173C75.3929 51.1 75.1843 50.4742 75.1843 50.4742C74.9757 50.0569 74.9757 49.8483 74.7671 49.431C74.1412 48.5965 73.3067 48.3879 72.2636 47.762C72.2636 47.9707 72.0549 48.3879 72.0549 48.5965C72.0549 49.6397 72.4722 50.6828 73.3067 51.5173C73.9326 52.1432 74.9757 52.769 75.6016 52.5604C75.8102 52.5604 75.8102 52.3518 76.0188 52.3518C76.0188 51.9345 75.6016 51.5173 75.6016 51.5173Z" fill="#A32588"/>
<path fill-rule="evenodd" clip-rule="evenodd" d="M81.443 47.5534C80.8171 48.1793 79.774 48.1793 79.1481 49.2224C78.5222 50.2655 78.105 51.1 78.3136 52.3518V52.5604H78.7309C78.9395 52.3518 79.1481 52.1432 79.3567 51.9345C79.9826 51.3087 80.6085 51.3087 81.0257 50.4742C81.6516 49.431 81.443 48.8052 81.443 47.5534Z" fill="#A32588"/>
<path fill-rule="evenodd" clip-rule="evenodd" d="M73.0981 46.5103C73.3067 46.093 73.3067 45.6758 72.8895 45.4671C72.4722 45.2585 72.055 45.2585 71.8463 45.6758C71.6377 46.093 71.6377 46.5103 72.0549 46.7189C72.2636 46.9275 72.8895 46.7189 73.0981 46.5103Z" fill="#A32588"/>
<path fill-rule="evenodd" clip-rule="evenodd" d="M80.1913 45.4671C80.4 45.0499 80.4 44.6326 79.9827 44.424C79.5655 44.2154 79.1482 44.2154 78.9396 44.6326C78.731 45.0499 78.731 45.4671 79.1482 45.6758C79.5655 45.8844 79.9827 45.8844 80.1913 45.4671Z" fill="#A32588"/>
<path fill-rule="evenodd" clip-rule="evenodd" d="M77.0618 50.0569C77.6877 48.8051 77.6877 48.1793 77.4791 47.1361C77.2705 45.6758 76.0187 45.0499 75.3928 43.7981C74.767 44.8413 74.767 45.6758 74.767 46.7189C74.9756 48.1793 75.3928 49.0138 76.436 50.0569L76.8532 50.2655L77.0618 50.0569Z" fill="#A32588"/>
<path fill-rule="evenodd" clip-rule="evenodd" d="M72.8894 42.5464C72.4722 42.3377 72.0549 41.7119 72.0549 41.7119C71.8463 41.2946 71.6377 41.086 71.2204 40.8774C70.3859 40.4601 69.5514 40.4601 68.2997 40.0429C68.2997 40.2515 68.2997 40.6687 68.5083 40.8774C68.9256 41.9205 69.5514 42.755 70.8032 43.1722C71.6377 43.5895 72.8894 43.5895 73.3067 43.1722C73.5153 42.9636 73.5153 42.9636 73.5153 42.755C73.5153 42.755 73.0981 42.5464 72.8894 42.5464Z" fill="#A32588"/>
<path fill-rule="evenodd" clip-rule="evenodd" d="M77.0619 36.7049C76.6447 37.5394 75.8102 37.9566 75.3929 39.2084C74.9757 40.4602 75.1843 41.2947 75.6015 42.3378V42.5464L76.0188 42.3378C76.2274 41.9205 76.2274 41.9205 76.436 41.5033C76.8533 40.6688 77.2705 40.4602 77.4792 39.6257C77.8964 38.5825 77.6878 37.9566 77.0619 36.7049Z" fill="#A32588"/>
<path fill-rule="evenodd" clip-rule="evenodd" d="M68.9255 38.7911C68.9255 38.3739 68.7169 37.9566 68.2996 37.9566C67.8824 37.9566 67.4651 38.1652 67.4651 38.5825C67.4651 38.9997 67.6738 39.417 68.091 39.417C68.2997 39.417 68.7169 39.2084 68.9255 38.7911Z" fill="#A32588"/>
<path fill-rule="evenodd" clip-rule="evenodd" d="M75.1843 35.2445C75.1843 34.8273 74.9757 34.41 74.5584 34.41C74.1412 34.41 73.7239 34.6186 73.7239 35.0359C73.7239 35.4531 73.9326 35.8704 74.3498 35.8704C74.7671 35.8704 75.1843 35.6618 75.1843 35.2445Z" fill="#A32588"/>
<path fill-rule="evenodd" clip-rule="evenodd" d="M73.9325 40.6688C74.1412 39.2084 73.9326 38.7911 73.3067 37.748C72.4722 36.4962 71.2204 36.2876 70.1773 35.2445C69.9687 36.4962 70.1773 37.1221 70.8032 38.1652C71.429 39.417 72.2635 40.0429 73.5153 40.6688H73.9325Z" fill="#A32588"/>
<path fill-rule="evenodd" clip-rule="evenodd" d="M67.6738 34.8272C67.2565 34.6186 66.6306 34.2013 66.6306 34.2013C66.2134 33.9927 66.0048 33.7841 65.5875 33.5755C64.753 33.1582 63.9185 33.3668 62.4581 33.3668C62.4581 33.5755 62.6668 33.9927 62.8754 34.2013C63.5013 35.2445 64.3358 35.6617 65.5875 35.8703C66.6306 36.079 67.6738 35.8703 68.091 35.4531C68.2996 35.2445 68.2996 35.2445 68.2996 35.0358C68.091 34.8272 67.8824 34.8272 67.6738 34.8272Z" fill="#A32588"/>
<path fill-rule="evenodd" clip-rule="evenodd" d="M70.3859 28.3598C70.1773 29.1943 69.3428 29.8202 69.3428 31.072C69.3428 32.3237 69.5514 33.1582 70.1773 34.2013V34.41L70.5945 34.2013C70.5945 33.7841 70.5945 33.5755 70.8032 33.3668C71.0118 32.5323 71.429 32.1151 71.429 31.2806C71.6377 29.8202 71.2204 29.403 70.3859 28.3598Z" fill="#A32588"/>
<path fill-rule="evenodd" clip-rule="evenodd" d="M62.8754 31.9065C62.8754 31.4892 62.4581 31.072 62.0409 31.072C61.6236 31.072 61.2064 31.4892 61.2064 31.9065C61.2064 32.3237 61.6236 32.741 62.0409 32.741C62.4581 32.741 62.8754 32.3237 62.8754 31.9065Z" fill="#A32588"/>
<path fill-rule="evenodd" clip-rule="evenodd" d="M68.2996 27.3167C68.2996 26.8995 67.8824 26.4822 67.4651 26.4822C67.0479 26.4822 66.6306 26.8995 66.6306 27.3167C66.6306 27.734 67.0479 28.1512 67.4651 28.1512C67.8824 27.9426 68.2996 27.734 68.2996 27.3167Z" fill="#A32588"/>
<path fill-rule="evenodd" clip-rule="evenodd" d="M68.091 32.741C67.8824 31.2806 67.6738 30.8633 66.8393 30.0288C65.7962 28.9857 64.5444 29.1943 63.2927 28.3598C63.5013 29.6116 63.7099 30.2375 64.5444 31.2806C65.3789 32.3237 66.422 32.9496 67.6738 33.1582H68.091V32.741Z" fill="#A32588"/>
<path fill-rule="evenodd" clip-rule="evenodd" d="M55.9908 27.734C55.5735 27.5253 47.8544 25.2305 42.6388 25.2305C37.4231 25.2305 29.9126 27.5253 29.2867 27.734V27.9426L29.4954 28.3598C29.704 28.3598 29.9126 28.1512 30.1212 28.1512C31.1644 28.1512 31.7902 28.9857 31.7902 29.8202C31.7902 30.6547 31.1644 31.2806 30.5385 31.4892L30.7471 32.1151C30.7471 32.1151 37.8404 29.6116 42.6388 29.6116C47.2285 29.6116 54.3218 32.1151 54.3218 32.1151L54.5304 31.4892C53.9045 31.2806 53.2787 30.6547 53.2787 29.8202C53.2787 28.9857 53.9045 28.1512 54.9477 28.1512C55.1563 28.1512 55.3649 28.1512 55.5735 28.3598L55.9908 27.734ZM36.38 29.8202C35.5455 29.8202 34.711 28.9857 34.711 28.1512C34.711 27.9426 34.711 27.9426 34.711 27.734C34.9196 27.1081 35.7541 26.4822 36.38 26.4822C37.2145 26.4822 37.8404 27.1081 38.049 27.734C38.049 27.9426 38.049 27.9426 38.049 28.1512C38.049 29.1943 37.4231 29.8202 36.38 29.8202ZM42.6388 29.1943C41.8043 29.1943 41.1784 28.5685 40.9698 27.9426C40.9698 27.734 40.9698 27.734 40.9698 27.5253C40.9698 26.6908 41.8043 25.8563 42.6388 25.8563C43.4733 25.8563 44.3078 26.6908 44.3078 27.5253C44.3078 27.734 44.3078 27.734 44.3078 27.9426C44.0991 28.5685 43.4733 29.1943 42.6388 29.1943ZM50.5665 28.1512C50.5665 28.9857 49.732 29.8202 48.8975 29.8202C48.063 29.8202 47.2285 28.9857 47.2285 28.1512C47.2285 27.9426 47.2285 27.9426 47.2285 27.734C47.4371 27.1081 48.063 26.4822 48.8975 26.4822C49.732 26.4822 50.3579 27.1081 50.5665 27.734C50.5665 27.9426 50.5665 28.1512 50.5665 28.1512Z" fill="#A32588"/>
<path fill-rule="evenodd" clip-rule="evenodd" d="M40.9698 15.0078H44.3079V24.396H40.9698V15.0078Z" fill="#A32588"/>
<path fill-rule="evenodd" clip-rule="evenodd" d="M53.6959 17.72C54.3217 17.5114 54.9476 17.3027 55.5735 17.3027C58.9115 17.3027 61.6236 20.0149 61.6236 23.3529C61.6236 25.0219 60.9977 26.4822 59.9546 27.5254H59.746C58.4942 27.5254 57.2425 27.1081 56.408 26.4822C57.8684 26.065 59.1201 24.8132 59.1201 23.1442C59.1201 21.2666 57.6597 19.8062 55.7821 19.8062C54.9476 19.8062 54.3217 20.0149 53.9045 20.4321L53.6959 17.72Z" fill="#A32588"/>
<path fill-rule="evenodd" clip-rule="evenodd" d="M44.9337 15.4251C45.5595 15.2164 46.1854 15.0078 46.8113 15.0078C50.1493 15.0078 52.8614 17.7199 52.8614 21.0579C52.8614 22.727 52.2355 24.1873 51.1924 25.2305H50.9838C49.732 25.2305 48.4803 24.8132 47.6458 24.1873C49.1062 23.7701 50.3579 22.5183 50.3579 20.8493C50.3579 18.9717 48.8975 17.5113 47.0199 17.5113C46.1854 17.5113 45.5595 17.7199 45.1423 18.1372L44.9337 15.4251Z" fill="#A32588"/>
<path fill-rule="evenodd" clip-rule="evenodd" d="M31.5818 17.72C30.9559 17.5114 30.33 17.3027 29.7041 17.3027C26.3661 17.3027 23.654 20.0149 23.654 23.3529C23.654 25.0219 24.2799 26.4822 25.323 27.5254H25.5316C26.7834 27.5254 28.0351 27.1081 28.8696 26.4822C27.4092 26.065 26.1575 24.8132 26.1575 23.1442C26.1575 21.2666 27.6179 19.8062 29.4955 19.8062C30.33 19.8062 30.9559 20.0149 31.3731 20.4321L31.5818 17.72Z" fill="#A32588"/>
<path fill-rule="evenodd" clip-rule="evenodd" d="M40.3439 15.4251C39.718 15.2164 39.0921 15.0078 38.4663 15.0078C35.1283 15.0078 32.4161 17.7199 32.4161 21.0579C32.4161 22.727 33.042 24.1873 34.0851 25.2305H34.2938C35.5455 25.2305 36.7973 24.8132 37.6318 24.1873C36.1714 23.7701 34.9196 22.5183 34.9196 20.8493C34.9196 18.9717 36.38 17.5113 38.2576 17.5113C39.0921 17.5113 39.718 17.7199 40.1353 18.1372L40.3439 15.4251Z" fill="#A32588"/>
<path fill-rule="evenodd" clip-rule="evenodd" d="M41.8044 7.70595H43.4734V10.2095H46.1855V11.8785H43.4734V14.382H41.8044V11.8785H39.3009V10.2095H41.8044V7.70595Z" fill="#A32588"/>
<path fill-rule="evenodd" clip-rule="evenodd" d="M27.2006 67.1642V67.7901C26.992 67.9987 26.7834 68.2073 26.7834 68.6246C26.7834 69.0418 27.2006 69.4591 27.6179 69.4591C28.0351 69.4591 28.4524 69.2504 28.4524 68.8332H47.2287V65.4952V62.3658V61.9485H28.2438C28.0351 61.7399 27.8265 61.5313 27.4093 61.5313C26.992 61.5313 26.5748 61.9485 26.5748 62.3658C26.5748 62.7831 26.7834 62.9917 26.992 63.2003V63.6175" fill="#A32588"/>
<path fill-rule="evenodd" clip-rule="evenodd" d="M57.034 63.4089V62.9917C57.2426 62.7831 57.4512 62.5744 57.4512 62.1572C57.4512 61.7399 57.034 61.3227 56.6167 61.3227C56.1995 61.3227 55.9909 61.5313 55.7822 61.7399H53.4874V61.9486V65.0779V68.416H55.5736C55.5736 68.8332 55.9909 69.0418 56.4081 69.0418C56.8254 69.0418 57.2426 68.6246 57.2426 68.2073C57.2426 67.7901 57.034 67.5815 56.8254 67.3728V66.7469" fill="#A32588"/>
<path d="M32.2076 65.0779H21.7763V65.4952H32.2076V65.0779Z" fill="#A32588"/>
<path d="M20.5245 65.2866L22.4022 66.5383V64.2434L20.5245 65.2866Z" fill="#A32588"/>
<path d="M63.9187 64.4521L62.041 65.0779H55.7823V65.7038H62.041L63.9187 66.3297V65.9124L62.6669 65.2866L63.9187 64.8693V64.4521Z" fill="#A32588"/>
<path d="M31.6244 65.0035L22.5909 70.2191L22.7996 70.5804L31.833 65.3648L31.6244 65.0035Z" fill="#A32588"/>
<path d="M21.7763 70.9194H23.8626L22.8194 69.0418L21.7763 70.9194Z" fill="#A32588"/>
<path d="M61.8324 59.445L60.5806 60.9054L55.1564 64.0348L55.365 64.452L60.7893 61.3227L62.8755 61.114L62.4583 60.6968L61.4151 60.9054L62.041 59.8623L61.8324 59.445Z" fill="#A32588"/>
<path d="M22.7692 60.2282L22.5605 60.5896L31.594 65.8052L31.8026 65.4438L22.7692 60.2282Z" fill="#A32588"/>
<path d="M21.7763 59.8623L22.8194 61.7399L23.8626 59.8623H21.7763Z" fill="#A32588"/>
<path d="M62.8755 69.6677L60.7893 69.4591L55.365 66.3297L55.1564 66.7469L60.5806 69.8763L61.8324 71.3367L62.041 70.9194L61.4151 69.8763L62.4583 70.0849L62.8755 69.6677Z" fill="#A32588"/>
<path d="M21.6207 62.6638L21.5128 63.0668L31.5883 65.7664L31.6963 65.3634L21.6207 62.6638Z" fill="#A32588"/>
<path d="M20.5245 62.3658L22.1935 64.0348L22.6108 61.9485L20.5245 62.3658Z" fill="#A32588"/>
<path d="M63.71 67.1642L61.8324 67.3728L55.7822 65.9124L55.5736 66.3297L61.6237 67.9987L63.2927 69.2505V68.6246L62.2496 67.9987L63.5014 67.7901L63.71 67.1642Z" fill="#A32588"/>
<path d="M31.7398 64.9696L21.6642 67.6692L21.7722 68.0722L31.8478 65.3726L31.7398 64.9696Z" fill="#A32588"/>
<path d="M20.5245 68.2073L22.6108 68.8332L22.1935 66.7469L20.5245 68.2073Z" fill="#A32588"/>
<path d="M63.2927 61.5313L61.6237 62.783L55.5736 64.4521L55.7822 64.8693L61.6237 63.2003L63.71 63.4089L63.5014 62.9917L62.2496 62.783L63.2927 62.1572V61.5313Z" fill="#A32588"/>
<path d="M387.914 64.2434H92.2917V79.2644H387.914V64.2434Z" fill="#A32588"/>
<path d="M314.478 93.2424L311.14 88.2353V95.7459H309.262V85.3146H311.14L314.269 90.3216L317.398 85.3146H319.276V95.7459H317.398V88.2353L314.478 93.2424Z" fill="#A32588"/>
<path d="M335.34 95.7459H333.462L332.419 93.2423H327.412L326.369 95.7459H324.283L328.873 85.106H330.542L335.34 95.7459ZM329.916 87.4008L328.038 91.5733H331.585L329.916 87.4008Z" fill="#A32588"/>
<path d="M343.894 95.7459H339.93V85.3146H343.894C347.232 85.3146 349.527 87.6095 349.527 90.5302C349.527 93.451 347.232 95.7459 343.894 95.7459ZM343.894 86.9836H341.807V94.0769H343.894C346.189 94.0769 347.44 92.6165 347.44 90.5302C347.649 88.444 346.189 86.9836 343.894 86.9836Z" fill="#A32588"/>
<path d="M361.418 95.7459L358.915 91.9906H356.62V95.7459H354.742V85.3146H359.332C361.836 85.3146 363.296 86.5663 363.296 88.6526C363.296 90.3216 362.253 91.3647 360.792 91.782L363.713 95.7459H361.418ZM359.332 86.9836H356.62V90.5302H359.332C360.584 90.5302 361.418 89.9043 361.418 88.8612C361.418 87.6095 360.584 86.9836 359.332 86.9836Z" fill="#A32588"/>
<path d="M370.598 85.3146V95.7459H368.72V85.3146H370.598Z" fill="#A32588"/>
<path d="M380.195 95.7459H376.231V85.3146H380.195C383.533 85.3146 385.827 87.6095 385.827 90.5302C385.827 93.451 383.533 95.7459 380.195 95.7459ZM380.195 86.9836H378.108V94.0769H380.195C382.489 94.0769 383.741 92.6165 383.741 90.5302C383.95 88.444 382.489 86.9836 380.195 86.9836Z" fill="#A32588"/>
<path d="M92.5003 31.2806H101.68V59.0278H92.5003V31.2806Z" fill="#282828"/>
<path d="M104.601 31.2806H113.154L122.96 43.3809V31.2806H132.348V59.0278H124.003L113.78 46.3016V59.0278H104.601V31.2806Z" fill="#282828"/>
<path d="M135.06 31.2806H145.7C156.757 31.2806 162.181 36.7049 162.181 44.8413C162.181 52.9777 156.548 58.8192 145.491 58.8192H135.269V31.2806H135.06ZM145.908 50.8914C150.081 50.8914 152.793 49.2224 152.793 45.2585C152.793 41.2946 150.081 39.6256 145.908 39.6256H144.448V51.1H145.908V50.8914Z" fill="#282828"/>
<path d="M164.059 46.7189V31.4893H173.447V46.7189C173.447 50.0569 175.325 51.5173 177.619 51.5173C180.123 51.5173 181.792 50.2655 181.792 46.7189V31.4893H191.18V46.5103C191.18 55.8984 185.756 59.6537 177.411 59.6537C169.274 59.6537 164.059 55.6898 164.059 46.7189Z" fill="#282828"/>
<path d="M191.597 54.8553L196.604 49.0138C199.525 51.3087 203.072 52.3518 206.201 52.3518C207.87 52.3518 208.496 51.9345 208.496 51.1C208.496 50.2655 207.661 49.8483 204.741 49.2224C198.482 47.9706 193.058 46.093 193.058 40.2515C193.058 35.0359 197.23 30.8634 204.741 30.8634C210.165 30.8634 213.92 32.1151 217.258 34.6186L212.668 40.8774C210.165 38.9998 207.036 38.1653 204.323 38.1653C202.863 38.1653 202.237 38.5825 202.237 39.2084C202.237 40.0429 203.072 40.4601 205.992 41.086C213.086 42.3378 217.884 44.424 217.884 50.0569C217.884 55.8984 213.086 59.445 205.784 59.445C200.151 59.445 195.144 57.9847 191.597 54.8553Z" fill="#282828"/>
<path d="M225.812 39.2084H217.675V31.4893H243.128V39.2084H234.991V59.0278H225.812V39.2084V39.2084Z" fill="#282828"/>
<path d="M245.005 31.2806H258.566C263.364 31.2806 266.494 32.5324 268.58 34.41C270.249 36.079 271.084 38.1653 271.084 40.8774C271.084 44.8413 268.997 47.762 265.659 49.431L272.127 58.8192H261.487L256.271 50.8914H254.394V58.8192H245.005V31.2806ZM258.149 44.6326C260.444 44.6326 261.695 43.5895 261.695 41.9205C261.695 40.0429 260.235 39.2084 258.149 39.2084H254.185V44.6326H258.149Z" fill="#282828"/>
<path d="M272.753 31.2806H281.932V59.0278H272.753V31.2806Z" fill="#282828"/>
<path d="M294.658 31.2806H303.838L315.521 59.0278H305.507L304.046 55.2725H294.45L292.989 59.0278H283.184L294.658 31.2806ZM301.543 48.8052L299.039 42.1291L296.536 48.8052H301.543Z" fill="#282828"/>
<path d="M316.147 31.2806H325.326V51.1H338.261V59.0278H315.938V31.2806H316.147Z" fill="#282828"/>
<path d="M339.93 31.2806H363.505V38.9998H349.109V41.7119H362.67V48.3879H349.109V51.5173H363.713V59.0278H339.93V31.2806Z" fill="#282828"/>
<path d="M363.713 54.8553L368.72 49.0138C371.641 51.3087 375.188 52.3518 378.317 52.3518C379.986 52.3518 380.612 51.9345 380.612 51.1C380.612 50.2655 379.777 49.8483 376.857 49.2224C370.598 47.9706 365.174 46.093 365.174 40.2515C365.174 35.0359 369.346 30.8634 376.857 30.8634C382.281 30.8634 386.036 32.1151 389.374 34.6186L384.784 40.8774C382.281 38.9998 379.152 38.1653 376.439 38.1653C374.979 38.1653 374.353 38.5825 374.353 39.2084C374.353 40.0429 375.188 40.4601 378.108 41.086C385.202 42.3378 390 44.424 390 50.0569C390 55.8984 385.202 59.445 377.9 59.445C372.267 59.445 367.051 57.9847 363.713 54.8553Z" fill="#282828"/>
<path d="M95.6297 8.33182V25.0218H92.7089V8.33182H95.6297V8.33182Z" fill="#282828"/>
<path d="M127.341 8.33182H130.261V25.0218H127.758L118.578 13.1302V25.0218H115.658V8.33182H118.37L127.341 20.0148V8.33182V8.33182Z" fill="#282828"/>
<path d="M158.009 25.4391C152.793 25.4391 149.246 21.6838 149.246 16.8854C149.246 12.0871 152.793 8.12318 157.8 8.12318C160.721 8.12318 162.598 8.95769 164.267 10.4181L162.39 12.7129C161.138 11.6698 159.886 10.8353 157.8 10.8353C154.671 10.8353 152.376 13.5474 152.376 16.6768C152.376 20.2235 154.671 22.727 158.009 22.727C159.678 22.727 160.929 22.3097 161.972 21.4752V18.3458H157.591V15.8423H164.685V22.9356C163.433 24.1873 161.138 25.4391 158.009 25.4391Z" fill="#282828"/>
<path d="M196.813 11.0439H187.425V15.4251H195.77V18.1372H187.425V22.727H197.022V25.4391H184.504V8.74907H197.022V11.0439H196.813Z" fill="#282828"/>
<path d="M227.689 8.33182H230.61V25.0218H228.107L218.927 13.1302V25.0218H216.006V8.33182H218.719L227.689 20.0148V8.33182V8.33182Z" fill="#282828"/>
<path d="M253.559 8.33182V25.0218H250.638V8.33182H253.559V8.33182Z" fill="#282828"/>
<path d="M286.105 11.0439H276.716V15.4251H285.061V18.1372H276.716V22.727H286.313V25.4391H273.796V8.74907H286.313V11.0439H286.105Z" fill="#282828"/>
<path d="M315.938 25.0218L311.765 19.1803H308.01V25.0218H305.089V8.33182H312.6C316.355 8.33182 318.859 10.4181 318.859 13.5475C318.859 16.2596 317.19 17.9286 314.895 18.5545L319.485 24.8132H315.938V25.0218ZM312.6 11.0439H308.219V16.6768H312.6C314.686 16.6768 316.147 15.6337 316.147 13.7561C315.938 12.0871 314.686 11.0439 312.6 11.0439Z" fill="#282828"/>
<path d="M346.189 25.4391C340.973 25.4391 337.426 21.4752 337.426 16.8854C337.426 12.0871 340.973 8.12318 346.189 8.12318C351.404 8.12318 354.951 12.0871 354.951 16.6768C354.951 21.2666 351.196 25.4391 346.189 25.4391ZM346.189 10.8353C342.851 10.8353 340.556 13.5474 340.556 16.6768C340.556 19.8062 342.851 22.727 346.189 22.727C349.527 22.727 351.822 20.0148 351.822 16.8854C351.822 13.5474 349.527 10.8353 346.189 10.8353Z" fill="#282828"/>
<path d="M380.403 15.4251C383.95 16.2596 385.828 17.5113 385.828 20.4321C385.828 23.5615 383.324 25.4391 379.777 25.4391C377.274 25.4391 374.77 24.6046 372.684 22.727L374.353 20.6407C376.022 22.1011 377.483 22.727 379.569 22.727C381.446 22.727 382.489 21.8925 382.489 20.6407C382.489 19.389 381.864 18.7631 378.734 18.1372C375.188 17.3027 373.101 16.2596 373.101 13.1302C373.101 10.2094 375.396 8.33182 378.734 8.33182C381.238 8.33182 383.115 9.16632 384.784 10.4181L383.115 12.713C381.655 11.6698 380.195 11.0439 378.526 11.0439C376.857 11.0439 375.813 11.8784 375.813 13.1302C376.439 13.9647 377.274 14.5906 380.403 15.4251Z" fill="#282828"/>
</svg>
