<?xml version="1.0" encoding="UTF-8"?>
<svg id="Layer_1" xmlns="http://www.w3.org/2000/svg" version="1.1" viewBox="0 0 10099.66 2995.95">
  <!-- Generator: Adobe Illustrator 29.5.0, SVG Export Plug-In . SVG Version: 2.1.0 Build 137)  -->
  <defs>
    <style>
      .st0 {
        fill: #5a2d82;
      }

      .st1 {
        fill: #fcb61a;
      }

      .st2 {
        fill: #fdb61a;
      }
    </style>
  </defs>
  <path d="M241.16,2125.85c0,38.78-9.03,70.12-26.56,93.49-17.53,23.9-41.43,36.12-72.24,36.12s-55.24-10.09-72.77-29.75v122.71H26.03v-352.72h39.84l1.59,28.68c17.53-22.31,42.5-33.47,73.84-33.47s54.71,11.16,72.77,35.06c17.53,22.84,26.56,55.24,26.56,96.15v3.72h.53ZM197.61,2121.07c0-28.68-6.37-51.53-18.59-68.52-12.22-16.47-28.68-24.97-49.93-24.97s-46.21,12.22-58.96,35.06v122.18c12.75,22.84,33.47,35.06,60.03,35.06s37.72-8.5,49.93-24.97c12.22-16.47,18.59-40.9,18.59-73.84h-1.06Z"/>
  <path d="M420.18,2250.68c-2.66-4.78-4.78-13.81-6.37-26.56-20.19,21.25-44.09,31.34-72.24,31.34s-46.21-7.44-62.15-21.25c-16.47-13.81-23.9-32.4-23.9-53.65s10.09-47.28,30.28-62.15c20.19-14.87,47.81-22.31,84.99-22.31h42.5v-20.19c0-14.87-4.78-27.62-13.81-36.12-9.03-9.03-22.31-13.81-39.84-13.81s-28.68,3.72-38.78,12.22c-10.09,7.44-15.94,17.53-15.94,28.68h-43.56c0-12.75,4.78-24.97,13.81-37.18,9.03-12.22,21.25-21.25,37.18-28.68,15.94-6.37,32.4-10.09,50.99-10.09,29.75,0,52.59,7.44,69.06,22.31,16.47,14.87,24.97,35.06,26.03,61.09v117.39c0,22.84,2.66,41.43,9.03,55.24v3.72h-47.81.53ZM347.93,2217.22c13.81,0,26.56-3.72,38.78-10.09,12.22-7.44,21.25-16.47,26.56-27.62v-51.53h-34c-53.65,0-80.21,15.94-80.21,47.28s4.78,23.9,13.81,32.4c9.03,7.44,20.19,11.16,35.06,11.16h0v-1.06h0v-.53Z"/>
  <path d="M2392.51,585.91c53.65,62.68,79.68,158.83,79.68,284.72v543.42h-276.22v-530.14c0-62.15-11.16-105.18-34-133.86-22.31-27.62-58.43-42.5-105.18-42.5s-103.58,17.53-139.7,54.71c-36.12,37.18-51.53,86.05-51.53,147.14v504.64h-276.22v-899.32h268.79v127.49c32.4-47.81,72.77-86.05,124.83-111.55,49.93-26.03,107.83-38.78,171.58-38.78,107.3,0,187.51,32.4,239.04,94.02"/>
  <path d="M2776.04,1400.77c-69.06-19.65-129.08-47.28-179.01-81.27l72.77-191.23c47.81,32.4,103.58,58.43,161.48,77.55,58.43,17.53,118.46,27.62,177.42,27.62s75.96-6.37,100.93-21.25c24.97-14.87,36.12-34,36.12-58.43s-8.5-38.78-23.9-51.53c-15.4-12.75-47.28-22.31-92.43-32.4l-147.14-32.4c-87.65-19.65-150.33-49.93-192.29-90.3-40.9-40.9-61.09-97.21-61.09-168.39s16.47-105.18,47.81-148.74c32.4-41.43,77.55-75.96,137.58-99.87,60.03-23.9,125.89-37.18,202.39-37.18s127.49,9.03,189.64,29.75c61.09,19.65,116.33,47.28,165.2,82.34l-72.77,182.73c-95.08-66.4-189.64-98.8-282.6-98.8s-75.96,8.5-100.93,22.31c-23.9,14.87-37.18,35.06-37.18,62.68s8.5,35.06,22.84,45.15c14.87,11.16,40.9,21.25,77.55,30.28l152.45,35.06c92.43,21.25,157.77,51.53,200.26,94.02,41.43,42.5,62.68,98.8,62.68,171.58s-34,155.11-103.58,203.98c-69.06,49.93-165.2,74.9-284.72,74.9s-157.77-10.09-228.41-28.68"/>
  <path d="M4429.66,1400.77c-69.06-19.65-129.08-47.28-179.01-81.27l72.77-191.23c47.81,32.4,103.58,58.43,161.48,77.55,58.43,17.53,118.46,27.62,177.42,27.62s75.96-6.37,99.87-21.25c23.9-14.87,35.06-34,35.06-58.43s-8.5-38.78-23.9-51.53c-15.4-12.75-47.28-22.31-92.43-32.4l-147.14-32.4c-87.65-19.65-150.33-49.93-192.29-90.3-40.9-40.9-61.09-97.21-61.09-168.39s16.47-105.18,47.81-148.74c32.4-41.43,77.55-75.96,137.58-99.87,60.03-23.9,125.89-37.18,202.39-37.18s127.49,9.03,189.64,29.75c62.15,19.65,116.33,47.28,164.67,82.34l-72.77,182.73c-95.08-66.4-189.64-98.8-282.6-98.8s-75.96,8.5-100.93,22.31c-23.9,14.87-37.18,35.06-37.18,62.68s8.5,35.06,22.84,45.15c14.87,11.16,40.9,21.25,77.55,30.28l151.39,35.06c92.43,21.25,158.83,51.53,200.26,94.02,41.43,42.5,62.68,98.8,62.68,171.58s-34,155.11-103.58,203.98c-69.06,49.93-164.67,74.9-284.72,74.9s-157.77-10.09-228.41-28.68"/>
  <polygon class="st2" points="549.79 118.46 0 1413.52 375.03 1413.52 905.16 118.46 549.79 118.46"/>
  <polygon points="969.97 160.95 792.55 594.94 1127.2 1413.52 1503.82 1413.52 969.97 160.95"/>
  <polygon points="4273.48 514.73 3841.09 1519.76 3568.59 1519.76 3717.32 1173.42 3412.41 514.73 3685.98 514.73 3853.84 854.7 3999.92 514.73 4273.48 514.73"/>
  <path class="st0" d="M1663.71,1975.52c0-23.9-12.22-42.5-65.34-42.5s-65.34,17.53-65.34,42.5v65.34c0,19.65,6.37,39.84,26.03,56.31l180.08,154.05c26.03,21.25,41.43,47.81,41.43,75.96v97.74c0,58.43-68.52,91.37-182.2,91.37s-185.92-28.68-185.92-91.37v-84.99h113.68v81.27c0,29.75,22.31,46.21,72.24,46.21s68.52-17.53,68.52-46.21v-86.59c0-21.25-8.5-37.72-32.4-58.96l-167.33-145.02c-30.28-26.56-47.81-47.28-47.81-79.68v-74.9c0-61.09,63.74-91.37,179.01-91.37s179.01,30.28,179.01,86.59v79.68h-113.68v-75.96h0v.53Z"/>
  <path class="st0" d="M2758.51,1988.27c0-61.09,46.21-105.18,199.73-105.18s199.73,44.09,199.73,105.18v421.24c0,61.09-46.21,105.18-199.73,105.18s-199.73-44.09-199.73-105.18v-421.24h0ZM2871.12,2407.92c0,34,13.81,58.43,86.05,58.43s86.05-23.9,86.05-58.43v-417.52c0-34-13.81-58.43-86.05-58.43s-86.05,23.9-86.05,58.43v417.52Z"/>
  <path class="st0" d="M3219.59,1888.41h180.08c146.08,0,189.64,23.9,189.64,94.02v152.45c0,70.12-43.56,94.02-189.64,94.02h-67.46v278.88h-113.68v-620.97h0l1.06,1.06h0v.53ZM3388.51,2182.16c51.53,0,87.65-6.37,87.65-38.78v-167.33c0-31.34-36.12-38.78-87.65-38.78h-55.24v244.88h55.24Z"/>
  <path class="st0" d="M3872.43,1973.4c0-23.9-12.22-42.5-65.34-42.5s-65.34,17.53-65.34,42.5v65.34c0,19.65,6.37,39.84,26.03,56.31l180.08,154.05c26.03,21.25,41.43,47.81,41.43,75.96v97.74c0,58.43-68.52,91.37-182.2,91.37s-185.92-28.68-185.92-91.37v-84.99h113.68v82.34c0,29.75,22.31,46.21,72.24,46.21s68.52-17.53,68.52-46.21v-86.59c0-21.25-8.5-37.72-32.4-58.96l-167.33-145.02c-30.28-26.56-47.81-47.28-47.81-79.68v-74.9c0-61.09,63.74-91.37,179.01-91.37s179.01,29.75,179.01,86.59v79.68h-113.68v-75.96h0v-1.06h0v.53Z"/>
  <path class="st0" d="M4710.66,1973.4c0-23.9-12.22-42.5-65.34-42.5s-65.34,17.53-65.34,42.5v65.34c0,19.65,6.37,39.84,26.03,56.31l180.08,155.11c26.03,21.25,41.43,47.81,41.43,75.96v97.74c0,58.43-69.06,91.37-182.2,91.37s-185.92-28.68-185.92-91.37v-84.99h113.68v82.34c0,29.75,22.31,46.21,72.24,46.21s68.52-17.53,68.52-46.21v-86.59c0-21.25-8.5-37.72-32.4-58.96l-167.33-145.02c-30.28-26.56-47.81-47.28-47.81-79.68v-74.9c0-61.09,63.74-91.37,179.01-91.37s179.01,30.28,179.01,86.59v79.68h-113.68v-75.96h0v-1.59h0Z"/>
  <polygon class="st0" points="2131.16 1888.41 2244.84 1888.41 1996.24 2668.21 1882.56 2668.21 2131.16 1888.41"/>
  <polygon class="st0" points="1952.15 2372.33 1798.64 1890.53 1912.31 1890.53 2008.99 2194.38 1952.15 2372.33"/>
  <polygon class="st0" points="4339.88 1888.41 4453.56 1888.41 4204.96 2668.21 4090.75 2668.21 4339.88 1888.41"/>
  <polygon class="st0" points="4160.87 2371.8 4007.35 1888.41 4121.03 1888.41 4218.24 2193.32 4160.87 2371.8"/>
  <path class="st0" d="M2688.39,2509.38h0v-525.89c0-70.12-42.5-94.02-189.64-94.02h-218.85v620.97h113.68v-572.63h93.49c51.53,0,87.65,6.37,87.65,38.78v533.85h112.61l1.06-1.06h0Z"/>
  <path class="st0" d="M4871.08,1965.43c0-41.43,33.47-72.24,73.84-72.24s72.77,30.28,72.77,72.24-33.47,72.24-72.77,72.24-73.84-30.28-73.84-72.24ZM4944.92,2025.99c32.4,0,58.43-26.03,58.43-60.03s-26.03-60.03-58.43-60.03-58.96,26.03-58.96,60.03,26.03,60.03,58.96,60.03ZM4929.51,2007.93h-12.75v-83.4h32.4c19.65,0,29.75,7.44,29.75,23.9s-9.03,21.25-21.25,22.84l23.9,37.18h-13.81l-22.31-36.12h-14.87v36.12h0l-1.06-1.06h0v.53ZM4944.92,1960.65c11.16,0,20.19,0,20.19-13.81s-9.03-12.22-18.59-12.22h-17.53v26.03h15.94Z"/>
  <path d="M610.35,2034.49c-6.37-1.06-13.81-1.59-21.25-1.59-28.68,0-47.81,12.22-58.43,36.12v181.14h-43.56v-254.97h42.5v29.75c14.87-22.84,35.06-34,61.09-34s14.87,1.06,19.65,3.72v40.9h0v-1.06h0Z"/>
  <path d="M726.68,1934.62v62.15h47.28v33.47h-47.28v157.77c0,10.09,1.59,17.53,6.37,22.84,4.78,5.31,11.16,7.44,21.25,7.44s12.22-1.06,20.19-2.66v35.06c-11.16,2.66-22.31,4.78-33.47,4.78-19.65,0-34-5.31-44.09-17.53-10.09-12.22-14.87-28.68-14.87-49.93v-157.77h-46.21v-33.47h46.21v-62.15h44.62Z"/>
  <path d="M865.32,2120.54c0-24.97,4.78-47.28,14.87-67.46,10.09-20.19,22.84-35.06,40.9-46.21,18.06-11.16,37.72-16.47,60.03-16.47,35.06,0,62.68,12.22,83.93,36.12,21.25,23.9,32.4,56.31,32.4,96.15v2.66c0,24.97-4.78,47.28-14.87,66.4-9.03,19.65-22.84,35.06-40.9,46.21-18.06,11.16-37.72,16.47-61.09,16.47-34,0-62.68-12.22-83.93-36.12-21.25-23.9-32.4-55.24-32.4-95.08v-2.66h1.06ZM908.88,2125.85c0,28.68,6.37,51,19.65,68.52,13.28,17.53,30.28,26.03,52.59,26.03s39.84-8.5,52.59-26.03c12.75-17.53,19.65-41.43,19.65-72.77s-6.37-51-20.19-67.46c-12.75-17.53-30.28-26.03-52.59-26.03s-38.78,8.5-51.53,26.03c-12.75,17.53-19.65,41.43-19.65,72.77h0v-1.06h-.53Z"/>
  <path d="M1153.76,2250.68v-220.98h-39.84v-33.47h39.84v-26.03c0-26.56,7.44-47.81,22.31-63.74s35.06-22.31,62.15-22.31,20.19,1.06,29.75,3.72l-2.66,35.06c-7.44-1.59-14.87-1.59-23.9-1.59-13.81,0-24.97,3.72-32.4,12.75-7.44,8.5-11.16,20.19-11.16,36.12v26.56h54.71v33.47h-54.71v220.98h-43.56v-1.06h-.53v.53Z"/>
  <path d="M25.5,1519.76h3507.5l6.37-14.87H25.5v14.87ZM3883.59,1504.88l-6.37,14.87h1123.48v-14.87h-1117.11Z"/>
  <g>
    <path d="M6805.7,2145.51c0,98.27-73.84,159.89-191.76,159.89h-89.24v121.64h-101.99v-441.96h191.23c117.93,0,191.76,61.09,191.76,160.42h0ZM6702.12,2145.51c0-48.34-31.34-77.02-94.02-77.02h-83.4v153.52h83.4c62.68,0,94.02-28.15,94.02-76.49Z"/>
    <path d="M7222.69,2331.96h-205.04l-39.31,94.55h-104.65l197.07-441.96h100.93l197.61,441.96h-107.3l-39.31-94.55ZM7190.29,2254.4l-70.12-168.92-70.12,168.92h140.24,0Z"/>
    <path d="M7772.48,2426.51l-84.99-123.24h-94.02v123.24h-101.99v-441.96h191.23c117.93,0,191.76,61.09,191.76,160.42s-33.47,114.74-90.83,139.7l99.33,141.83h-110.49ZM7676.34,2068.48h-83.4v154.05h83.4c62.68,0,94.02-29.22,94.02-77.02s-31.34-77.02-94.02-77.02Z"/>
    <path d="M8115.64,2068.48h-141.3v-83.4h385.12v83.4h-141.3v358.56h-101.99v-358.56h-.53Z"/>
    <path d="M8895.43,1985.09v441.96h-83.93l-220.45-268.25v268.25h-100.93v-441.96h84.46l219.38,268.25v-268.25h101.46Z"/>
    <path d="M9417.6,2344.71v81.8h-342.09v-441.96h334.12v81.8h-232.13v96.15h205.04v79.68h-205.04v101.99h240.63-.53v.53Z"/>
    <path d="M9856.37,2426.51l-84.99-123.24h-94.02v123.24h-101.99v-441.96h191.23c117.93,0,191.76,61.09,191.76,160.42s-33.47,114.74-90.83,139.7l99.33,141.83h-110.49ZM9760.22,2068.48h-83.4v154.05h83.4c62.68,0,94.02-29.22,94.02-77.02s-31.34-77.02-94.02-77.02Z"/>
  </g>
  <g>
    <path d="M6394.56,1450.7c0-133.33,101.99-228.41,240.1-228.41s140.24,27.62,181.67,78.09l-65.87,60.56c-29.75-34-66.93-51.53-111.02-51.53-82.87,0-141.3,57.9-141.3,141.3s58.96,141.3,141.3,141.3,81.27-17.53,111.02-52.59l65.87,60.56c-41.43,51-105.18,79.15-182.2,79.15-137.05,0-239.04-95.08-239.04-228.41h-.53Z"/>
    <path d="M7366.12,1230.25v441.96h-101.99v-181.14h-200.79v181.14h-101.99v-441.96h101.99v174.23h200.79v-174.23h101.99Z"/>
    <path d="M7837.29,1577.13h-205.04l-39.31,94.55h-104.65l197.07-441.96h100.93l197.61,441.96h-107.3l-39.31-94.55h0ZM7805.42,1499.57l-70.12-168.92-70.12,168.92h140.24,0Z"/>
    <path d="M8510.85,1230.25v441.96h-83.93l-220.45-268.25v268.25h-100.93v-441.96h84.46l219.38,268.25v-268.25h101.46Z"/>
    <path d="M9096.76,1230.25v441.96h-83.93l-220.45-268.25v268.25h-100.93v-441.96h84.46l219.38,268.25v-268.25h101.46Z"/>
    <path d="M9618.93,1589.87v81.8h-342.09v-441.96h334.12v81.8h-232.13v96.15h205.04v79.68h-205.04v101.99h240.63-.53v.53Z"/>
    <path d="M9776.16,1230.25h101.99v358.56h221.51v83.4h-324.03v-441.96h.53Z"/>
  </g>
  <rect class="st1" x="5705.59" width="42.5" height="2995.95"/>
  <g>
    <path d="M6704.78,865.32h-214.07l-42.5,99.33h-81.8l192.82-428.68h78.09l193.36,428.68h-83.4l-43.03-99.33h.53ZM6678.22,802.64l-80.74-187.51-80.21,187.51h160.95,0Z"/>
    <path d="M7335.84,688.43c0,94.02-69.59,152.45-182.2,152.45h-96.68v123.77h-79.68v-428.68h176.36c112.61,0,182.2,57.37,182.2,152.45ZM7255.63,688.43c0-53.65-36.12-84.99-105.71-84.99h-92.96v169.98h92.96c69.59,0,105.71-31.34,105.71-84.99Z"/>
    <path d="M7828.26,897.72v66.93h-321.37v-428.68h312.88v66.93h-233.2v111.55h206.64v65.34h-206.64v117.93h241.69Z"/>
    <path d="M8273.93,964.12l-116.33-162.55-115.27,162.55h-90.83l159.36-218.32-150.33-209.82h89.77l109.43,152.45,108.36-152.45h86.05l-149.8,206.64,160.95,221.51h-91.9.53Z"/>
  </g>
</svg>