<?xml version="1.0" encoding="UTF-8"?><svg id="Capa_1" xmlns="http://www.w3.org/2000/svg" viewBox="0 0 341.0759 242.96023"><defs><style>.cls-1{fill:#001e37;stroke-width:0px;}</style></defs><path class="cls-1" d="m335.61013,115.15213h-39.8966c-.9038,0-1.58104-.81466-1.43092-1.70591,5.29726-31.44955-1.91822-60.37124-20.4845-81.72852C254.61341,9.64837,225.75197-1.56514,192.51619.17619c-32.64781,1.69928-65.69973,15.73656-93.06709,39.52652-6.0307,5.24248-11.62461,10.82788-16.75711,16.68862-.55318.63167-1.34746.99649-2.1871.99649h-46.06246c-1.4399,0-2.82161.56834-3.84478,1.58148l-.25269.25021C16.47396,72.9537,4.10083,98.11413.25548,120.40497l-.17456,1.01224c-.57594,3.33977,1.99578,6.39294,5.38485,6.39294h39.89592c.90379,0,1.58103.81465,1.43093,1.70589-5.29674,31.44924,1.9188,60.37048,20.48432,81.72759,17.89549,20.58654,44.21209,31.71659,74.64042,31.71659,2.19187,0,4.40885-.05836,6.64182-.17445,32.64812-1.69928,65.70005-15.73656,93.06678-39.52714,6.03074-5.24233,11.62469-10.82772,16.75718-16.68833.55318-.63165,1.34744-.99647,2.18708-.99647h45.70758c1.66774,0,3.26808-.65826,4.45316-1.83169h0c13.87099-13.73545,26.24413-38.89525,30.08947-61.18484l.17456-1.01228c.57591-3.33976-1.9958-6.3929-5.38485-6.3929Zm-319.37979,0c-.9584,0-1.66553-.91082-1.40992-1.83451,4.33489-15.66538,12.66688-31.95182,21.7989-42.30756.54659-.61984,1.34039-.96423,2.1668-.96423h84.49628c.89508,0,1.75883-.32953,2.42645-.92572l10.2891-9.18828c.99816-.89137.36765-2.54402-.97058-2.54402h-34.18835c-.65031,0-.97931-.79053-.51627-1.24713,2.38303-2.34989,4.85842-4.64822,7.43136-6.88486,25.24451-21.94446,55.58091-34.88549,85.42032-36.43857,2.00362-.10417,3.98528-.15625,5.94937-.15625,26.7204,0,49.68205,9.60082,65.12117,27.36108,16.53181,19.01797,22.59781,45.27267,17.09131,73.94765-.1317.68584-.73796,1.18238-1.43633,1.18238H16.23034Zm308.61522,12.65802c.95839,0,1.66552.9108,1.40993,1.83449-4.33441,15.66469-12.66698,31.95074-21.79906,42.30692-.5466.61986-1.3404.96427-2.16684.96427h-94.01702c-.89509,0-1.75884.32953-2.42647.92573l-10.28896,9.18827c-.99815.89137-.36764,2.54401.97059,2.54401h43.7152c.65056,0,.97927.79126.51573,1.24772-2.39239,2.35585-4.87101,4.65326-7.4371,6.88396-25.24451,21.94509-55.58122,34.88612-85.42032,36.43919-29.25709,1.51856-54.49658-8.13936-71.07055-27.20546-17.10551-19.6775-22.37017-46.4639-17.08813-73.94832.13175-.68552.73757-1.18076,1.43564-1.18076h263.66737Z"/></svg>