<svg width="2478" height="2732" viewBox="0 0 2478 2732" fill="none" xmlns="http://www.w3.org/2000/svg">
<path d="M124.85 2223.77C161.745 2196.32 208.446 2182.59 265.024 2182.59C301.12 2182.59 330.463 2186.37 353.123 2193.92L320.004 2269.09C304.897 2265.32 287.176 2263.43 266.694 2263.43C231.687 2263.43 203.797 2271.49 183.098 2287.69C162.326 2303.81 148.236 2330.25 140.683 2366.85L92.239 2598.76H0L51.712 2351.53C63.5505 2293.93 87.9539 2251.37 124.85 2223.84M440.786 2590.69C408.757 2575.59 384.063 2554.23 366.85 2526.49C349.637 2498.75 340.994 2466.57 340.994 2429.97C340.994 2410.07 343.173 2391.18 347.458 2373.39C356.609 2333.51 374.403 2298.94 400.768 2269.6C427.132 2240.26 459.452 2217.89 497.728 2202.56C535.93 2187.24 576.893 2179.54 620.543 2179.54C671.166 2179.54 711.039 2189.78 740.091 2210.26C769.143 2230.74 783.741 2257.91 783.741 2291.9C783.741 2301.56 782.652 2310.78 780.546 2319.35C761.154 2404.47 662.305 2447.03 484.001 2447.03C459.234 2447.03 441.73 2446.74 431.49 2446.23C436.356 2474.27 449.938 2496.2 472.307 2512.11C494.677 2528.02 525.254 2535.93 564.038 2535.93C608.705 2535.93 653.735 2524.6 698.983 2502.01L723.241 2573.12C697.894 2586.05 670.73 2596 641.606 2603.04C612.554 2610.01 583.72 2613.57 555.177 2613.57C511.019 2613.57 472.888 2606.02 440.859 2590.98M491.336 2377.67C552.199 2377.67 599.844 2371.35 634.343 2358.72C668.842 2346.08 688.234 2328.94 692.519 2307.44C693.027 2305.26 693.318 2302.57 693.318 2299.38C693.318 2286.45 686.418 2276.06 672.691 2268.29C658.964 2260.52 638.919 2256.6 612.482 2256.6C568.323 2256.6 530.193 2266.99 498.163 2287.69C466.134 2308.46 445.217 2338.16 435.557 2376.95C446.887 2377.46 465.48 2377.75 491.336 2377.75M918.759 2235.97C962.917 2198.57 1018.41 2179.83 1085.22 2179.83C1127.79 2179.83 1165.33 2188.04 1197.95 2204.45C1230.56 2220.87 1255.69 2243.67 1273.48 2272.72C1291.27 2301.78 1300.13 2334.39 1300.13 2370.48C1300.13 2385.59 1298.54 2401.2 1295.27 2417.33C1287.71 2453.93 1272.24 2487.13 1248.79 2516.69C1225.33 2546.32 1196.57 2569.49 1162.36 2586.19C1128.15 2602.9 1091.4 2611.25 1052.11 2611.25C1017.1 2611.25 986.013 2605.22 958.777 2593.09C931.541 2580.96 909.608 2563.1 892.903 2539.35L852.521 2731.67H760.427L833.129 2385.08C846.057 2323.13 874.6 2273.45 918.759 2236.05M919.558 2420.67C919.558 2454.08 930.597 2481.17 952.677 2501.87C974.756 2522.64 1005.48 2532.95 1044.77 2532.95C1084.06 2532.95 1116.82 2521.41 1146.16 2498.24C1175.5 2475.07 1194.24 2444.93 1202.3 2407.74C1204.99 2394.31 1206.37 2382.97 1206.37 2373.82C1206.37 2339.91 1195.19 2312.52 1172.82 2291.83C1150.45 2271.13 1119.65 2260.74 1080.29 2260.74C1043.1 2260.74 1009.62 2272.36 979.695 2295.46C949.771 2318.63 931.106 2348.77 923.552 2385.95C920.865 2399.39 919.485 2411.01 919.485 2420.67M1561.02 2257.47C1532.98 2257.47 1511.34 2261.25 1495.94 2268.8C1480.62 2276.36 1472.92 2286.89 1472.92 2300.32C1472.92 2310.56 1479.38 2319.57 1492.31 2327.41C1505.24 2335.26 1528.7 2343.68 1562.62 2352.83C1614.84 2366.27 1652.02 2382.76 1674.1 2402.15C1696.18 2421.54 1707.22 2445 1707.22 2472.45C1707.22 2481.61 1705.84 2492.35 1703.15 2504.77C1695.6 2537.6 1675.26 2564.04 1642.15 2583.94C1609.03 2603.84 1566.03 2613.86 1513.3 2613.86C1475.61 2613.86 1439.87 2609.43 1406.25 2600.5C1372.55 2591.64 1344.44 2579.65 1321.78 2564.55L1363.76 2492.64C1410.6 2521.7 1462.32 2536.29 1518.89 2536.29C1548.53 2536.29 1571.55 2531.21 1587.96 2520.97C1604.38 2510.73 1612.59 2498.38 1612.59 2483.78C1612.59 2472.45 1605.61 2462.21 1591.6 2453.06C1577.58 2443.91 1552.52 2434.76 1516.42 2425.61C1467.4 2413.26 1432.1 2397.65 1410.6 2378.76C1389.03 2359.95 1378.28 2337.29 1378.28 2310.93C1378.28 2301.27 1379.37 2292.12 1381.48 2283.47C1387.94 2252.75 1407.99 2227.84 1441.69 2208.74C1475.32 2189.64 1517.73 2180.05 1568.93 2180.05C1599.66 2180.05 1628.85 2183.68 1656.6 2190.94C1684.34 2198.21 1708.46 2209.1 1728.94 2223.7L1688.56 2293.21C1649.77 2269.53 1607.21 2257.69 1560.87 2257.69M1869.55 2589.75C1836.14 2573.05 1810.57 2550.17 1792.78 2521.04C1774.98 2491.99 1766.12 2459.38 1766.12 2423.28C1766.12 2407.67 1767.72 2391.76 1770.99 2375.64C1778.54 2339.03 1794.52 2305.92 1819.07 2276.28C1843.55 2246.65 1873.9 2223.34 1910 2206.41C1946.1 2189.42 1984.3 2180.99 2024.76 2180.99C2070 2180.99 2109.3 2189.35 2142.71 2206.05C2176.11 2222.75 2201.68 2245.63 2219.47 2274.76C2237.27 2303.81 2246.13 2336.42 2246.13 2372.52C2246.13 2388.13 2244.53 2404.04 2241.26 2420.16C2233.71 2456.77 2217.66 2489.96 2193.18 2519.52C2168.63 2549.15 2138.35 2572.46 2102.25 2589.39C2066.15 2606.38 2027.95 2614.81 1987.5 2614.81C1942.25 2614.81 1902.96 2606.45 1869.55 2589.75ZM1859.02 2420.09C1859.02 2454.01 1870.71 2481.46 1894.17 2502.52C1917.63 2523.51 1948.71 2534.04 1987.5 2534.04C2026.28 2534.04 2062.89 2522.64 2092.52 2499.69C2122.15 2476.81 2140.96 2446.23 2149.1 2407.96C2151.78 2395.61 2153.16 2384.79 2153.16 2375.64C2153.16 2341.72 2141.47 2314.27 2118.01 2293.21C2094.55 2272.14 2063.47 2261.68 2024.68 2261.68C1985.9 2261.68 1949.29 2273.16 1919.66 2296.04C1890.03 2318.92 1871.22 2349.49 1863.08 2387.77C1860.4 2400.19 1859.02 2410.94 1859.02 2420.09ZM2385.07 2062.17H2477.16L2364.08 2598.68H2271.99L2385.07 2062.17Z" fill="white"/>
<mask id="mask0_5_96" style="mask-type:alpha" maskUnits="userSpaceOnUse" x="0" y="0" width="2478" height="1797">
<path fill-rule="evenodd" clip-rule="evenodd" d="M1762.71 1498.83C1813.17 1454.97 1859.19 1408.29 1900.62 1359.53H2277.12C2379.8 1223.13 2447.05 1070.49 2477.16 900.787H2141.89C2203.48 654.174 2163.45 408.35 2008.8 230.453C1720.44 -101.255 1142.73 -71.1871 718.449 297.612C668.051 341.421 622.084 388.038 580.692 436.735H194.706C95.6167 584.271 21.0397 736.94 0 900.814H337.996C278.248 1145.69 318.783 1389.34 472.357 1565.99C760.722 1897.7 1338.43 1867.63 1762.71 1498.83Z" fill="#FF4E4E"/>
</mask>
<g mask="url(#mask0_5_96)">
<path d="M1762.71 1498.83C2186.99 1130.04 2297.17 562.161 2008.8 230.453C1720.44 -101.255 1142.72 -71.187 718.447 297.612C294.17 666.412 183.991 1234.29 472.355 1565.99C760.72 1897.7 1338.43 1867.63 1762.71 1498.83Z" fill="url(#paint0_linear_5_96)"/>
<g filter="url(#filter0_f_5_96)">
<path d="M2179.79 789.993C2195.39 911.812 2032.87 972.925 1845.03 996.979C1657.19 1021.03 1515.17 998.919 1499.57 877.1C1483.97 755.281 1604.25 587.95 1792.09 563.896C1979.93 539.842 2164.19 668.175 2179.79 789.993Z" fill="url(#paint1_linear_5_96)" fill-opacity="0.2"/>
</g>
<g filter="url(#filter1_f_5_96)">
<path d="M1785.58 1472.39C2209.86 1103.59 2293.67 546.477 2005.31 214.769C1716.94 -116.94 1165.6 -97.6321 741.322 271.167C317.045 639.967 206.866 1207.84 495.23 1539.55C783.595 1871.26 1361.31 1841.19 1785.58 1472.39Z" stroke="#FFB800" stroke-width="25.1386"/>
</g>
<g filter="url(#filter2_f_5_96)">
<path d="M1403.85 1789.19C1809.98 1671.99 2440.62 992.485 2381.18 786.527C2331.06 678.502 2289.3 518.678 2194.73 567.085C2148.45 590.772 2103.22 756.002 2009.83 825.716C1880.38 906.993 1737.53 1202.21 1504.18 1269.56C1098.06 1386.76 824.014 1414.32 883.453 1620.28C942.892 1826.24 997.728 1906.4 1403.85 1789.19Z" fill="url(#paint2_linear_5_96)"/>
</g>
<mask id="mask1_5_96" style="mask-type:alpha" maskUnits="userSpaceOnUse" x="102" y="900" width="1311" height="559">
<rect x="102.814" y="900.797" width="1309.97" height="557.324" fill="#D9D9D9"/>
</mask>
<g mask="url(#mask1_5_96)">
<g filter="url(#filter3_f_5_96)">
<path d="M282.345 799.513C513.051 692.977 1029.32 714.676 1043.79 797.688C1040.68 881.883 807.121 818.551 472.929 989.921C201.83 1128.94 78.9457 1165.69 55.7154 1032.45C41.2419 949.439 51.639 906.049 282.345 799.513Z" fill="#FF6512"/>
</g>
</g>
<g filter="url(#filter4_f_5_96)">
<path d="M1726.56 1569.47C2021.19 1355.53 2066.89 1117.27 1828.62 1037.3C1590.35 957.325 1158.35 1065.92 863.72 1279.86C569.089 1493.79 523.398 1732.05 761.666 1812.03C999.933 1892 1431.93 1783.4 1726.56 1569.47Z" fill="url(#paint3_linear_5_96)"/>
</g>
<g filter="url(#filter5_f_5_96)">
<path d="M796.479 2021.7C1103.24 1904.49 1301.4 1613.34 1239.08 1371.4C1176.77 1129.47 877.57 1028.36 570.808 1145.56C264.047 1262.77 65.8853 1553.92 128.203 1795.85C190.52 2037.79 489.718 2138.9 796.479 2021.7Z" fill="url(#paint4_linear_5_96)" fill-opacity="0.9"/>
</g>
<g filter="url(#filter6_f_5_96)">
<path d="M1617.76 941.88C1844.52 852.449 2308.5 849.689 2307.75 912.139C2282.6 1006.34 2089.9 936.783 1758.58 1079.26C1489.81 1194.84 1372.37 1227.3 1373.59 1127.07C1374.34 1064.62 1391.01 1031.31 1617.76 941.88Z" fill="#FD5710"/>
</g>
<g filter="url(#filter7_f_5_96)">
<path d="M1831.41 1439.09C2226.28 1004.37 2392.69 455.252 2097.36 115.537C1802.04 -224.178 1069.61 -224.094 611.872 173.788C154.136 571.671 173.508 1219.59 468.833 1559.3C764.158 1899.02 1287.85 1941.03 1831.41 1439.09Z" stroke="#FFB905" stroke-opacity="0.7" stroke-width="25.1386"/>
</g>
<g filter="url(#filter8_f_5_96)">
<path d="M1975.84 352.111C1840.29 436.58 1796.65 357.664 1596.94 295.24C1397.23 232.816 1208.31 267.806 1252.62 126.054C1296.93 -15.6983 1494.74 -80.0063 1694.46 -17.5824C1977.16 44.8765 2063.58 210.974 1975.84 352.111Z" fill="white" fill-opacity="0.25"/>
</g>
<mask id="mask2_5_96" style="mask-type:alpha" maskUnits="userSpaceOnUse" x="276" y="900" width="2341" height="1086">
<rect x="276.524" y="900.797" width="2340.16" height="1084.73" fill="#D9D9D9"/>
</mask>
<g mask="url(#mask2_5_96)">
<path d="M889.406 900.797H2477.16C2447.05 1070.5 2379.8 1223.14 2277.12 1359.54H889.406V900.797Z" fill="url(#paint5_linear_5_96)"/>
<path d="M889.406 900.797H2477.16C2447.05 1070.5 2379.8 1223.15 2277.12 1359.55H889.406V900.797Z" fill="url(#paint6_linear_5_96)"/>
<mask id="mask3_5_96" style="mask-type:alpha" maskUnits="userSpaceOnUse" x="394" y="898" width="2084" height="462">
<rect x="394.677" y="898.281" width="2082.49" height="461.257" fill="#D9D9D9"/>
</mask>
<g mask="url(#mask3_5_96)">
<g filter="url(#filter9_f_5_96)">
<ellipse cx="1628.04" cy="1357.35" rx="235.914" ry="88.7605" fill="#B70B00" fill-opacity="0.6"/>
</g>
<g filter="url(#filter10_f_5_96)">
<path d="M2132.26 1251.51C2159.34 1111.09 2189.4 939.242 1897.04 939.242C1604.67 939.242 1358.97 987.184 1141.68 1070.66C924.383 1154.14 983.629 1193.49 1028.34 1251.51C1078.05 1316.03 1188.13 1404.21 1303.19 1425.01C1356.63 1434.68 1638.74 1393.62 1689.37 1401.5C1954.62 1442.8 2105.19 1391.93 2132.26 1251.51Z" fill="url(#paint7_linear_5_96)" fill-opacity="0.6"/>
</g>
</g>
<path d="M889.406 900.797H2477.16C2447.05 1070.5 2379.8 1223.14 2277.12 1359.54H889.406V900.797Z" fill="url(#paint8_linear_5_96)"/>
<mask id="mask4_5_96" style="mask-type:alpha" maskUnits="userSpaceOnUse" x="1145" y="900" width="1333" height="460">
<path d="M1145.57 900.797H2477.16C2447.05 1070.5 2379.8 1223.14 2277.12 1359.54H1145.57V900.797Z" fill="url(#paint9_linear_5_96)"/>
</mask>
<g mask="url(#mask4_5_96)">
<g filter="url(#filter11_f_5_96)">
<path d="M1882.25 973.059C1770.26 917.126 1402.63 903.574 1346.05 887.588L1574.47 842.326C1814.8 838.434 2023.34 824.745 2046.49 821.082C2075.43 816.502 2500.07 811.685 2553.03 842.326C2595.4 866.839 2597.17 1109.83 2553.03 1130.66C2383.02 1090.96 2414.38 1114.48 2238.72 1058.53C2159.41 1033.27 2030.25 1046.98 1882.25 973.059Z" fill="url(#paint10_linear_5_96)"/>
</g>
</g>
</g>
<path d="M1717.22 436.742H194.706C95.6167 584.279 21.0397 736.948 0 900.821H1368.96L1717.22 436.742Z" fill="url(#paint11_radial_5_96)"/>
<mask id="mask5_5_96" style="mask-type:alpha" maskUnits="userSpaceOnUse" x="0" y="436" width="1718" height="465">
<path d="M1717.22 436.742H194.706C95.6167 584.279 21.0397 736.948 0 900.821H1368.96L1717.22 436.742Z" fill="white"/>
</mask>
<g mask="url(#mask5_5_96)">
<rect x="-50.7803" y="399.531" width="1325.06" height="525.9" fill="url(#paint12_linear_5_96)"/>
<g filter="url(#filter12_f_5_96)">
<path d="M247.72 489.346C261.524 449.305 299.39 422.58 341.742 422.988L1706.05 436.125C1735.85 436.412 1752.25 470.87 1733.69 494.181V494.181C1730.46 498.241 1726.38 501.549 1721.74 503.875L1638.4 545.657C1624.55 552.6 1609.43 556.664 1594.01 558.189C1501.55 567.336 1488.58 584.01 1449.36 592.003C1439.92 593.926 1430.51 596.092 1421.53 599.56L1319.38 638.997C1312.66 641.591 1305.72 643.568 1298.64 644.904L1188.12 665.753C1180.87 667.122 1173.51 667.81 1166.13 667.81H1057.26H908.634H746.683L437.376 642.897L320.1 617.682C262.366 605.27 228.473 545.175 247.72 489.346V489.346Z" fill="url(#paint13_radial_5_96)" fill-opacity="0.5"/>
</g>
<g filter="url(#filter13_f_5_96)">
<path d="M-105.768 425.274C-99.3901 364.905 -48.4755 319.086 12.2295 319.086H555.702C614.542 319.086 664.494 362.208 673.085 420.417L673.859 425.664C683.671 492.147 636.362 553.501 569.569 560.917L537.842 564.439L423.964 585.807L316.392 618.673C307.775 621.306 298.886 622.948 289.897 623.569L176.283 631.416C170.052 631.846 163.796 631.784 157.575 631.229L4.77229 617.611C-22.6108 615.171 -48.2968 603.297 -67.897 584.02L-76.5868 575.473C-102.371 550.113 -115.182 514.378 -111.382 478.412L-105.768 425.274Z" fill="url(#paint14_linear_5_96)"/>
</g>
<g filter="url(#filter14_f_5_96)">
<path d="M231.078 365.04C240.903 346.59 260.319 335.285 281.215 335.847L1442.5 367.089C1455.76 367.446 1460.93 384.488 1450.1 392.155V392.155C1449.23 392.773 1448.29 393.287 1447.3 393.688L1392.62 415.774C1382.87 419.711 1372.6 422.336 1362.17 423.597C1308.88 430.035 1306.45 430.823 1271.22 433.324L1177.32 438.305L1083.98 443.309L945.435 448.196L834.65 453.317L727.357 464.176H615.711L474.492 453.317H356.592L274.723 445.847C235.467 442.265 212.548 399.833 231.078 365.04V365.04Z" fill="url(#paint15_linear_5_96)" fill-opacity="0.5"/>
</g>
</g>
</g>
<defs>
<filter id="filter0_f_5_96" x="1322.24" y="384.998" width="1034.56" height="796.566" filterUnits="userSpaceOnUse" color-interpolation-filters="sRGB">
<feFlood flood-opacity="0" result="BackgroundImageFix"/>
<feBlend mode="normal" in="SourceGraphic" in2="BackgroundImageFix" result="shape"/>
<feGaussianBlur stdDeviation="87.9853" result="effect1_foregroundBlur_5_96"/>
</filter>
<filter id="filter1_f_5_96" x="196.157" y="-158.771" width="2116.93" height="2066.98" filterUnits="userSpaceOnUse" color-interpolation-filters="sRGB">
<feFlood flood-opacity="0" result="BackgroundImageFix"/>
<feBlend mode="normal" in="SourceGraphic" in2="BackgroundImageFix" result="shape"/>
<feGaussianBlur stdDeviation="62.8466" result="effect1_foregroundBlur_5_96"/>
</filter>
<filter id="filter2_f_5_96" x="498.279" y="181.108" width="2263.89" height="2039.41" filterUnits="userSpaceOnUse" color-interpolation-filters="sRGB">
<feFlood flood-opacity="0" result="BackgroundImageFix"/>
<feBlend mode="normal" in="SourceGraphic" in2="BackgroundImageFix" result="shape"/>
<feGaussianBlur stdDeviation="188.54" result="effect1_foregroundBlur_5_96"/>
</filter>
<filter id="filter3_f_5_96" x="-124.522" y="551.358" width="1344.29" height="740.035" filterUnits="userSpaceOnUse" color-interpolation-filters="sRGB">
<feFlood flood-opacity="0" result="BackgroundImageFix"/>
<feBlend mode="normal" in="SourceGraphic" in2="BackgroundImageFix" result="shape"/>
<feGaussianBlur stdDeviation="87.9853" result="effect1_foregroundBlur_5_96"/>
</filter>
<filter id="filter4_f_5_96" x="231.948" y="633.928" width="2126.39" height="1581.47" filterUnits="userSpaceOnUse" color-interpolation-filters="sRGB">
<feFlood flood-opacity="0" result="BackgroundImageFix"/>
<feBlend mode="normal" in="SourceGraphic" in2="BackgroundImageFix" result="shape"/>
<feGaussianBlur stdDeviation="188.54" result="effect1_foregroundBlur_5_96"/>
</filter>
<filter id="filter5_f_5_96" x="-386.027" y="593.977" width="2139.34" height="1979.3" filterUnits="userSpaceOnUse" color-interpolation-filters="sRGB">
<feFlood flood-opacity="0" result="BackgroundImageFix"/>
<feBlend mode="normal" in="SourceGraphic" in2="BackgroundImageFix" result="shape"/>
<feGaussianBlur stdDeviation="251.386" result="effect1_foregroundBlur_5_96"/>
</filter>
<filter id="filter6_f_5_96" x="870.805" y="366.626" width="1939.71" height="1323.01" filterUnits="userSpaceOnUse" color-interpolation-filters="sRGB">
<feFlood flood-opacity="0" result="BackgroundImageFix"/>
<feBlend mode="normal" in="SourceGraphic" in2="BackgroundImageFix" result="shape"/>
<feGaussianBlur stdDeviation="251.386" result="effect1_foregroundBlur_5_96"/>
</filter>
<filter id="filter7_f_5_96" x="168.053" y="-220.353" width="2167.69" height="2123.84" filterUnits="userSpaceOnUse" color-interpolation-filters="sRGB">
<feFlood flood-opacity="0" result="BackgroundImageFix"/>
<feBlend mode="normal" in="SourceGraphic" in2="BackgroundImageFix" result="shape"/>
<feGaussianBlur stdDeviation="37.708" result="effect1_foregroundBlur_5_96"/>
</filter>
<filter id="filter8_f_5_96" x="1070.13" y="-217.408" width="1114.49" height="782.3" filterUnits="userSpaceOnUse" color-interpolation-filters="sRGB">
<feFlood flood-opacity="0" result="BackgroundImageFix"/>
<feBlend mode="normal" in="SourceGraphic" in2="BackgroundImageFix" result="shape"/>
<feGaussianBlur stdDeviation="87.9853" result="effect1_foregroundBlur_5_96"/>
</filter>
<filter id="filter9_f_5_96" x="1140.74" y="1017.21" width="974.602" height="680.296" filterUnits="userSpaceOnUse" color-interpolation-filters="sRGB">
<feFlood flood-opacity="0" result="BackgroundImageFix"/>
<feBlend mode="normal" in="SourceGraphic" in2="BackgroundImageFix" result="shape"/>
<feGaussianBlur stdDeviation="125.693" result="effect1_foregroundBlur_5_96"/>
</filter>
<filter id="filter10_f_5_96" x="734.279" y="687.856" width="1665.76" height="990.023" filterUnits="userSpaceOnUse" color-interpolation-filters="sRGB">
<feFlood flood-opacity="0" result="BackgroundImageFix"/>
<feBlend mode="normal" in="SourceGraphic" in2="BackgroundImageFix" result="shape"/>
<feGaussianBlur stdDeviation="125.693" result="effect1_foregroundBlur_5_96"/>
</filter>
<filter id="filter11_f_5_96" x="1320.91" y="792.572" width="1289.71" height="363.23" filterUnits="userSpaceOnUse" color-interpolation-filters="sRGB">
<feFlood flood-opacity="0" result="BackgroundImageFix"/>
<feBlend mode="normal" in="SourceGraphic" in2="BackgroundImageFix" result="shape"/>
<feGaussianBlur stdDeviation="12.5693" result="effect1_foregroundBlur_5_96"/>
</filter>
<filter id="filter12_f_5_96" x="166.888" y="347.568" width="1650.07" height="395.66" filterUnits="userSpaceOnUse" color-interpolation-filters="sRGB">
<feFlood flood-opacity="0" result="BackgroundImageFix"/>
<feBlend mode="normal" in="SourceGraphic" in2="BackgroundImageFix" result="shape"/>
<feGaussianBlur stdDeviation="37.708" result="effect1_foregroundBlur_5_96"/>
</filter>
<filter id="filter13_f_5_96" x="-187.456" y="243.67" width="938.02" height="463.441" filterUnits="userSpaceOnUse" color-interpolation-filters="sRGB">
<feFlood flood-opacity="0" result="BackgroundImageFix"/>
<feBlend mode="normal" in="SourceGraphic" in2="BackgroundImageFix" result="shape"/>
<feGaussianBlur stdDeviation="37.708" result="effect1_foregroundBlur_5_96"/>
</filter>
<filter id="filter14_f_5_96" x="199.413" y="310.689" width="1281.68" height="178.629" filterUnits="userSpaceOnUse" color-interpolation-filters="sRGB">
<feFlood flood-opacity="0" result="BackgroundImageFix"/>
<feBlend mode="normal" in="SourceGraphic" in2="BackgroundImageFix" result="shape"/>
<feGaussianBlur stdDeviation="12.5693" result="effect1_foregroundBlur_5_96"/>
</filter>
<linearGradient id="paint0_linear_5_96" x1="1559.41" y1="-37.779" x2="773.354" y2="1791.63" gradientUnits="userSpaceOnUse">
<stop offset="0.110285" stop-color="#FFEC51"/>
<stop offset="0.398407" stop-color="#FDD243"/>
<stop offset="1" stop-color="#FF9518"/>
</linearGradient>
<linearGradient id="paint1_linear_5_96" x1="1804.94" y1="562.251" x2="1860.36" y2="995.016" gradientUnits="userSpaceOnUse">
<stop stop-color="#FFEC4E"/>
<stop offset="1" stop-color="#FFEC89"/>
</linearGradient>
<linearGradient id="paint2_linear_5_96" x1="2087.3" y1="781.279" x2="1335.63" y2="2103.11" gradientUnits="userSpaceOnUse">
<stop stop-color="#FF8A00"/>
<stop offset="0.973609" stop-color="#EA0673"/>
</linearGradient>
<linearGradient id="paint3_linear_5_96" x1="1323.26" y1="1169.12" x2="1660.51" y2="1662.57" gradientUnits="userSpaceOnUse">
<stop stop-color="#FF0000" stop-opacity="0.5"/>
<stop offset="0.553746" stop-color="#9E021E"/>
<stop offset="1" stop-color="#BD3A52"/>
</linearGradient>
<linearGradient id="paint4_linear_5_96" x1="271.612" y1="1607.92" x2="1055.15" y2="2008.78" gradientUnits="userSpaceOnUse">
<stop stop-color="#FF347D" stop-opacity="0.5"/>
<stop offset="0.52039" stop-color="#FF3D83"/>
<stop offset="0.987965" stop-color="#B20342"/>
</linearGradient>
<linearGradient id="paint5_linear_5_96" x1="2428.65" y1="1359.56" x2="1214.2" y2="1234.49" gradientUnits="userSpaceOnUse">
<stop offset="0.0107892" stop-color="#FEB342"/>
<stop offset="0.465268" stop-color="#FF891C"/>
<stop offset="0.734032" stop-color="#FFA826" stop-opacity="0.4"/>
<stop offset="1" stop-color="#FF7816" stop-opacity="0"/>
</linearGradient>
<linearGradient id="paint6_linear_5_96" x1="2369.97" y1="858.181" x2="2141.03" y2="1341.59" gradientUnits="userSpaceOnUse">
<stop offset="0.174011" stop-color="#FFC700"/>
<stop offset="0.839432" stop-color="#FF7816" stop-opacity="0"/>
</linearGradient>
<linearGradient id="paint7_linear_5_96" x1="1180.87" y1="1288.81" x2="2354.48" y2="1152.79" gradientUnits="userSpaceOnUse">
<stop offset="0.0169896" stop-color="#F6253E"/>
<stop offset="0.50573" stop-color="#FF2B45"/>
<stop offset="1" stop-color="#FF6E2F" stop-opacity="0.5"/>
</linearGradient>
<linearGradient id="paint8_linear_5_96" x1="2279.79" y1="875.606" x2="2139.21" y2="1339.99" gradientUnits="userSpaceOnUse">
<stop offset="0.05" stop-color="#FFE6A7"/>
<stop offset="1" stop-color="#FF8A00" stop-opacity="0"/>
</linearGradient>
<linearGradient id="paint9_linear_5_96" x1="2302.07" y1="900.782" x2="2220.62" y2="1247.32" gradientUnits="userSpaceOnUse">
<stop offset="0.05" stop-color="#FFE9AF"/>
<stop offset="1" stop-color="#FF7816" stop-opacity="0"/>
</linearGradient>
<linearGradient id="paint10_linear_5_96" x1="1832.1" y1="749.2" x2="1851.93" y2="982.061" gradientUnits="userSpaceOnUse">
<stop stop-color="white"/>
<stop offset="1" stop-color="white" stop-opacity="0"/>
</linearGradient>
<radialGradient id="paint11_radial_5_96" cx="0" cy="0" r="1" gradientUnits="userSpaceOnUse" gradientTransform="translate(75.1645 496.195) rotate(-16.7292) scale(1540.99 691.555)">
<stop stop-color="#FFD726"/>
<stop offset="0.45058" stop-color="#FFD537"/>
<stop offset="0.7" stop-color="#FFD743"/>
<stop offset="1" stop-color="#F9DC43" stop-opacity="0"/>
</radialGradient>
<linearGradient id="paint12_linear_5_96" x1="646.314" y1="550.615" x2="177.106" y2="1111.06" gradientUnits="userSpaceOnUse">
<stop stop-color="#FFD232" stop-opacity="0"/>
<stop offset="1" stop-color="#FFA212"/>
</linearGradient>
<radialGradient id="paint13_radial_5_96" cx="0" cy="0" r="1" gradientUnits="userSpaceOnUse" gradientTransform="translate(667.254 407.716) scale(798.832 179.892)">
<stop stop-color="white"/>
<stop offset="0.835841" stop-color="white" stop-opacity="0"/>
</radialGradient>
<linearGradient id="paint14_linear_5_96" x1="371.546" y1="415.995" x2="388.865" y2="707.47" gradientUnits="userSpaceOnUse">
<stop stop-color="#FFEC89" stop-opacity="0.8"/>
<stop offset="0.7228" stop-color="#FFED8E" stop-opacity="0"/>
</linearGradient>
<linearGradient id="paint15_linear_5_96" x1="884.88" y1="410.967" x2="195.983" y2="365.471" gradientUnits="userSpaceOnUse">
<stop stop-color="white"/>
<stop offset="0.455511" stop-color="white" stop-opacity="0.388819"/>
<stop offset="0.835841" stop-color="white" stop-opacity="0"/>
</linearGradient>
</defs>
</svg>
