<?xml version="1.0" encoding="UTF-8"?><svg id="Capa_1" xmlns="http://www.w3.org/2000/svg" viewBox="0 0 592.39826 136.45179"><defs><style>.cls-1{stroke-width:0px;}</style></defs><path class="cls-1" d="m287.17183,46.05669l-4.75956,10.79718c-2.16741-.54049-4.72243-.81237-7.6629-.81237-5.03144,0-9.03759,1.16068-12.01627,3.48314-2.98087,2.32136-5.01178,6.11514-6.09494,11.37752l-6.96627,33.32018h-13.23482l7.43033-35.52635c1.70117-8.28091,5.20396-14.39605,10.50619-18.34324,5.30114-3.94774,12.01627-5.92133,20.14432-5.92133,5.1843,0,9.40338.54267,12.65394,1.62528Zm291.99052-18.92413l-16.25391,77.08977h13.23592l16.25391-77.08977h-13.23592Zm-23.79997,30.41793c2.55394,4.17976,3.83145,8.86398,3.83145,14.04828,0,2.24548-.23257,4.52808-.69663,6.84944-1.08534,5.2651-3.38705,10.02466-6.9084,14.28086-3.52244,4.25729-7.87691,7.60394-13.06121,10.04213-5.1854,2.4382-10.68089,3.65729-16.48648,3.65729-6.50113,0-12.15276-1.20054-16.95053-3.59888-4.79996-2.3978-8.47527-5.6893-11.0292-9.86852-2.55394-4.17976-3.83145-8.86125-3.83145-14.04828,0-2.24384.23257-4.52753.69663-6.84999,1.08316-5.26183,3.38596-10.02248,6.9084-14.27977,3.52026-4.2562,7.87473-7.60503,13.06121-10.04268,5.1843-2.4382,10.68089-3.65729,16.48648-3.65729,6.50113,0,12.15058,1.20108,16.95053,3.59888,4.79777,2.40052,8.47527,5.68876,11.0292,9.86852Zm-9.52021,14.51234c0-4.87584-1.6837-8.82358-5.05109-11.84212-3.3663-3.01854-7.83651-4.52753-13.40844-4.52753-5.80559,0-10.83812,1.64548-15.09323,4.93426-4.25838,3.29096-6.96627,7.68255-8.12695,13.17695-.38871,1.78142-.58089,3.32918-.58089,4.64382,0,4.87639,1.6837,8.82358,5.05,11.84266,3.3674,3.01854,7.8376,4.52753,13.40953,4.52753,5.80559,0,10.83594-1.64275,15.09323-4.93426,4.2562-3.28823,6.96627-7.68092,8.12695-13.17695.38653-1.77924.58089-3.32645.58089-4.64436Zm-94.44758-15.32471c2.20671-1.08316,5.32079-1.62583,9.3466-1.62583,6.65508,0,12.77077,1.7039,18.34379,5.10842l5.8045-9.98426c-2.94265-2.08988-6.40504-3.65729-10.39045-4.70223-3.98759-1.04494-8.18592-1.56741-12.59716-1.56741-7.35389,0-13.44884,1.37524-18.28592,4.12189-4.83817,2.74829-7.72077,6.32697-8.64888,10.73931-.3101,1.23875-.46515,2.55394-.46515,3.94719,0,3.79323,1.54721,7.0438,4.64491,9.75223,3.09442,2.71062,8.16517,4.95446,15.20897,6.7337,5.1843,1.31682,8.78318,2.63255,10.79663,3.94774,2.01236,1.31682,3.01908,2.78596,3.01908,4.41124,0,2.08988-1.18143,3.87185-3.54101,5.34099-2.36176,1.47132-5.6702,2.20562-9.92639,2.20562-8.12695,0-15.55728-2.08934-22.29207-6.2691l-6.03598,10.33258c3.25056,2.16795,7.29384,3.88932,12.13201,5.16683,4.83599,1.27697,9.96461,1.91518,15.38258,1.91518,7.58428,0,13.75784-1.43256,18.51849-4.2955,4.75956-2.86294,7.68037-6.65563,8.76571-11.37752.38544-1.77978.57979-3.32754.57979-4.64436,0-3.94719-1.58652-7.31404-4.75956-10.10055-3.17413-2.78651-8.51567-5.14609-16.02243-7.08201-4.8753-1.31464-8.24269-2.53428-10.1-3.65729-1.85731-1.12083-2.78651-2.418-2.78651-3.88932,0-1.93374,1.10281-3.44219,3.30843-4.52753Zm-31.9848.58034c2.55394,4.17922,3.83145,8.86343,3.83145,14.04774,0,2.1685-.23257,4.41234-.69663,6.7337-1.08534,5.26456-3.30953,10.02466-6.67583,14.28086-3.3674,4.25729-7.50785,7.58592-12.42246,9.98426-4.91679,2.39834-10.19936,3.59888-15.84772,3.59888-5.03253,0-9.50165-.87024-13.40953-2.61181-3.90897-1.74157-7.06454-4.31407-9.46234-7.72077l-5.80559,27.63142h-13.23482l10.44941-49.80666c1.85731-8.89892,5.95955-16.03935,12.30562-21.42019,6.34608-5.37866,14.31907-8.06908,23.91681-8.06908,6.1135,0,11.51182,1.18143,16.19604,3.54101,4.68203,2.36176,8.30056,5.63089,10.85559,9.81065Zm-9.63704,14.51234c0-4.87584-1.60617-8.80338-4.81743-11.78425-3.21344-2.97868-7.64434-4.46966-13.29379-4.46966-5.34044,0-10.15896,1.66514-14.45447,4.99213-4.2955,3.32918-6.98483,7.6629-8.06908,13.00334-.38762,1.93592-.57979,3.59888-.57979,4.99213,0,4.79996,1.58543,8.68982,4.75956,11.66796,3.17304,2.98087,7.58428,4.46966,13.23592,4.46966,5.4944,0,10.35114-1.66295,14.57021-4.99213,4.21798-3.327,6.9084-7.66235,8.06908-13.0028.38653-1.93429.57979-3.55902.57979-4.87639Zm-103.79308,10.56515c-3.55957,0-6.07638-.03767-7.54607-.11629.69663,4.02581,2.65002,7.18028,5.86346,9.46234,3.21125,2.28424,7.60394,3.42472,13.17695,3.42472,6.4236,0,12.8876-1.62528,19.38873-4.87584l3.48314,10.21683c-3.63928,1.85731-7.54716,3.29042-11.72583,4.2955-4.17976,1.00509-8.32131,1.50899-12.42246,1.50899-6.34717,0-11.8241-1.08425-16.42861-3.25056-4.6056-2.16631-8.14661-5.24217-10.62302-9.22976-2.4775-3.98541-3.71571-8.60957-3.71571-13.87413,0-2.8624.30901-5.57247.9292-8.12695,1.31573-5.72643,3.86857-10.69891,7.6629-14.91852,3.79105-4.21743,8.43487-7.43087,13.93145-9.63649,5.4944-2.20562,11.37752-3.30898,17.64716-3.30898,7.27419,0,13.00334,1.47132,17.18311,4.41179,4.17976,2.94265,6.26855,6.84999,6.26855,11.72638,0,1.39271-.15505,2.71062-.46405,3.94719-2.78651,12.23083-16.98984,18.34379-42.60891,18.34379Zm-6.96518-10.10055c1.62474.07807,4.2955.11574,8.01121.11574,8.74496,0,15.5955-.90845,20.54941-2.72809,4.95282-1.81745,7.73824-4.2753,8.35843-7.37246.07643-.30846.11683-.69663.11683-1.16068,0-1.85785-.98707-3.3472-2.96121-4.47021-1.97305-1.12083-4.85783-1.68315-8.64888-1.68315-6.34717,0-11.8241,1.49152-16.42861,4.46966-4.6056,2.98087-7.60394,7.25617-8.99719,12.82919Zm-110.52848-7.62345h-22.4068c-.50759,0-.88795-.45753-.80364-.95808,2.97506-17.66275-1.07731-33.90581-11.50454-45.90053C142.99647,5.41874,126.78725-.87902,108.12131.09895c-18.33573.95435-36.89841,8.838-52.26852,22.19896-3.38698,2.94429-6.52864,6.08117-9.41116,9.3727-.31068.35476-.75676.55965-1.22833.55965h-25.86968c-.80868,0-1.58468.31919-2.15931.88819l-.14191.14052C9.25214,40.9724,2.30311,55.10304.14348,67.62207l-.09804.5685c-.32346,1.87569,1.12087,3.59041,3.02425,3.59041h22.40642c.50759,0,.88794.45752.80364.95806-2.97477,17.66258,1.07764,33.90538,11.50444,45.90001,10.0505,11.56185,24.83048,17.81273,41.91969,17.81273,1.231,0,2.47611-.03278,3.73019-.09797,18.3359-.95435,36.89859-8.838,52.26834-22.19931,3.387-2.94421,6.52868-6.08109,9.4112-9.37253.31068-.35475.75675-.55964,1.22831-.55964h25.67038c.93664,0,1.83543-.36969,2.50099-1.02872h0c7.79025-7.71413,14.73928-21.84442,16.89891-34.36275l.09804-.56852c.32345-1.87568-1.12089-3.59039-3.02425-3.59039Zm-179.37069,0c-.53826,0-.9354-.51154-.79184-1.0303,2.43457-8.79802,7.114-17.94484,12.24274-23.76085.30698-.34812.75279-.54153,1.21692-.54153h47.45496c.5027,0,.9878-.18507,1.36275-.51991l5.77859-5.16034c.56059-.50061.20648-1.42878-.5451-1.42878h-19.20092c-.36523,0-.55-.44398-.28995-.70042,1.33836-1.31975,2.7286-2.61054,4.17361-3.86669,14.17787-12.32449,31.21546-19.59246,47.97392-20.4647,1.12528-.0585,2.23822-.08775,3.3413-.08775,15.00676,0,27.90253,5.39203,36.57348,15.36658,9.28463,10.68091,12.69142,25.42613,9.59886,41.53062-.07397.38518-.41445.66405-.80667.66405H9.11532Zm173.32507,7.10902c.53825,0,.93539.51153.79185,1.03029-2.4343,8.79763-7.11406,17.94424-12.24283,23.76049-.30698.34813-.7528.54155-1.21695.54155h-52.80202c-.5027,0-.98781.18507-1.36276.51991l-5.77851,5.16033c-.56058.50061-.20647,1.42877.5451,1.42877h24.55141c.36537,0,.54998.44439.28964.70075-1.34362,1.32309-2.73567,2.61337-4.17684,3.86618-14.17787,12.32484-31.21563,19.59281-47.97392,20.46505-16.43142.85286-30.60647-4.57124-39.91478-15.27918-9.60683-11.05132-12.56358-26.09514-9.59707-41.531.07399-.38501.41424-.66314.80629-.66314h148.08137Z"/></svg>