<?xml version="1.0" encoding="UTF-8"?><svg id="Capa_1" xmlns="http://www.w3.org/2000/svg" viewBox="0 0 341.07593 92.11053"><defs><style>.cls-1{fill:#fff;stroke-width:0px;}</style></defs><path class="cls-1" d="m17.18728,22.24892c5.07922-3.78231,11.51384-5.67348,19.30095-5.67348,4.96794,0,9.0108.51992,12.12566,1.55743l-4.56103,10.34574c-2.07676-.51815-4.52473-.7787-7.34213-.7787-4.82158,0-8.6595,1.11244-11.5138,3.33735-2.85609,2.22488-4.80227,5.85966-5.84036,10.90197l-6.67465,31.9272H0l7.11967-34.04086c1.6306-7.93467,4.98667-13.79433,10.0676-17.57664m43.49666,50.50505c-4.41291-2.0756-7.80586-5.02299-10.17889-8.84395-2.37419-3.81862-3.55984-8.24966-3.55984-13.29374,0-2.74247.29568-5.33974.88997-7.78711,1.26057-5.48729,3.70737-10.25148,7.34213-14.29492,3.63302-4.04111,8.08281-7.11966,13.34936-9.23331,5.2648-2.11364,10.90197-3.17048,16.90918-3.17048,6.97035,0,12.45939,1.40989,16.4642,4.2273,4.0048,2.81917,6.00721,6.56344,6.00721,11.23571,0,1.33493-.1493,2.59727-.44498,3.78233-2.66987,11.71932-16.27976,17.57664-40.82677,17.57664-3.41169,0-5.82278-.03631-7.2309-.11125.66748,3.85725,2.53931,6.8796,5.61785,9.06644,3.07679,2.18858,7.28653,3.2817,12.62626,3.2817,6.15477,0,12.34815-1.55743,18.57785-4.67226l3.33735,9.78951c-3.48665,1.77992-7.2309,3.15291-11.23571,4.11607-4.0048.96314-7.97332,1.44617-11.90318,1.44617-6.08156,0-11.32939-1.03926-15.7411-3.11484m6.95279-29.36858c8.38022,0,14.94365-.87064,19.69028-2.61425,4.74547-1.74127,7.41534-4.09673,8.00962-7.06403.07319-.29568.11125-.66748.11125-1.11244,0-1.77992-.94559-3.20678-2.83674-4.28292-1.89116-1.07381-4.65472-1.61305-8.28772-1.61305-6.08215,0-11.32939,1.42919-15.74112,4.28292-4.41348,2.85605-7.28653,6.95279-8.62146,12.29253,1.55743.07494,4.11605.11125,7.67589.11125m58.84838-19.52343c6.0804-5.15355,13.71998-7.73151,22.9164-7.73151,5.85791,0,11.03078,1.13178,15.51862,3.39297,4.48667,2.26294,7.95398,5.39536,10.40136,9.40016,2.44738,4.0048,3.67108,8.49265,3.67108,13.46059,0,2.07737-.22249,4.22731-.66748,6.4522-1.03926,5.04406-3.17048,9.60509-6.39656,13.68308-3.2261,4.07976-7.19402,7.26896-11.90318,9.56703-4.71032,2.29809-9.77196,3.44858-15.18489,3.44858-4.82157,0-9.10449-.83434-12.84876-2.50299-3.74543-1.66867-6.76835-4.13361-9.06643-7.39777l-5.56223,26.47622h-12.68189l10.01202-47.72394c1.7799-8.52719,5.71036-15.36873,11.79192-20.52462m.11125,25.4194c0,4.59907,1.51937,8.32635,4.56103,11.18007,3.0399,2.85607,7.26719,4.28292,12.68189,4.28292,5.26537,0,9.91834-1.59372,13.9612-4.78351,4.04168-3.18804,6.61905-7.34215,7.73149-12.45939.37062-1.85311.55623-3.40994.55623-4.67228,0-4.67226-1.53986-8.43526-4.61666-11.29133-3.07855-2.8543-7.32458-4.28292-12.73751-4.28292-5.11725,0-9.7339,1.59549-13.84995,4.78353-4.11605,3.18979-6.69342,7.34215-7.73149,12.45939-.3718,1.85486-.55623,3.44857-.55623,4.78353m88.32822-22.47141c-3.85727,0-6.84154.51992-8.9552,1.55743-2.11366,1.03984-3.17048,2.48544-3.17048,4.33854,0,1.40987.88997,2.65288,2.66987,3.72669,1.77992,1.07615,5.00602,2.24422,9.6783,3.5042,7.19283,1.85486,12.31007,4.11605,15.35174,6.78594,3.04049,2.66987,4.56102,5.89595,4.56102,9.67826,0,1.26177-.18618,2.74483-.55619,4.44979-1.03927,4.52473-3.83793,8.15891-8.39899,10.90199-4.56102,2.74306-10.47632,4.11604-17.74351,4.11604-5.19161,0-10.1057-.61184-14.7399-1.83553-4.63597-1.22369-8.51021-2.87305-11.62505-4.95039l5.7847-9.90077c6.45218,4.00482,13.57185,6.00721,21.35897,6.00721,4.07799,0,7.24847-.70377,9.51141-2.11364,2.26119-1.40755,3.39295-3.11485,3.39295-5.11726,0-1.55743-.96489-2.96553-2.89236-4.2273-1.92921-1.25998-5.3778-2.52056-10.34574-3.78231-6.74902-1.70496-11.6075-3.85493-14.57305-6.45218-2.9673-2.59493-4.44977-5.70978-4.44977-9.34456,0-1.33493.14813-2.59491.44498-3.78231.88993-4.2273,3.65175-7.65655,8.2877-10.29011,4.63422-2.63183,10.47457-3.9492,17.52104-3.9492,4.2273,0,8.24966.50061,12.07002,1.5018,3.81864,1.00121,7.13726,2.503,9.95639,4.50541l-5.56223,9.56703c-5.33974-3.26239-11.1994-4.89475-17.57662-4.89475m42.49545,45.72153c-4.59911-2.2975-8.12085-5.45098-10.56827-9.45579-2.44738-4.00482-3.67105-8.4909-3.67105-13.46061,0-2.14995.22246-4.33854.66744-6.56343,1.03809-5.04231,3.24368-9.60334,6.61909-13.68308,3.37362-4.07799,7.54529-7.28653,12.51502-9.62266,4.96794-2.33613,10.23449-3.50421,15.79672-3.50421,6.22971,0,11.64263,1.15109,16.24171,3.44859,4.59793,2.29984,8.12085,5.45098,10.56823,9.45579,2.44738,4.0048,3.67108,8.49324,3.67108,13.46059,0,2.15172-.22249,4.33854-.66748,6.56344-1.03924,5.04465-3.2454,9.60509-6.61905,13.68308-3.3754,4.07974-7.54708,7.28653-12.51502,9.62266-4.96912,2.33613-10.23449,3.50421-15.79672,3.50421-6.22971,0-11.64438-1.15051-16.24171-3.44858m-1.4462-23.36136c0,4.67226,1.61305,8.45459,4.83915,11.34695,3.2261,2.89236,7.50902,4.33852,12.84876,4.33852,5.56223,0,10.38205-1.5744,14.46177-4.72788,4.07801-3.15114,6.67469-7.35971,7.78715-12.62626.37001-1.70498.55619-3.18745.55619-4.44979,0-4.67226-1.61301-8.45459-4.83911-11.34695s-7.50902-4.33854-12.84876-4.33854c-5.56223,0-10.3838,1.57676-14.46181,4.7279-4.07976,3.15348-6.67465,7.36146-7.78711,12.62626-.3718,1.70673-.55623,3.18979-.55623,4.44979M328.39406,0h12.68187l-15.57423,73.86642h-12.68187L328.39406,0Z"/></svg>