<?xml version="1.0" encoding="utf-8"?>
<!-- Generator: Adobe Illustrator 26.0.2, SVG Export Plug-In . SVG Version: 6.00 Build 0)  -->
<svg version="1.1" id="Capa_1" xmlns="http://www.w3.org/2000/svg" xmlns:xlink="http://www.w3.org/1999/xlink" x="0px" y="0px"
	 width="1543.6px" height="618.1px" viewBox="0 0 1543.6 618.1" style="enable-background:new 0 0 1543.6 618.1;"
	 xml:space="preserve">
<style type="text/css">
	.st0{fill:#585757;}
</style>
<g>
	<g>
		<g>
			<path class="st0" d="M631.3,326.6c-2.3,23.1-11.7,41.8-28.3,56.1c-16.6,14.2-38,21.4-64.3,21.4c-28.6,0-51.8-9.2-69.8-27.4
				c-17.9-18.3-26.9-42.7-26.9-73.3c0-30.6,9.1-55.4,27.5-74.5c18.3-19,42.8-28.5,73.5-28.5c24.7,0,45.2,7.1,61.3,21.5
				c16.2,14.3,25.1,32.4,26.9,53.9l-55.7,3.1c-1.8-23.6-12.4-35.2-31.5-35.2c-23.6,0-35.4,18.7-35.4,56.2c0,24.9,3.3,40.6,9.9,47.4
				c6.6,6.7,14.6,10,24.1,10c18.4,0,29.4-11.3,33-33.9L631.3,326.6z"/>
			<path class="st0" d="M748.6,238.1c-11.3,0-19.8,4.2-25.5,12.7c-5.7,8.5-8.6,25.3-8.6,50.5c0,23,2.8,39.7,8.2,49.8
				c5.5,10,14,15,25.5,15c10.1,0,18.3-4.2,24.5-12.9c6.3-8.6,9.3-24.9,9.3-49.1c0-25.7-2.8-43.1-8.2-52.3
				C768.3,242.7,759.9,238.1,748.6,238.1 M747,200.3c30.8,0,54.7,9.7,72,29.2c17.3,19.5,25.9,43.9,25.9,73.2
				c0,28.9-9,53.1-26.8,72.4c-18,19.3-41.7,29-71.5,29c-28.7,0-51.8-9.6-69-28.7c-17.2-19.1-25.8-43.7-25.8-73.6
				c0-20.8,3.9-38.4,11.7-52.9c7.8-14.5,18.5-26.2,32.1-35.1C709,204.8,726.2,200.3,747,200.3"/>
		</g>
		<rect x="883.3" y="130.2" class="st0" width="60.4" height="58.3"/>
		<g>
			<path class="st0" d="M1105.5,306.3c-41.6,4-62.3,16.2-62.3,36.6c0,6.9,2.2,12.8,6.5,17.8c4.4,5,10.7,7.5,18.8,7.5
				c10.6,0,19.3-4.3,26.4-12.7c7.1-8.5,10.6-18.9,10.6-31.3L1105.5,306.3L1105.5,306.3z M1168.7,400.1h-57.8
				c-1.8-7.8-2.8-18-2.8-30.7c-10.1,14-20.2,23.2-30.3,27.8c-10.1,4.6-21.5,6.9-34.2,6.9c-18.9,0-34.2-5-45.9-14.9
				c-11.6-10-17.4-23.3-17.4-40.2c0-12.3,3.4-23.5,10.2-33.9c6.8-10.3,17.7-18.4,32.7-24.3c15.1-5.9,42.5-10.3,82.2-13v-11.3
				c0-19-9.8-28.5-29.3-28.5c-20.9,0-32.6,9.5-34.9,28.5l-55-5.1c3.5-22.2,14.4-37.9,32.6-47.2c18.1-9.3,38.6-13.9,61.6-13.9
				c13.7,0,26.6,1.6,38.8,4.6c12.2,3.1,21.6,7.8,28.4,14c6.8,6.1,11.5,12.7,13.8,19.7c2.4,6.9,3.7,19,3.7,36.1v88.8
				C1165.1,380.5,1166.3,392.7,1168.7,400.1"/>
		</g>
		<rect x="1214.3" y="135.6" class="st0" width="59.6" height="264.5"/>
		<path class="st0" d="M1382.5,400.1h-59.6V204.4h59.6V400.1z M1382.5,187.9h-59.6v-57.8h59.6V187.9z"/>
		<rect x="883.3" y="208.3" class="st0" width="60.4" height="279.6"/>
		<circle class="st0" cx="260.6" cy="299.9" r="99.6"/>
		
			<ellipse transform="matrix(0.1602 -0.9871 0.9871 0.1602 -84.9327 700.2559)" class="st0" cx="369.1" cy="400" rx="48.1" ry="48.1"/>
	</g>
</g>
</svg>
