<?xml version="1.0" encoding="utf-8"?>
<!-- Generator: Adobe Illustrator 25.0.0, SVG Export Plug-In . SVG Version: 6.00 Build 0)  -->
<svg version="1.1" id="Capa_1" xmlns="http://www.w3.org/2000/svg" xmlns:xlink="http://www.w3.org/1999/xlink" x="0px" y="0px"
	 viewBox="0 0 1350.48 618.07" style="enable-background:new 0 0 1350.48 618.07;" xml:space="preserve">
<style type="text/css">
	.Arqueado:_x0020_verde{fill:url(#SVGID_1_);stroke:#FFFFFF;stroke-width:0.25;stroke-miterlimit:1;}
	.st0{fill:#FFFFFF;}
	.st1{fill:#004A98;}
</style>
<linearGradient id="SVGID_1_" gradientUnits="userSpaceOnUse" x1="694.2472" y1="-1358.9677" x2="694.9543" y2="-1359.6748">
	<stop  offset="0" style="stop-color:#259E2E"/>
	<stop  offset="0.9831" style="stop-color:#1C381D"/>
</linearGradient>
<g>
	<g>
		<g>
			<g>
				<path class="st0" d="M535.04,326.6c-2.31,23.15-11.7,41.81-28.32,56.15c-16.62,14.24-38.05,21.39-64.26,21.39
					c-28.6,0-51.8-9.2-69.77-27.41C354.77,358.4,345.8,334,345.8,303.39c0-30.65,9.12-55.45,27.49-74.53
					c18.3-19.04,42.83-28.52,73.49-28.52c24.67,0,45.17,7.14,61.34,21.46c16.18,14.34,25.14,32.36,26.92,53.85l-55.67,3.13
					c-1.82-23.55-12.36-35.24-31.55-35.24c-23.64,0-35.37,18.7-35.37,56.19c0,24.89,3.29,40.65,9.87,47.41
					c6.63,6.74,14.63,10.05,24.09,10.05c18.44,0,29.39-11.27,32.96-33.89L535.04,326.6z"/>
				<path class="st0" d="M652.33,238.12c-11.34,0-19.8,4.22-25.54,12.66c-5.69,8.46-8.56,25.27-8.56,50.46
					c0,23.05,2.76,39.72,8.15,49.84c5.49,10.05,13.97,15.03,25.54,15.03c10.09,0,18.26-4.23,24.54-12.88
					c6.26-8.6,9.35-24.93,9.35-49.11c0-25.72-2.77-43.13-8.24-52.33C672.02,242.66,663.63,238.12,652.33,238.12 M650.74,200.34
					c30.78,0,54.71,9.73,72.01,29.22c17.26,19.5,25.88,43.91,25.88,73.2c0,28.94-8.96,53.1-26.85,72.39
					c-17.97,19.31-41.74,28.98-71.49,28.98c-28.74,0-51.76-9.61-69.03-28.71c-17.17-19.09-25.83-43.66-25.83-73.64
					c0-20.78,3.87-38.39,11.65-52.95c7.81-14.5,18.5-26.25,32.14-35.12C612.79,204.79,629.97,200.34,650.74,200.34"/>
			</g>
			<rect x="787.02" y="130.17" class="st0" width="60.42" height="58.35"/>
			<g>
				<path class="st0" d="M1009.2,306.29c-41.59,3.98-62.33,16.21-62.33,36.59c0,6.87,2.18,12.77,6.53,17.76
					c4.42,4.97,10.65,7.47,18.76,7.47c10.57,0,19.29-4.27,26.44-12.72c7.06-8.47,10.59-18.89,10.59-31.26V306.29z M1072.44,400.07
					h-57.82c-1.83-7.77-2.77-18-2.77-30.66c-10.14,13.97-20.21,23.24-30.26,27.82c-10.05,4.57-21.46,6.91-34.23,6.91
					c-18.95,0-34.2-5-45.87-14.9c-11.62-9.99-17.43-23.33-17.43-40.16c0-12.26,3.39-23.5,10.19-33.89
					c6.76-10.34,17.71-18.44,32.71-24.29c15.07-5.88,42.47-10.26,82.25-13.04v-11.28c0-19.01-9.77-28.49-29.27-28.49
					c-20.87,0-32.56,9.47-34.87,28.49l-55.02-5.06c3.53-22.16,14.44-37.93,32.64-47.25c18.08-9.28,38.6-13.9,61.58-13.9
					c13.71,0,26.62,1.55,38.76,4.62c12.16,3.11,21.61,7.75,28.37,13.97c6.84,6.13,11.46,12.71,13.8,19.66
					c2.44,6.88,3.65,18.95,3.65,36.12v88.75C1068.85,380.51,1070.02,392.68,1072.44,400.07"/>
			</g>
			<rect x="1118.06" y="135.58" class="st0" width="59.57" height="264.49"/>
			<path class="st0" d="M1286.28,400.07h-59.64V204.39h59.64V400.07z M1286.28,187.94h-59.64v-57.78h59.64V187.94z"/>
			<rect x="787.02" y="208.26" class="st0" width="60.42" height="279.64"/>
			<circle class="st0" cx="164.32" cy="299.92" r="99.57"/>
			
				<ellipse transform="matrix(0.1602 -0.9871 0.9871 0.1602 -165.7794 605.2355)" class="st0" cx="272.79" cy="400.04" rx="48.14" ry="48.14"/>
		</g>
	</g>
</g>
</svg>
